{"glyphs":{"0":{"ha":740,"x_min":53,"x_max":688,"o":"m 351 -17 q 229 8 285 -17 q 135 78 174 33 q 74 185 96 122 q 53 326 53 249 q 78 476 53 407 q 149 594 104 544 q 255 673 193 644 q 390 701 317 701 q 510 677 456 701 q 605 608 565 653 q 666 502 644 564 q 688 365 688 440 q 663 213 688 282 q 592 92 638 143 q 485 12 547 40 q 351 -17 424 -17 m 376 89 q 471 106 428 89 q 545 155 514 124 q 593 230 576 186 q 610 326 610 274 q 592 433 610 385 q 540 515 574 481 q 461 569 507 550 q 361 589 415 589 q 266 572 308 589 q 194 523 224 554 q 147 447 164 492 q 131 347 131 401 q 149 242 131 290 q 199 160 167 194 q 276 108 231 126 q 376 89 322 89 z "},"1":{"ha":492,"x_min":49,"x_max":440,"o":"m 304 561 q 300 445 301 506 q 298 329 299 385 q 297 228 297 274 q 296 156 296 182 q 310 81 296 100 q 364 61 324 61 q 389 61 376 61 q 413 63 401 61 q 438 65 425 64 l 440 60 l 428 -4 q 361 -3 394 -4 q 301 -1 333 -1 q 243 0 268 0 q 185 -3 215 0 q 129 -8 156 -6 q 68 -17 99 -12 l 76 47 q 140 58 115 50 q 178 84 164 67 q 197 131 192 101 q 201 206 201 160 l 201 522 q 182 588 201 575 q 126 601 163 601 q 103 600 115 601 q 79 597 90 599 q 53 593 65 594 l 49 597 l 54 656 q 104 661 79 657 q 153 668 126 664 q 207 676 179 672 q 286 690 258 685 q 327 697 314 694 q 343 701 340 700 q 347 701 346 701 l 356 678 q 333 656 342 667 q 318 632 324 644 q 309 602 313 619 q 304 561 306 585 z "},"2":{"ha":660,"x_min":38,"x_max":629,"o":"m 38 8 l 147 131 q 319 353 264 263 q 374 503 374 444 q 346 581 374 553 q 269 608 318 608 q 176 575 222 608 q 99 485 131 542 l 86 485 l 71 547 q 114 609 88 581 q 172 658 140 638 q 238 690 203 678 q 306 701 272 701 q 444 656 393 701 q 496 535 496 610 q 481 467 496 503 q 433 379 467 431 q 342 259 399 328 q 200 94 285 190 l 206 85 l 418 85 q 481 90 456 85 q 524 108 507 94 q 551 147 540 122 q 574 211 563 171 l 629 218 q 613 147 619 183 q 599 76 606 115 q 589 0 593 38 l 572 -10 q 394 -6 479 -8 q 320 -3 358 -4 q 247 -2 282 -3 q 180 -1 211 -1 q 126 0 149 0 l 51 -17 l 38 8 z "},"3":{"ha":576,"x_min":28,"x_max":496,"o":"m 35 -36 q 146 -49 93 -49 q 242 -35 197 -49 q 321 4 288 -21 q 373 63 354 29 q 392 136 392 96 q 331 241 392 207 q 143 276 271 275 l 136 283 l 129 332 l 219 354 q 310 426 275 381 q 346 517 346 471 q 315 588 346 561 q 238 614 283 614 q 154 594 197 614 q 79 543 111 575 l 65 543 l 51 601 q 128 651 89 629 q 201 686 161 671 q 281 701 242 701 q 412 659 363 701 q 461 546 461 617 q 420 438 461 490 q 308 349 379 385 l 308 342 q 496 169 496 297 q 462 58 496 114 q 373 -44 428 1 q 251 -117 318 -89 q 117 -146 183 -146 q 49 -122 69 -146 q 28 -44 29 -99 l 35 -36 z "},"4":{"ha":621,"x_min":6,"x_max":582,"o":"m 11 175 l 394 700 q 397 701 396 700 q 400 701 399 701 l 444 688 l 444 199 l 574 199 l 582 188 l 571 111 q 536 113 556 111 q 496 113 519 113 q 444 115 472 114 q 446 31 444 72 q 450 -44 447 -11 q 454 -119 453 -83 l 447 -129 l 349 -146 l 340 -133 q 344 -49 343 -93 q 347 33 346 -12 q 349 118 347 78 q 178 122 268 121 q 6 124 88 124 l 11 175 m 113 199 l 349 199 l 349 510 l 336 510 l 113 199 z "},"5":{"ha":597,"x_min":22,"x_max":528,"o":"m 506 178 q 467 56 506 114 q 370 -48 429 -3 q 242 -119 311 -93 q 110 -146 172 -146 q 47 -126 69 -146 q 22 -44 25 -106 l 29 -36 q 142 -49 88 -49 q 243 -35 196 -49 q 325 2 290 -22 q 380 60 360 26 q 400 136 400 94 q 385 196 400 169 q 337 243 371 222 q 247 281 303 264 q 110 311 192 297 l 97 326 q 107 449 103 389 q 114 557 111 508 q 121 665 118 613 l 132 676 l 394 688 q 453 700 435 690 q 482 742 471 710 l 528 747 l 494 583 l 486 575 q 394 581 443 578 q 298 585 353 583 q 182 586 243 586 l 172 411 q 303 375 242 394 q 409 328 364 356 q 480 264 454 300 q 506 178 506 228 z "},"6":{"ha":632,"x_min":56,"x_max":582,"o":"m 542 782 q 389 697 460 750 q 269 581 328 653 q 182 408 210 510 l 188 406 q 249 442 219 426 q 300 467 274 456 q 342 478 326 478 q 447 457 401 478 q 522 403 492 436 q 567 330 551 371 q 582 250 582 289 q 562 147 582 196 q 505 62 542 99 q 417 4 468 25 q 306 -17 367 -17 q 201 6 247 -17 q 123 67 156 28 q 73 159 90 106 q 56 274 56 213 q 76 417 56 351 q 128 536 96 482 q 201 633 160 590 q 286 708 243 675 q 517 831 388 785 l 526 824 l 542 782 m 311 396 q 266 390 288 396 q 226 376 244 385 q 193 359 207 368 q 171 344 179 350 q 167 282 167 313 q 210 113 167 176 q 333 50 254 50 q 440 94 400 50 q 479 217 479 138 q 467 284 479 251 q 432 342 454 317 q 379 381 410 367 q 311 396 349 396 z "},"7":{"ha":583,"x_min":53,"x_max":581,"o":"m 225 -146 l 142 -121 l 128 -90 l 475 590 l 235 581 q 177 572 199 579 q 142 551 156 565 q 122 513 129 536 q 107 451 114 489 l 53 443 q 64 524 58 482 q 72 601 68 560 q 79 683 76 643 l 88 690 q 140 688 113 689 q 194 685 164 686 q 257 685 225 685 l 550 685 l 581 646 q 385 235 460 403 q 269 -26 310 67 l 235 -146 l 225 -146 z "},"8":{"ha":674,"x_min":78,"x_max":599,"o":"m 78 172 q 97 259 78 221 q 144 325 117 297 q 203 372 172 353 q 257 401 233 390 q 199 438 226 418 q 149 481 171 457 q 115 535 128 506 q 103 604 103 565 q 121 688 103 647 q 172 761 139 729 q 251 812 206 793 q 353 831 297 831 q 432 819 393 831 q 501 784 471 807 q 551 726 532 761 q 569 644 569 692 q 556 572 569 604 q 522 515 543 540 q 477 472 501 490 q 432 443 453 454 q 495 405 465 425 q 548 359 525 385 q 585 302 571 333 q 599 231 599 271 q 577 134 599 179 q 517 56 556 89 q 427 3 479 22 q 315 -17 375 -17 q 225 -4 268 -17 q 149 32 182 8 q 97 91 117 56 q 78 172 78 126 m 349 43 q 407 54 379 43 q 456 85 435 65 q 490 131 478 104 q 503 190 503 158 q 486 252 503 225 q 442 301 469 279 q 378 340 414 322 q 306 376 343 358 q 267 356 289 369 q 225 323 244 343 q 192 274 206 303 q 179 206 179 244 q 192 144 179 174 q 227 92 204 115 q 281 56 250 69 q 349 43 311 43 m 200 646 q 215 589 200 614 q 256 543 231 564 q 315 504 282 522 q 382 468 347 486 q 410 489 396 476 q 438 519 425 501 q 458 561 450 538 q 465 615 465 585 q 426 728 465 690 q 329 767 388 767 q 235 730 269 767 q 200 646 200 693 z "},"9":{"ha":632,"x_min":50,"x_max":576,"o":"m 90 -97 q 243 -12 172 -65 q 363 102 304 32 q 449 275 421 172 l 444 279 q 383 243 413 258 q 332 218 358 229 q 290 207 306 207 q 185 228 231 207 q 110 281 140 249 q 65 354 81 314 q 50 435 50 394 q 70 538 50 489 q 126 623 90 586 q 214 681 163 660 q 326 701 265 701 q 431 679 385 701 q 509 618 476 657 q 559 526 542 579 q 576 411 576 472 q 556 267 576 332 q 504 148 536 201 q 431 52 472 94 q 346 -24 389 10 q 115 -146 244 -100 l 106 -139 l 90 -97 m 321 289 q 365 294 343 289 q 406 308 388 300 q 438 326 424 317 q 461 340 453 335 q 465 403 465 369 q 421 571 465 507 q 299 635 376 635 q 192 591 232 635 q 153 468 153 547 q 165 399 153 432 q 199 342 176 367 q 252 303 221 318 q 321 289 283 289 z "}," ":{"ha":281,"x_min":0,"x_max":0,"o":""},"Ă":{"ha":803,"x_min":-25,"x_max":821,"o":"m 685 157 q 703 113 693 131 q 729 84 714 96 q 766 67 744 72 q 818 58 788 61 l 821 53 l 811 -4 q 756 -3 782 -4 q 707 -1 732 -1 q 664 0 682 0 q 587 -2 624 0 q 521 -7 550 -4 q 457 -14 486 -11 l 453 -4 l 458 50 q 556 67 531 56 q 582 103 582 78 q 569 169 582 129 l 524 321 q 492 322 511 321 q 453 322 474 322 q 413 322 433 322 q 379 322 393 322 q 295 318 339 322 q 228 311 251 314 l 176 167 q 164 113 164 129 q 183 69 164 82 q 247 56 203 56 l 326 56 l 329 50 l 321 -10 q 258 -6 290 -8 q 197 -1 231 -3 q 128 0 163 0 q 76 -1 103 0 q 26 -3 49 -1 q -25 -4 0 -4 l -14 61 q 48 88 25 65 q 94 168 71 110 l 365 878 l 453 901 l 464 901 q 535 646 499 775 q 568 529 550 590 q 606 405 586 468 q 645 278 625 342 q 685 157 665 215 m 253 379 l 375 379 q 442 381 403 379 q 504 386 481 383 l 394 750 l 385 750 l 253 379 m 408 1067 q 488 1084 453 1067 q 542 1136 524 1101 l 553 1136 l 575 1122 q 554 1072 568 1097 q 520 1028 540 1047 q 472 998 500 1010 q 408 986 444 986 q 344 998 372 986 q 297 1028 317 1010 q 263 1072 276 1047 q 242 1122 249 1097 l 264 1136 l 275 1136 q 328 1084 293 1101 q 408 1067 364 1067 z "},"Â":{"ha":803,"x_min":-25,"x_max":821,"o":"m 685 157 q 703 113 693 131 q 729 84 714 96 q 766 67 744 72 q 818 58 788 61 l 821 53 l 811 -4 q 756 -3 782 -4 q 707 -1 732 -1 q 664 0 682 0 q 587 -2 624 0 q 521 -7 550 -4 q 457 -14 486 -11 l 453 -4 l 458 50 q 556 67 531 56 q 582 103 582 78 q 569 169 582 129 l 524 321 q 492 322 511 321 q 453 322 474 322 q 413 322 433 322 q 379 322 393 322 q 295 318 339 322 q 228 311 251 314 l 176 167 q 164 113 164 129 q 183 69 164 82 q 247 56 203 56 l 326 56 l 329 50 l 321 -10 q 258 -6 290 -8 q 197 -1 231 -3 q 128 0 163 0 q 76 -1 103 0 q 26 -3 49 -1 q -25 -4 0 -4 l -14 61 q 48 88 25 65 q 94 168 71 110 l 365 878 l 453 901 l 464 901 q 535 646 499 775 q 568 529 550 590 q 606 405 586 468 q 645 278 625 342 q 685 157 665 215 m 253 379 l 375 379 q 442 381 403 379 q 504 386 481 383 l 394 750 l 385 750 l 253 379 m 208 1021 q 276 1073 242 1046 q 338 1124 310 1100 q 400 1175 369 1150 l 419 1175 q 482 1124 450 1150 q 543 1073 510 1100 q 611 1021 576 1046 l 592 990 l 579 989 q 484 1041 531 1017 q 410 1079 438 1065 q 335 1042 381 1065 q 240 989 290 1018 l 228 990 l 208 1021 z "},"Ä":{"ha":803,"x_min":-25,"x_max":821,"o":"m 685 157 q 703 113 693 131 q 729 84 714 96 q 766 67 744 72 q 818 58 788 61 l 821 53 l 811 -4 q 756 -3 782 -4 q 707 -1 732 -1 q 664 0 682 0 q 587 -2 624 0 q 521 -7 550 -4 q 457 -14 486 -11 l 453 -4 l 458 50 q 556 67 531 56 q 582 103 582 78 q 569 169 582 129 l 524 321 q 492 322 511 321 q 453 322 474 322 q 413 322 433 322 q 379 322 393 322 q 295 318 339 322 q 228 311 251 314 l 176 167 q 164 113 164 129 q 183 69 164 82 q 247 56 203 56 l 326 56 l 329 50 l 321 -10 q 258 -6 290 -8 q 197 -1 231 -3 q 128 0 163 0 q 76 -1 103 0 q 26 -3 49 -1 q -25 -4 0 -4 l -14 61 q 48 88 25 65 q 94 168 71 110 l 365 878 l 453 901 l 464 901 q 535 646 499 775 q 568 529 550 590 q 606 405 586 468 q 645 278 625 342 q 685 157 665 215 m 253 379 l 375 379 q 442 381 403 379 q 504 386 481 383 l 394 750 l 385 750 l 253 379 m 518 1007 q 476 1026 490 1007 q 461 1067 461 1044 q 481 1115 461 1094 q 531 1136 500 1136 q 573 1118 558 1136 q 588 1076 588 1100 q 568 1028 588 1049 q 518 1007 549 1007 m 288 1007 q 245 1026 260 1007 q 231 1067 231 1044 q 250 1115 231 1094 q 300 1136 269 1136 q 342 1118 328 1136 q 357 1076 357 1100 q 338 1028 357 1049 q 288 1007 318 1007 z "},"À":{"ha":803,"x_min":-25,"x_max":821,"o":"m 685 157 q 703 113 693 131 q 729 84 714 96 q 766 67 744 72 q 818 58 788 61 l 821 53 l 811 -4 q 756 -3 782 -4 q 707 -1 732 -1 q 664 0 682 0 q 587 -2 624 0 q 521 -7 550 -4 q 457 -14 486 -11 l 453 -4 l 458 50 q 556 67 531 56 q 582 103 582 78 q 569 169 582 129 l 524 321 q 492 322 511 321 q 453 322 474 322 q 413 322 433 322 q 379 322 393 322 q 295 318 339 322 q 228 311 251 314 l 176 167 q 164 113 164 129 q 183 69 164 82 q 247 56 203 56 l 326 56 l 329 50 l 321 -10 q 258 -6 290 -8 q 197 -1 231 -3 q 128 0 163 0 q 76 -1 103 0 q 26 -3 49 -1 q -25 -4 0 -4 l -14 61 q 48 88 25 65 q 94 168 71 110 l 365 878 l 453 901 l 464 901 q 535 646 499 775 q 568 529 550 590 q 606 405 586 468 q 645 278 625 342 q 685 157 665 215 m 253 379 l 375 379 q 442 381 403 379 q 504 386 481 383 l 394 750 l 385 750 l 253 379 m 197 1093 l 219 1160 l 232 1168 q 321 1118 275 1143 q 410 1069 361 1096 q 508 1017 460 1042 l 500 983 l 489 976 q 383 1015 433 997 q 292 1049 332 1033 q 203 1079 246 1064 l 197 1093 z "},"Ā":{"ha":803,"x_min":-25,"x_max":821,"o":"m 685 157 q 703 113 693 131 q 729 84 714 96 q 766 67 744 72 q 818 58 788 61 l 821 53 l 811 -4 q 756 -3 782 -4 q 707 -1 732 -1 q 664 0 682 0 q 587 -2 624 0 q 521 -7 550 -4 q 457 -14 486 -11 l 453 -4 l 458 50 q 556 67 531 56 q 582 103 582 78 q 569 169 582 129 l 524 321 q 492 322 511 321 q 453 322 474 322 q 413 322 433 322 q 379 322 393 322 q 295 318 339 322 q 228 311 251 314 l 176 167 q 164 113 164 129 q 183 69 164 82 q 247 56 203 56 l 326 56 l 329 50 l 321 -10 q 258 -6 290 -8 q 197 -1 231 -3 q 128 0 163 0 q 76 -1 103 0 q 26 -3 49 -1 q -25 -4 0 -4 l -14 61 q 48 88 25 65 q 94 168 71 110 l 365 878 l 453 901 l 464 901 q 535 646 499 775 q 568 529 550 590 q 606 405 586 468 q 645 278 625 342 q 685 157 665 215 m 253 379 l 375 379 q 442 381 403 379 q 504 386 481 383 l 394 750 l 385 750 l 253 379 m 617 1067 l 607 1001 l 410 1000 q 344 999 378 1000 q 279 999 310 999 l 210 999 l 201 1011 l 215 1074 q 292 1072 254 1072 l 429 1072 q 486 1073 456 1072 q 544 1076 517 1074 q 608 1081 576 1078 l 617 1067 z "},"Ą":{"ha":803,"x_min":-25,"x_max":821,"o":"m 821 -247 q 778 -282 801 -265 q 733 -312 758 -297 q 682 -335 708 -326 q 571 -301 614 -335 q 528 -204 528 -267 q 565 -106 528 -156 q 658 0 603 -56 q 582 -2 618 0 q 518 -7 546 -4 q 457 -14 485 -11 l 453 -4 l 458 50 q 556 67 531 56 q 582 103 582 78 q 569 169 582 129 l 524 321 q 492 322 511 321 q 453 322 474 322 q 413 322 433 322 q 379 322 393 322 q 295 318 339 322 q 228 311 251 314 l 176 167 q 164 113 164 129 q 183 69 164 82 q 247 56 203 56 l 326 56 l 329 50 l 321 -10 q 258 -6 290 -8 q 197 -1 231 -3 q 128 0 163 0 q 76 -1 103 0 q 26 -3 49 -1 q -25 -4 0 -4 l -14 61 q 48 88 25 65 q 94 168 71 110 l 365 878 l 453 901 l 464 901 q 535 646 499 775 q 568 529 550 590 q 606 405 586 468 q 645 278 625 342 q 685 157 665 215 q 703 113 693 131 q 729 84 714 96 q 766 67 744 72 q 818 58 788 61 l 821 53 l 811 -4 q 782 -3 797 -4 q 752 -1 768 -1 q 719 0 736 -1 q 640 -97 664 -58 q 615 -178 615 -136 q 638 -231 615 -210 q 696 -253 660 -253 q 735 -249 715 -253 q 769 -237 754 -244 q 803 -221 786 -231 l 821 -247 m 253 379 l 375 379 q 442 381 403 379 q 504 386 481 383 l 394 750 l 385 750 l 253 379 z "},"˛":{"ha":553,"x_min":128,"x_max":421,"o":"m 421 -247 q 378 -282 401 -265 q 333 -312 358 -297 q 282 -335 308 -326 q 171 -301 214 -335 q 128 -204 128 -267 q 144 -143 128 -174 q 185 -81 160 -112 q 246 -14 211 -49 q 318 58 281 21 l 376 58 q 303 -19 333 14 q 253 -78 272 -51 q 224 -129 233 -106 q 215 -178 215 -153 q 238 -231 215 -210 q 296 -253 260 -253 q 335 -249 315 -253 q 369 -237 354 -244 q 403 -221 386 -231 l 421 -247 z "},"Å":{"ha":803,"x_min":-25,"x_max":821,"o":"m 685 157 q 703 113 693 131 q 729 84 714 96 q 766 67 744 72 q 818 58 788 61 l 821 53 l 811 -4 q 756 -3 782 -4 q 707 -1 732 -1 q 664 0 682 0 q 587 -2 624 0 q 521 -7 550 -4 q 457 -14 486 -11 l 453 -4 l 458 50 q 556 67 531 56 q 582 103 582 78 q 569 169 582 129 l 524 321 q 492 322 511 321 q 453 322 474 322 q 413 322 433 322 q 379 322 393 322 q 295 318 339 322 q 228 311 251 314 l 176 167 q 164 113 164 129 q 183 69 164 82 q 247 56 203 56 l 326 56 l 329 50 l 321 -10 q 258 -6 290 -8 q 197 -1 231 -3 q 128 0 163 0 q 76 -1 103 0 q 26 -3 49 -1 q -25 -4 0 -4 l -14 61 q 48 88 25 65 q 94 168 71 110 l 365 878 l 453 901 l 464 901 q 535 646 499 775 q 568 529 550 590 q 606 405 586 468 q 645 278 625 342 q 685 157 665 215 m 253 379 l 375 379 q 442 381 403 379 q 504 386 481 383 l 394 750 l 385 750 l 253 379 m 413 989 q 431 990 421 989 q 451 997 442 992 q 467 1014 461 1003 q 474 1043 474 1025 q 456 1091 474 1072 q 403 1110 438 1110 q 357 1095 372 1110 q 342 1056 342 1081 q 366 1004 342 1019 q 413 989 390 989 m 403 936 q 324 967 351 936 q 297 1047 297 999 q 329 1131 297 1097 q 414 1164 361 1164 q 463 1155 443 1164 q 496 1131 483 1146 q 515 1097 508 1117 q 521 1058 521 1078 q 490 973 521 1010 q 403 936 460 936 z "},"Ã":{"ha":803,"x_min":-25,"x_max":821,"o":"m 685 157 q 703 113 693 131 q 729 84 714 96 q 766 67 744 72 q 818 58 788 61 l 821 53 l 811 -4 q 756 -3 782 -4 q 707 -1 732 -1 q 664 0 682 0 q 587 -2 624 0 q 521 -7 550 -4 q 457 -14 486 -11 l 453 -4 l 458 50 q 556 67 531 56 q 582 103 582 78 q 569 169 582 129 l 524 321 q 492 322 511 321 q 453 322 474 322 q 413 322 433 322 q 379 322 393 322 q 295 318 339 322 q 228 311 251 314 l 176 167 q 164 113 164 129 q 183 69 164 82 q 247 56 203 56 l 326 56 l 329 50 l 321 -10 q 258 -6 290 -8 q 197 -1 231 -3 q 128 0 163 0 q 76 -1 103 0 q 26 -3 49 -1 q -25 -4 0 -4 l -14 61 q 48 88 25 65 q 94 168 71 110 l 365 878 l 453 901 l 464 901 q 535 646 499 775 q 568 529 550 590 q 606 405 586 468 q 645 278 625 342 q 685 157 665 215 m 253 379 l 375 379 q 442 381 403 379 q 504 386 481 383 l 394 750 l 385 750 l 253 379 m 214 971 l 183 1000 l 183 1007 l 289 1117 l 311 1122 q 356 1115 328 1122 q 415 1099 385 1108 q 472 1083 446 1090 q 514 1076 499 1076 q 540 1086 525 1076 q 569 1107 556 1096 q 601 1139 585 1121 l 610 1139 l 640 1110 l 640 1103 l 535 993 l 513 988 q 467 994 496 988 q 408 1010 439 1001 q 351 1026 378 1019 q 310 1033 324 1033 q 282 1023 297 1033 q 253 1001 267 1013 q 222 971 238 988 l 214 971 z "},"B":{"ha":829,"x_min":81,"x_max":753,"o":"m 239 0 q 185 -3 213 0 q 133 -8 157 -6 q 81 -17 107 -12 l 89 47 q 142 62 121 53 q 175 84 163 71 q 192 117 188 97 q 197 167 197 138 l 199 750 q 189 810 199 794 q 147 825 179 825 q 132 824 140 825 q 117 824 124 824 q 100 822 108 822 l 97 828 l 107 889 q 164 886 136 888 q 215 885 188 885 q 261 885 242 885 q 308 885 281 885 q 363 888 336 886 q 425 890 393 889 q 628 836 558 890 q 699 679 699 782 q 657 554 699 610 q 538 465 615 499 q 696 388 639 443 q 753 254 753 332 q 726 151 753 200 q 655 66 700 103 q 551 8 610 29 q 426 -14 492 -14 q 336 -7 381 -14 q 239 0 292 0 m 301 414 l 296 154 q 331 79 296 101 q 454 57 367 57 q 585 103 538 57 q 633 229 633 150 q 586 352 633 304 q 446 417 539 400 l 301 414 m 304 488 q 372 482 342 485 q 423 478 399 479 q 456 476 447 476 q 521 510 492 486 q 565 564 544 529 q 586 656 586 599 q 527 788 586 746 q 342 831 468 831 q 322 824 326 831 q 317 799 318 818 q 310 653 313 731 q 304 488 307 575 z "},"C":{"ha":874,"x_min":56,"x_max":801,"o":"m 471 -17 q 299 13 376 -17 q 168 99 222 43 q 85 235 114 156 q 56 413 56 314 q 92 608 56 518 q 192 763 128 697 q 346 865 257 828 q 540 901 435 901 q 626 897 583 901 q 704 885 669 892 q 782 868 744 878 l 788 860 q 774 792 779 828 q 761 718 767 760 q 753 628 756 676 l 686 622 q 688 644 686 632 q 690 667 689 654 q 690 690 690 679 q 486 819 690 819 q 360 794 417 819 q 263 722 303 768 q 202 608 224 675 q 181 458 181 542 q 203 292 181 367 q 268 164 226 217 q 368 82 310 111 q 499 53 426 53 q 651 106 594 53 q 735 272 708 160 l 801 278 q 786 201 793 240 q 773 128 779 168 q 764 51 767 89 l 756 39 q 675 11 719 24 q 585 -8 638 0 q 471 -17 533 -17 z "},"Ć":{"ha":874,"x_min":56,"x_max":801,"o":"m 471 -17 q 299 13 376 -17 q 168 99 222 43 q 85 235 114 156 q 56 413 56 314 q 92 608 56 518 q 192 763 128 697 q 346 865 257 828 q 540 901 435 901 q 626 897 583 901 q 704 885 669 892 q 782 868 744 878 l 788 860 q 774 792 779 828 q 761 718 767 760 q 753 628 756 676 l 686 622 q 688 644 686 632 q 690 667 689 654 q 690 690 690 679 q 486 819 690 819 q 360 794 417 819 q 263 722 303 768 q 202 608 224 675 q 181 458 181 542 q 203 292 181 367 q 268 164 226 217 q 368 82 310 111 q 499 53 426 53 q 651 106 594 53 q 735 272 708 160 l 801 278 q 786 201 793 240 q 773 128 779 168 q 764 51 767 89 l 756 39 q 675 11 719 24 q 585 -8 638 0 q 471 -17 533 -17 m 715 1079 q 626 1049 672 1064 q 535 1015 586 1033 q 429 976 483 997 l 418 983 l 410 1017 q 508 1069 458 1042 q 597 1118 557 1096 q 686 1168 643 1143 l 699 1160 l 721 1093 l 715 1079 z "},"Č":{"ha":874,"x_min":56,"x_max":801,"o":"m 471 -17 q 299 13 376 -17 q 168 99 222 43 q 85 235 114 156 q 56 413 56 314 q 92 608 56 518 q 192 763 128 697 q 346 865 257 828 q 540 901 435 901 q 626 897 583 901 q 704 885 669 892 q 782 868 744 878 l 788 860 q 774 792 779 828 q 761 718 767 760 q 753 628 756 676 l 686 622 q 688 644 686 632 q 690 667 689 654 q 690 690 690 679 q 486 819 690 819 q 360 794 417 819 q 263 722 303 768 q 202 608 224 675 q 181 458 181 542 q 203 292 181 367 q 268 164 226 217 q 368 82 310 111 q 499 53 426 53 q 651 106 594 53 q 735 272 708 160 l 801 278 q 786 201 793 240 q 773 128 779 168 q 764 51 767 89 l 756 39 q 675 11 719 24 q 585 -8 638 0 q 471 -17 533 -17 m 700 1132 q 632 1079 665 1106 q 571 1029 599 1053 q 508 978 539 1003 l 489 978 q 426 1029 458 1003 q 365 1079 399 1053 q 297 1132 331 1106 l 317 1163 l 329 1164 q 424 1112 378 1136 q 499 1074 471 1088 q 573 1111 528 1088 q 668 1164 618 1135 l 681 1163 l 700 1132 z "},"Ç":{"ha":874,"x_min":56,"x_max":801,"o":"m 444 -15 q 283 21 356 -11 q 160 108 211 53 q 83 240 110 163 q 56 413 56 317 q 92 608 56 518 q 192 763 128 697 q 346 865 257 828 q 540 901 435 901 q 626 897 583 901 q 704 885 669 892 q 782 868 744 878 l 788 860 q 774 792 779 828 q 761 718 767 760 q 753 628 756 676 l 686 622 q 688 644 686 632 q 690 667 689 654 q 690 690 690 679 q 486 819 690 819 q 360 794 417 819 q 263 722 303 768 q 202 608 224 675 q 181 458 181 542 q 203 292 181 367 q 268 164 226 217 q 368 82 310 111 q 499 53 426 53 q 651 106 594 53 q 735 272 708 160 l 801 278 q 786 201 793 240 q 773 128 779 168 q 764 51 767 89 l 756 39 q 685 14 724 25 q 605 -4 651 4 q 503 -15 558 -12 l 485 -69 q 522 -95 501 -82 q 561 -124 543 -108 q 591 -156 579 -139 q 603 -193 603 -174 q 588 -244 603 -221 q 548 -285 572 -268 q 494 -313 524 -303 q 436 -324 465 -324 q 404 -320 421 -324 q 374 -310 388 -317 q 351 -295 360 -304 q 342 -274 342 -286 q 353 -236 342 -260 q 376 -196 365 -212 l 389 -196 q 411 -255 390 -235 q 465 -275 432 -275 q 513 -260 493 -275 q 532 -222 532 -246 q 522 -197 532 -210 q 494 -169 511 -183 q 456 -143 476 -156 q 414 -118 435 -131 l 444 -15 z "},"¸":{"ha":553,"x_min":138,"x_max":399,"o":"m 256 32 l 315 32 l 281 -69 q 318 -95 297 -82 q 357 -124 339 -108 q 387 -156 375 -139 q 399 -193 399 -174 q 383 -244 399 -221 q 344 -285 368 -268 q 290 -313 319 -303 q 232 -324 261 -324 q 200 -320 217 -324 q 169 -310 183 -317 q 147 -295 156 -304 q 138 -274 138 -286 q 149 -236 138 -260 q 172 -196 161 -212 l 185 -196 q 207 -255 186 -235 q 261 -275 228 -275 q 308 -260 289 -275 q 328 -222 328 -246 q 317 -197 328 -210 q 290 -169 307 -183 q 251 -143 272 -156 q 210 -118 231 -131 l 256 32 z "},"Ċ":{"ha":874,"x_min":56,"x_max":801,"o":"m 471 -17 q 299 13 376 -17 q 168 99 222 43 q 85 235 114 156 q 56 413 56 314 q 92 608 56 518 q 192 763 128 697 q 346 865 257 828 q 540 901 435 901 q 626 897 583 901 q 704 885 669 892 q 782 868 744 878 l 788 860 q 774 792 779 828 q 761 718 767 760 q 753 628 756 676 l 686 622 q 688 644 686 632 q 690 667 689 654 q 690 690 690 679 q 486 819 690 819 q 360 794 417 819 q 263 722 303 768 q 202 608 224 675 q 181 458 181 542 q 203 292 181 367 q 268 164 226 217 q 368 82 310 111 q 499 53 426 53 q 651 106 594 53 q 735 272 708 160 l 801 278 q 786 201 793 240 q 773 128 779 168 q 764 51 767 89 l 756 39 q 675 11 719 24 q 585 -8 638 0 q 471 -17 533 -17 m 492 999 q 440 1021 457 999 q 424 1069 424 1043 q 447 1127 424 1103 q 506 1151 469 1151 q 556 1130 539 1151 q 574 1081 574 1108 q 551 1023 574 1047 q 492 999 528 999 z "},"D":{"ha":976,"x_min":81,"x_max":921,"o":"m 440 -17 q 367 -8 403 -12 q 301 -3 335 -6 q 240 0 267 0 q 186 -3 214 0 q 135 -8 158 -6 q 81 -17 107 -12 l 89 47 q 142 62 121 53 q 175 84 163 71 q 192 117 188 97 q 197 167 197 138 l 199 750 q 189 810 199 794 q 147 825 179 825 q 132 824 140 825 q 117 824 124 824 q 100 822 108 822 l 97 828 l 107 889 q 160 886 133 888 q 208 885 182 885 q 253 885 233 885 q 313 885 276 885 q 382 888 349 886 q 464 890 421 889 q 649 860 565 890 q 794 776 733 831 q 888 644 854 721 q 921 475 921 568 q 883 281 921 371 q 781 126 846 192 q 629 22 717 60 q 440 -17 542 -17 m 368 822 q 329 817 339 822 q 318 792 319 811 q 310 569 314 671 q 303 390 306 468 q 299 258 300 311 q 297 182 297 206 q 305 119 297 144 q 332 80 313 94 q 385 60 351 65 q 472 54 419 54 q 607 81 547 54 q 708 158 667 108 q 772 280 750 208 q 794 442 794 351 q 685 724 794 626 q 368 822 575 822 z "},"Ď":{"ha":976,"x_min":81,"x_max":921,"o":"m 440 -17 q 367 -8 403 -12 q 301 -3 335 -6 q 240 0 267 0 q 186 -3 214 0 q 135 -8 158 -6 q 81 -17 107 -12 l 89 47 q 142 62 121 53 q 175 84 163 71 q 192 117 188 97 q 197 167 197 138 l 199 750 q 189 810 199 794 q 147 825 179 825 q 132 824 140 825 q 117 824 124 824 q 100 822 108 822 l 97 828 l 107 889 q 160 886 133 888 q 208 885 182 885 q 253 885 233 885 q 313 885 276 885 q 382 888 349 886 q 464 890 421 889 q 649 860 565 890 q 794 776 733 831 q 888 644 854 721 q 921 475 921 568 q 883 281 921 371 q 781 126 846 192 q 629 22 717 60 q 440 -17 542 -17 m 368 822 q 329 817 339 822 q 318 792 319 811 q 310 569 314 671 q 303 390 306 468 q 299 258 300 311 q 297 182 297 206 q 305 119 297 144 q 332 80 313 94 q 385 60 351 65 q 472 54 419 54 q 607 81 547 54 q 708 158 667 108 q 772 280 750 208 q 794 442 794 351 q 685 724 794 626 q 368 822 575 822 m 661 1132 q 593 1079 626 1106 q 532 1029 560 1053 q 469 978 500 1003 l 450 978 q 388 1029 419 1003 q 326 1079 360 1053 q 258 1132 292 1106 l 278 1163 l 290 1164 q 385 1112 339 1136 q 460 1074 432 1088 q 534 1111 489 1088 q 629 1164 579 1135 l 642 1163 l 661 1132 z "},"E":{"ha":821,"x_min":81,"x_max":739,"o":"m 296 146 q 299 101 296 118 q 313 76 301 85 q 347 65 325 68 q 406 63 368 63 q 537 67 488 63 q 614 90 586 72 q 653 141 642 107 q 674 232 665 175 l 735 239 l 739 232 q 725 160 732 197 q 712 85 718 128 q 701 -1 706 43 l 694 -10 q 533 -6 611 -8 q 465 -3 500 -4 q 394 -2 429 -3 q 329 -1 360 -1 q 274 0 299 0 q 199 -2 233 0 q 138 -7 164 -4 q 81 -14 107 -11 l 89 50 q 174 83 151 58 q 197 167 197 107 l 199 750 q 189 810 199 794 q 147 825 179 825 q 132 824 140 825 q 117 824 124 824 q 100 822 108 822 l 97 828 l 107 889 q 172 886 139 888 q 234 885 200 885 q 300 885 268 885 q 446 885 383 885 q 557 888 508 886 q 644 894 606 890 q 717 901 682 897 l 721 893 q 708 825 714 861 q 697 752 703 793 q 689 663 692 711 l 622 657 q 624 679 622 668 q 624 699 624 689 q 625 717 625 710 q 619 770 625 750 q 592 800 614 790 q 528 813 571 810 q 413 815 486 815 q 360 814 379 815 q 331 808 340 813 q 318 792 321 803 q 315 761 315 781 l 304 492 q 372 491 328 492 q 447 490 415 490 q 494 492 467 490 q 550 497 522 494 q 617 506 582 501 l 622 499 l 603 417 q 533 418 568 417 q 470 420 504 419 q 408 421 436 421 q 348 417 376 421 q 301 411 319 414 q 299 313 300 354 q 297 240 297 271 q 296 185 296 208 q 296 146 296 163 z "},"É":{"ha":821,"x_min":81,"x_max":739,"o":"m 296 146 q 299 101 296 118 q 313 76 301 85 q 347 65 325 68 q 406 63 368 63 q 537 67 488 63 q 614 90 586 72 q 653 141 642 107 q 674 232 665 175 l 735 239 l 739 232 q 725 160 732 197 q 712 85 718 128 q 701 -1 706 43 l 694 -10 q 533 -6 611 -8 q 465 -3 500 -4 q 394 -2 429 -3 q 329 -1 360 -1 q 274 0 299 0 q 199 -2 233 0 q 138 -7 164 -4 q 81 -14 107 -11 l 89 50 q 174 83 151 58 q 197 167 197 107 l 199 750 q 189 810 199 794 q 147 825 179 825 q 132 824 140 825 q 117 824 124 824 q 100 822 108 822 l 97 828 l 107 889 q 172 886 139 888 q 234 885 200 885 q 300 885 268 885 q 446 885 383 885 q 557 888 508 886 q 644 894 606 890 q 717 901 682 897 l 721 893 q 708 825 714 861 q 697 752 703 793 q 689 663 692 711 l 622 657 q 624 679 622 668 q 624 699 624 689 q 625 717 625 710 q 619 770 625 750 q 592 800 614 790 q 528 813 571 810 q 413 815 486 815 q 360 814 379 815 q 331 808 340 813 q 318 792 321 803 q 315 761 315 781 l 304 492 q 372 491 328 492 q 447 490 415 490 q 494 492 467 490 q 550 497 522 494 q 617 506 582 501 l 622 499 l 603 417 q 533 418 568 417 q 470 420 504 419 q 408 421 436 421 q 348 417 376 421 q 301 411 319 414 q 299 313 300 354 q 297 240 297 271 q 296 185 296 208 q 296 146 296 163 m 647 1079 q 558 1049 604 1064 q 467 1015 518 1033 q 361 976 415 997 l 350 983 l 342 1017 q 440 1069 390 1042 q 529 1118 489 1096 q 618 1168 575 1143 l 631 1160 l 653 1093 l 647 1079 z "},"Ě":{"ha":821,"x_min":81,"x_max":739,"o":"m 296 146 q 299 101 296 118 q 313 76 301 85 q 347 65 325 68 q 406 63 368 63 q 537 67 488 63 q 614 90 586 72 q 653 141 642 107 q 674 232 665 175 l 735 239 l 739 232 q 725 160 732 197 q 712 85 718 128 q 701 -1 706 43 l 694 -10 q 533 -6 611 -8 q 465 -3 500 -4 q 394 -2 429 -3 q 329 -1 360 -1 q 274 0 299 0 q 199 -2 233 0 q 138 -7 164 -4 q 81 -14 107 -11 l 89 50 q 174 83 151 58 q 197 167 197 107 l 199 750 q 189 810 199 794 q 147 825 179 825 q 132 824 140 825 q 117 824 124 824 q 100 822 108 822 l 97 828 l 107 889 q 172 886 139 888 q 234 885 200 885 q 300 885 268 885 q 446 885 383 885 q 557 888 508 886 q 644 894 606 890 q 717 901 682 897 l 721 893 q 708 825 714 861 q 697 752 703 793 q 689 663 692 711 l 622 657 q 624 679 622 668 q 624 699 624 689 q 625 717 625 710 q 619 770 625 750 q 592 800 614 790 q 528 813 571 810 q 413 815 486 815 q 360 814 379 815 q 331 808 340 813 q 318 792 321 803 q 315 761 315 781 l 304 492 q 372 491 328 492 q 447 490 415 490 q 494 492 467 490 q 550 497 522 494 q 617 506 582 501 l 622 499 l 603 417 q 533 418 568 417 q 470 420 504 419 q 408 421 436 421 q 348 417 376 421 q 301 411 319 414 q 299 313 300 354 q 297 240 297 271 q 296 185 296 208 q 296 146 296 163 m 632 1132 q 564 1079 597 1106 q 503 1029 531 1053 q 440 978 471 1003 l 421 978 q 358 1029 390 1003 q 297 1079 331 1053 q 229 1132 263 1106 l 249 1163 l 261 1164 q 356 1112 310 1136 q 431 1074 403 1088 q 505 1111 460 1088 q 600 1164 550 1135 l 613 1163 l 632 1132 z "},"Ê":{"ha":821,"x_min":81,"x_max":739,"o":"m 296 146 q 299 101 296 118 q 313 76 301 85 q 347 65 325 68 q 406 63 368 63 q 537 67 488 63 q 614 90 586 72 q 653 141 642 107 q 674 232 665 175 l 735 239 l 739 232 q 725 160 732 197 q 712 85 718 128 q 701 -1 706 43 l 694 -10 q 533 -6 611 -8 q 465 -3 500 -4 q 394 -2 429 -3 q 329 -1 360 -1 q 274 0 299 0 q 199 -2 233 0 q 138 -7 164 -4 q 81 -14 107 -11 l 89 50 q 174 83 151 58 q 197 167 197 107 l 199 750 q 189 810 199 794 q 147 825 179 825 q 132 824 140 825 q 117 824 124 824 q 100 822 108 822 l 97 828 l 107 889 q 172 886 139 888 q 234 885 200 885 q 300 885 268 885 q 446 885 383 885 q 557 888 508 886 q 644 894 606 890 q 717 901 682 897 l 721 893 q 708 825 714 861 q 697 752 703 793 q 689 663 692 711 l 622 657 q 624 679 622 668 q 624 699 624 689 q 625 717 625 710 q 619 770 625 750 q 592 800 614 790 q 528 813 571 810 q 413 815 486 815 q 360 814 379 815 q 331 808 340 813 q 318 792 321 803 q 315 761 315 781 l 304 492 q 372 491 328 492 q 447 490 415 490 q 494 492 467 490 q 550 497 522 494 q 617 506 582 501 l 622 499 l 603 417 q 533 418 568 417 q 470 420 504 419 q 408 421 436 421 q 348 417 376 421 q 301 411 319 414 q 299 313 300 354 q 297 240 297 271 q 296 185 296 208 q 296 146 296 163 m 229 1021 q 297 1073 263 1046 q 358 1124 331 1100 q 421 1175 390 1150 l 440 1175 q 503 1124 471 1150 q 564 1073 531 1100 q 632 1021 597 1046 l 613 990 l 600 989 q 505 1041 551 1017 q 431 1079 458 1065 q 356 1042 401 1065 q 261 989 311 1018 l 249 990 l 229 1021 z "},"Ë":{"ha":821,"x_min":81,"x_max":739,"o":"m 296 146 q 299 101 296 118 q 313 76 301 85 q 347 65 325 68 q 406 63 368 63 q 537 67 488 63 q 614 90 586 72 q 653 141 642 107 q 674 232 665 175 l 735 239 l 739 232 q 725 160 732 197 q 712 85 718 128 q 701 -1 706 43 l 694 -10 q 533 -6 611 -8 q 465 -3 500 -4 q 394 -2 429 -3 q 329 -1 360 -1 q 274 0 299 0 q 199 -2 233 0 q 138 -7 164 -4 q 81 -14 107 -11 l 89 50 q 174 83 151 58 q 197 167 197 107 l 199 750 q 189 810 199 794 q 147 825 179 825 q 132 824 140 825 q 117 824 124 824 q 100 822 108 822 l 97 828 l 107 889 q 172 886 139 888 q 234 885 200 885 q 300 885 268 885 q 446 885 383 885 q 557 888 508 886 q 644 894 606 890 q 717 901 682 897 l 721 893 q 708 825 714 861 q 697 752 703 793 q 689 663 692 711 l 622 657 q 624 679 622 668 q 624 699 624 689 q 625 717 625 710 q 619 770 625 750 q 592 800 614 790 q 528 813 571 810 q 413 815 486 815 q 360 814 379 815 q 331 808 340 813 q 318 792 321 803 q 315 761 315 781 l 304 492 q 372 491 328 492 q 447 490 415 490 q 494 492 467 490 q 550 497 522 494 q 617 506 582 501 l 622 499 l 603 417 q 533 418 568 417 q 470 420 504 419 q 408 421 436 421 q 348 417 376 421 q 301 411 319 414 q 299 313 300 354 q 297 240 297 271 q 296 185 296 208 q 296 146 296 163 m 538 1007 q 495 1026 510 1007 q 481 1067 481 1044 q 500 1115 481 1094 q 550 1136 519 1136 q 592 1118 578 1136 q 607 1076 607 1100 q 588 1028 607 1049 q 538 1007 568 1007 m 307 1007 q 265 1026 279 1007 q 250 1067 250 1044 q 269 1115 250 1094 q 319 1136 289 1136 q 362 1118 347 1136 q 376 1076 376 1100 q 357 1028 376 1049 q 307 1007 338 1007 z "},"Ė":{"ha":821,"x_min":81,"x_max":739,"o":"m 296 146 q 299 101 296 118 q 313 76 301 85 q 347 65 325 68 q 406 63 368 63 q 537 67 488 63 q 614 90 586 72 q 653 141 642 107 q 674 232 665 175 l 735 239 l 739 232 q 725 160 732 197 q 712 85 718 128 q 701 -1 706 43 l 694 -10 q 533 -6 611 -8 q 465 -3 500 -4 q 394 -2 429 -3 q 329 -1 360 -1 q 274 0 299 0 q 199 -2 233 0 q 138 -7 164 -4 q 81 -14 107 -11 l 89 50 q 174 83 151 58 q 197 167 197 107 l 199 750 q 189 810 199 794 q 147 825 179 825 q 132 824 140 825 q 117 824 124 824 q 100 822 108 822 l 97 828 l 107 889 q 172 886 139 888 q 234 885 200 885 q 300 885 268 885 q 446 885 383 885 q 557 888 508 886 q 644 894 606 890 q 717 901 682 897 l 721 893 q 708 825 714 861 q 697 752 703 793 q 689 663 692 711 l 622 657 q 624 679 622 668 q 624 699 624 689 q 625 717 625 710 q 619 770 625 750 q 592 800 614 790 q 528 813 571 810 q 413 815 486 815 q 360 814 379 815 q 331 808 340 813 q 318 792 321 803 q 315 761 315 781 l 304 492 q 372 491 328 492 q 447 490 415 490 q 494 492 467 490 q 550 497 522 494 q 617 506 582 501 l 622 499 l 603 417 q 533 418 568 417 q 470 420 504 419 q 408 421 436 421 q 348 417 376 421 q 301 411 319 414 q 299 313 300 354 q 297 240 297 271 q 296 185 296 208 q 296 146 296 163 m 424 999 q 372 1021 389 999 q 356 1069 356 1043 q 378 1127 356 1103 q 438 1151 401 1151 q 488 1130 471 1151 q 506 1081 506 1108 q 483 1023 506 1047 q 424 999 460 999 z "},"È":{"ha":821,"x_min":81,"x_max":739,"o":"m 296 146 q 299 101 296 118 q 313 76 301 85 q 347 65 325 68 q 406 63 368 63 q 537 67 488 63 q 614 90 586 72 q 653 141 642 107 q 674 232 665 175 l 735 239 l 739 232 q 725 160 732 197 q 712 85 718 128 q 701 -1 706 43 l 694 -10 q 533 -6 611 -8 q 465 -3 500 -4 q 394 -2 429 -3 q 329 -1 360 -1 q 274 0 299 0 q 199 -2 233 0 q 138 -7 164 -4 q 81 -14 107 -11 l 89 50 q 174 83 151 58 q 197 167 197 107 l 199 750 q 189 810 199 794 q 147 825 179 825 q 132 824 140 825 q 117 824 124 824 q 100 822 108 822 l 97 828 l 107 889 q 172 886 139 888 q 234 885 200 885 q 300 885 268 885 q 446 885 383 885 q 557 888 508 886 q 644 894 606 890 q 717 901 682 897 l 721 893 q 708 825 714 861 q 697 752 703 793 q 689 663 692 711 l 622 657 q 624 679 622 668 q 624 699 624 689 q 625 717 625 710 q 619 770 625 750 q 592 800 614 790 q 528 813 571 810 q 413 815 486 815 q 360 814 379 815 q 331 808 340 813 q 318 792 321 803 q 315 761 315 781 l 304 492 q 372 491 328 492 q 447 490 415 490 q 494 492 467 490 q 550 497 522 494 q 617 506 582 501 l 622 499 l 603 417 q 533 418 568 417 q 470 420 504 419 q 408 421 436 421 q 348 417 376 421 q 301 411 319 414 q 299 313 300 354 q 297 240 297 271 q 296 185 296 208 q 296 146 296 163 m 218 1093 l 240 1160 l 253 1168 q 342 1118 296 1143 q 431 1069 382 1096 q 529 1017 481 1042 l 521 983 l 510 976 q 403 1015 454 997 q 313 1049 353 1033 q 224 1079 267 1064 l 218 1093 z "},"Ē":{"ha":821,"x_min":81,"x_max":739,"o":"m 296 146 q 299 101 296 118 q 313 76 301 85 q 347 65 325 68 q 406 63 368 63 q 537 67 488 63 q 614 90 586 72 q 653 141 642 107 q 674 232 665 175 l 735 239 l 739 232 q 725 160 732 197 q 712 85 718 128 q 701 -1 706 43 l 694 -10 q 533 -6 611 -8 q 465 -3 500 -4 q 394 -2 429 -3 q 329 -1 360 -1 q 274 0 299 0 q 199 -2 233 0 q 138 -7 164 -4 q 81 -14 107 -11 l 89 50 q 174 83 151 58 q 197 167 197 107 l 199 750 q 189 810 199 794 q 147 825 179 825 q 132 824 140 825 q 117 824 124 824 q 100 822 108 822 l 97 828 l 107 889 q 172 886 139 888 q 234 885 200 885 q 300 885 268 885 q 446 885 383 885 q 557 888 508 886 q 644 894 606 890 q 717 901 682 897 l 721 893 q 708 825 714 861 q 697 752 703 793 q 689 663 692 711 l 622 657 q 624 679 622 668 q 624 699 624 689 q 625 717 625 710 q 619 770 625 750 q 592 800 614 790 q 528 813 571 810 q 413 815 486 815 q 360 814 379 815 q 331 808 340 813 q 318 792 321 803 q 315 761 315 781 l 304 492 q 372 491 328 492 q 447 490 415 490 q 494 492 467 490 q 550 497 522 494 q 617 506 582 501 l 622 499 l 603 417 q 533 418 568 417 q 470 420 504 419 q 408 421 436 421 q 348 417 376 421 q 301 411 319 414 q 299 313 300 354 q 297 240 297 271 q 296 185 296 208 q 296 146 296 163 m 639 1067 l 629 1001 l 432 1000 q 366 999 400 1000 q 301 999 332 999 l 232 999 l 224 1011 l 238 1074 q 314 1072 276 1072 l 451 1072 q 508 1073 478 1072 q 567 1076 539 1074 q 631 1081 599 1078 l 639 1067 z "},"Ŋ":{"ha":999,"x_min":75,"x_max":953,"o":"m 199 885 q 222 885 206 885 q 256 888 239 886 q 299 890 275 889 q 374 772 335 832 q 454 653 414 713 q 533 537 494 593 q 606 431 571 481 q 765 201 686 314 l 772 201 l 772 764 q 726 824 772 824 q 707 823 717 824 q 690 822 697 822 l 674 822 l 671 828 l 683 890 q 732 888 707 889 q 775 885 753 886 q 815 885 797 885 q 861 886 838 885 q 906 890 885 888 q 953 896 929 893 l 946 832 q 874 805 896 825 q 851 744 853 785 l 839 119 q 823 0 836 53 q 783 -93 810 -53 q 713 -162 756 -133 q 613 -214 671 -192 l 589 -168 l 593 -157 q 697 -87 661 -126 q 749 11 733 -47 q 567 285 653 158 q 417 507 482 411 q 275 710 340 618 l 268 710 l 261 117 q 271 73 261 85 q 304 61 281 61 q 322 61 310 61 q 344 63 333 61 q 374 64 358 63 l 378 58 l 365 -6 q 313 -3 339 -4 q 261 -1 289 -1 q 210 0 233 0 q 167 -1 189 0 q 128 -6 146 -3 q 89 -11 107 -8 l 96 53 q 162 81 143 57 q 183 172 181 106 l 200 747 q 176 805 200 788 q 79 833 151 822 l 75 840 l 86 892 q 132 888 110 889 q 169 885 151 886 q 199 885 188 885 z "},"Ę":{"ha":821,"x_min":81,"x_max":739,"o":"m 733 -247 q 690 -282 714 -265 q 646 -312 671 -297 q 594 -335 621 -326 q 483 -301 526 -335 q 440 -204 440 -267 q 476 -108 440 -157 q 565 -6 513 -60 q 490 -3 529 -4 q 411 -2 450 -3 q 337 -1 372 -1 q 274 0 301 0 q 199 -2 233 0 q 138 -7 164 -4 q 81 -14 107 -11 l 89 50 q 174 83 151 58 q 197 167 197 107 l 199 750 q 189 810 199 794 q 147 825 179 825 q 132 824 140 825 q 117 824 124 824 q 100 822 108 822 l 97 828 l 107 889 q 172 886 139 888 q 234 885 200 885 q 300 885 268 885 q 446 885 383 885 q 557 888 508 886 q 644 894 606 890 q 717 901 682 897 l 721 893 q 708 825 714 861 q 697 752 703 793 q 689 663 692 711 l 622 657 q 624 679 622 668 q 624 699 624 689 q 625 717 625 710 q 619 770 625 750 q 592 800 614 790 q 528 813 571 810 q 413 815 486 815 q 360 814 379 815 q 331 808 340 813 q 318 792 321 803 q 315 761 315 781 l 304 492 q 372 491 328 492 q 447 490 415 490 q 494 492 467 490 q 550 497 522 494 q 617 506 582 501 l 622 499 l 603 417 q 533 418 568 417 q 470 420 504 419 q 408 421 436 421 q 348 417 376 421 q 301 411 319 414 q 299 313 300 354 q 297 240 297 271 q 296 185 296 208 q 296 146 296 163 q 299 101 296 118 q 313 76 301 85 q 347 65 325 68 q 406 63 368 63 q 537 67 488 63 q 614 90 586 72 q 653 141 642 107 q 674 232 665 175 l 735 239 l 739 232 q 725 160 732 197 q 712 85 718 128 q 701 -1 706 43 l 694 -10 q 675 -8 686 -8 q 653 -8 665 -8 q 625 -7 640 -8 q 551 -100 574 -62 q 528 -178 528 -137 q 550 -231 528 -210 q 608 -253 572 -253 q 647 -249 628 -253 q 682 -237 667 -244 q 715 -221 699 -231 l 733 -247 z "},"Ð":{"ha":990,"x_min":13,"x_max":931,"o":"m 450 -17 q 376 -8 413 -12 q 310 -3 344 -6 q 250 0 276 0 q 196 -3 224 0 q 144 -8 168 -6 q 90 -17 117 -12 l 99 47 q 156 63 135 54 q 189 90 178 72 q 203 138 200 107 q 207 218 207 168 l 207 422 l 22 422 l 13 432 l 22 476 l 207 476 l 208 750 q 199 810 208 794 q 157 825 189 825 q 142 824 150 825 q 126 824 133 824 q 110 822 118 822 l 107 828 l 117 889 q 169 886 143 888 q 217 885 192 885 q 263 885 243 885 q 322 885 286 885 q 392 888 358 886 q 474 890 431 889 q 658 859 574 890 q 802 773 742 828 q 897 642 863 718 q 931 475 931 565 q 893 281 931 371 q 791 126 856 192 q 639 22 726 60 q 450 -17 551 -17 m 315 476 l 551 476 l 558 467 l 550 422 l 314 422 l 307 182 q 315 119 307 144 q 342 80 322 94 q 396 60 363 65 q 482 54 429 54 q 617 81 557 54 q 718 158 676 108 q 782 280 760 208 q 804 442 804 351 q 694 724 804 626 q 378 822 585 822 q 339 817 349 822 q 328 792 329 811 l 315 476 z "},"F":{"ha":711,"x_min":81,"x_max":694,"o":"m 296 156 q 308 80 296 99 q 357 61 321 61 q 385 61 368 61 q 417 63 401 61 q 456 65 435 64 l 458 60 l 446 -6 q 371 -3 407 -4 q 303 -1 339 -1 q 239 0 267 0 q 185 -3 213 0 q 133 -8 157 -6 q 81 -17 107 -12 l 89 47 q 142 62 121 53 q 175 84 163 71 q 192 117 188 97 q 197 167 197 138 l 199 750 q 189 810 199 794 q 147 825 179 825 q 132 824 140 825 q 117 824 124 824 q 100 822 108 822 l 97 828 l 107 889 q 172 886 139 888 q 234 885 200 885 q 300 885 268 885 q 428 885 371 885 q 533 888 486 886 q 619 894 581 890 q 690 901 657 897 l 694 893 q 682 824 688 861 q 671 749 676 792 q 663 658 665 707 l 596 653 q 597 678 596 665 q 598 699 597 689 q 599 717 599 710 q 593 770 599 750 q 569 800 588 790 q 513 813 550 810 q 413 815 476 815 q 360 814 379 815 q 331 808 340 813 q 318 792 321 803 q 315 761 315 781 l 304 468 l 447 467 q 488 469 463 467 q 536 474 513 471 q 593 482 563 478 l 599 475 l 579 392 q 518 393 549 392 q 462 395 492 394 q 408 396 432 396 q 348 392 376 396 q 301 386 319 389 l 296 156 l 296 156 z "},"G":{"ha":926,"x_min":56,"x_max":822,"o":"m 822 396 q 801 369 810 385 q 788 330 793 354 q 781 269 783 306 q 779 182 779 233 q 782 112 779 146 q 789 60 785 78 l 781 47 q 688 15 739 29 q 585 -7 643 3 q 461 -17 528 -17 q 293 13 368 -17 q 165 99 218 43 q 84 235 113 156 q 56 413 56 314 q 91 611 56 521 q 190 766 126 701 q 344 866 254 831 q 543 901 435 901 q 633 897 586 901 q 721 885 681 892 q 813 868 767 878 l 818 860 q 803 792 810 828 q 790 718 796 760 q 782 628 785 676 l 717 622 q 718 646 717 633 q 720 669 719 657 q 721 697 721 682 q 672 791 721 763 q 511 819 622 819 q 264 725 351 819 q 176 457 176 631 q 199 291 176 365 q 263 163 221 217 q 363 81 304 110 q 493 53 421 53 q 569 60 535 53 q 629 79 604 68 q 683 106 658 90 l 683 275 q 669 336 683 322 q 607 350 654 350 l 511 350 l 508 356 l 521 425 q 578 422 549 424 q 634 420 603 421 q 697 419 665 419 q 741 420 719 419 q 779 422 763 421 q 817 426 799 424 l 822 396 z "},"Ğ":{"ha":926,"x_min":56,"x_max":822,"o":"m 822 396 q 801 369 810 385 q 788 330 793 354 q 781 269 783 306 q 779 182 779 233 q 782 112 779 146 q 789 60 785 78 l 781 47 q 688 15 739 29 q 585 -7 643 3 q 461 -17 528 -17 q 293 13 368 -17 q 165 99 218 43 q 84 235 113 156 q 56 413 56 314 q 91 611 56 521 q 190 766 126 701 q 344 866 254 831 q 543 901 435 901 q 633 897 586 901 q 721 885 681 892 q 813 868 767 878 l 818 860 q 803 792 810 828 q 790 718 796 760 q 782 628 785 676 l 717 622 q 718 646 717 633 q 720 669 719 657 q 721 697 721 682 q 672 791 721 763 q 511 819 622 819 q 264 725 351 819 q 176 457 176 631 q 199 291 176 365 q 263 163 221 217 q 363 81 304 110 q 493 53 421 53 q 569 60 535 53 q 629 79 604 68 q 683 106 658 90 l 683 275 q 669 336 683 322 q 607 350 654 350 l 511 350 l 508 356 l 521 425 q 578 422 549 424 q 634 420 603 421 q 697 419 665 419 q 741 420 719 419 q 779 422 763 421 q 817 426 799 424 l 822 396 m 507 1067 q 587 1084 551 1067 q 640 1136 622 1101 l 651 1136 l 674 1122 q 653 1072 667 1097 q 619 1028 639 1047 q 571 998 599 1010 q 507 986 543 986 q 443 998 471 986 q 395 1028 415 1010 q 361 1072 375 1047 q 340 1122 347 1097 l 363 1136 l 374 1136 q 427 1084 392 1101 q 507 1067 463 1067 z "},"Ģ":{"ha":926,"x_min":56,"x_max":822,"o":"m 822 396 q 801 369 810 385 q 788 330 793 354 q 781 269 783 306 q 779 182 779 233 q 782 112 779 146 q 789 60 785 78 l 781 47 q 688 15 739 29 q 585 -7 643 3 q 461 -17 528 -17 q 293 13 368 -17 q 165 99 218 43 q 84 235 113 156 q 56 413 56 314 q 91 611 56 521 q 190 766 126 701 q 344 866 254 831 q 543 901 435 901 q 633 897 586 901 q 721 885 681 892 q 813 868 767 878 l 818 860 q 803 792 810 828 q 790 718 796 760 q 782 628 785 676 l 717 622 q 718 646 717 633 q 720 669 719 657 q 721 697 721 682 q 672 791 721 763 q 511 819 622 819 q 264 725 351 819 q 176 457 176 631 q 199 291 176 365 q 263 163 221 217 q 363 81 304 110 q 493 53 421 53 q 569 60 535 53 q 629 79 604 68 q 683 106 658 90 l 683 275 q 669 336 683 322 q 607 350 654 350 l 511 350 l 508 356 l 521 425 q 578 422 549 424 q 634 420 603 421 q 697 419 665 419 q 741 420 719 419 q 779 422 763 421 q 817 426 799 424 l 822 396 m 400 -129 q 435 -106 414 -118 q 481 -93 457 -93 q 534 -119 513 -93 q 556 -192 556 -146 q 538 -262 556 -229 q 495 -322 521 -294 q 438 -370 469 -349 q 378 -407 407 -392 l 353 -386 l 353 -372 q 424 -308 394 -346 q 453 -235 453 -271 q 437 -185 453 -207 q 397 -149 421 -162 l 400 -129 z "},"Ġ":{"ha":926,"x_min":56,"x_max":822,"o":"m 822 396 q 801 369 810 385 q 788 330 793 354 q 781 269 783 306 q 779 182 779 233 q 782 112 779 146 q 789 60 785 78 l 781 47 q 688 15 739 29 q 585 -7 643 3 q 461 -17 528 -17 q 293 13 368 -17 q 165 99 218 43 q 84 235 113 156 q 56 413 56 314 q 91 611 56 521 q 190 766 126 701 q 344 866 254 831 q 543 901 435 901 q 633 897 586 901 q 721 885 681 892 q 813 868 767 878 l 818 860 q 803 792 810 828 q 790 718 796 760 q 782 628 785 676 l 717 622 q 718 646 717 633 q 720 669 719 657 q 721 697 721 682 q 672 791 721 763 q 511 819 622 819 q 264 725 351 819 q 176 457 176 631 q 199 291 176 365 q 263 163 221 217 q 363 81 304 110 q 493 53 421 53 q 569 60 535 53 q 629 79 604 68 q 683 106 658 90 l 683 275 q 669 336 683 322 q 607 350 654 350 l 511 350 l 508 356 l 521 425 q 578 422 549 424 q 634 420 603 421 q 697 419 665 419 q 741 420 719 419 q 779 422 763 421 q 817 426 799 424 l 822 396 m 501 999 q 450 1021 467 999 q 433 1069 433 1043 q 456 1127 433 1103 q 515 1151 479 1151 q 566 1130 549 1151 q 583 1081 583 1108 q 560 1023 583 1047 q 501 999 538 999 z "},"H":{"ha":1047,"x_min":81,"x_max":968,"o":"m 861 756 q 853 592 857 679 q 847 423 850 506 q 843 269 844 340 q 842 156 842 199 q 854 80 842 99 q 903 61 867 61 q 924 61 914 61 q 944 63 935 61 q 965 65 956 64 l 968 60 l 956 -4 q 893 -3 924 -4 q 838 -1 867 -1 q 785 0 808 0 q 738 -1 765 0 q 686 -1 711 -1 q 625 -3 657 -3 l 638 60 q 691 66 671 60 q 723 89 711 72 q 739 134 735 106 q 743 208 743 163 l 743 418 l 661 418 q 592 419 628 418 q 532 419 556 419 q 477 417 515 419 q 400 411 439 414 q 301 404 354 407 l 296 156 q 308 80 296 99 q 357 61 321 61 q 378 61 368 61 q 399 63 389 61 q 419 65 410 64 l 422 60 l 410 -4 q 398 -3 410 -4 q 369 -2 386 -3 q 331 -1 351 -1 q 292 0 310 0 q 225 -1 261 0 q 157 -6 189 -3 q 103 -11 125 -8 q 81 -17 82 -14 l 89 47 q 142 62 121 53 q 175 84 163 71 q 192 117 188 97 q 197 167 197 138 l 199 750 q 189 810 199 794 q 147 825 179 825 q 132 824 140 825 q 117 824 124 824 q 100 822 108 822 l 97 828 l 107 889 q 164 886 136 888 q 215 885 188 885 q 261 885 242 885 q 310 886 283 885 q 358 890 336 888 q 410 897 383 893 l 404 835 q 356 824 374 831 q 330 803 339 817 q 317 768 321 790 q 313 710 314 746 l 304 485 l 538 483 q 635 487 589 483 q 743 497 682 490 l 744 750 q 735 810 744 794 q 693 825 725 825 q 678 824 686 825 q 663 824 669 824 q 646 822 654 822 l 643 828 l 653 889 q 668 888 653 889 q 704 887 683 888 q 749 885 725 886 q 789 885 772 885 q 843 886 814 885 q 897 890 872 888 q 956 897 926 893 l 950 835 q 907 826 924 831 q 881 812 890 821 q 867 789 871 803 q 861 756 863 775 z "},"Ħ":{"ha":1042,"x_min":58,"x_max":982,"o":"m 858 756 q 856 724 857 740 q 856 692 856 708 q 899 692 879 692 q 933 693 918 693 q 964 694 950 693 l 982 676 l 976 625 l 853 624 q 847 488 850 557 q 842 357 844 419 q 840 242 840 294 q 839 156 839 190 q 851 80 839 99 q 900 61 864 61 q 922 61 911 61 q 942 63 932 61 q 963 65 953 64 l 965 60 l 953 -4 q 890 -3 921 -4 q 835 -1 864 -1 q 782 0 806 0 q 735 -1 763 0 q 683 -1 708 -1 q 622 -3 654 -3 l 635 60 q 688 66 668 60 q 720 89 708 72 q 736 134 732 106 q 740 208 740 163 l 740 418 l 658 418 q 589 419 625 418 q 529 419 553 419 q 474 417 513 419 q 397 411 436 414 q 299 404 351 407 l 293 156 q 306 80 293 99 q 354 61 318 61 q 376 61 365 61 q 396 63 386 61 q 417 65 407 64 l 419 60 l 407 -4 q 395 -3 407 -4 q 366 -2 383 -3 q 328 -1 349 -1 q 289 0 307 0 q 222 -1 258 0 q 154 -6 186 -3 q 101 -11 122 -8 q 78 -17 79 -14 l 86 47 q 139 62 118 53 q 172 84 160 71 q 190 117 185 97 q 194 167 194 138 l 196 622 l 71 622 l 58 635 l 68 689 q 104 688 83 688 l 196 688 l 196 750 q 186 810 196 794 q 144 825 176 825 q 129 824 138 825 q 114 824 121 824 q 97 822 106 822 l 94 828 l 104 889 q 161 886 133 888 q 212 885 185 885 q 258 885 239 885 q 307 886 281 885 q 356 890 333 888 q 407 897 381 893 l 401 835 q 353 824 371 831 q 327 803 336 817 q 315 768 318 790 q 310 710 311 746 l 308 688 l 550 688 q 644 688 594 688 q 742 689 693 688 l 742 750 q 732 810 742 794 q 690 825 722 825 q 675 824 683 825 q 660 824 667 824 q 643 822 651 822 l 640 828 l 650 889 q 665 888 650 889 q 701 887 681 888 q 746 885 722 886 q 786 885 769 885 q 840 886 811 885 q 894 890 869 888 q 953 897 924 893 l 947 835 q 904 826 921 831 q 878 812 888 821 q 864 789 868 803 q 858 756 860 775 m 306 624 l 301 485 l 535 483 q 633 487 586 483 q 740 497 679 490 l 740 624 l 519 624 l 306 624 z "},"I":{"ha":501,"x_min":78,"x_max":433,"o":"m 315 756 q 308 593 311 681 q 301 423 304 506 q 297 269 299 340 q 296 156 296 199 q 308 80 296 99 q 357 61 321 61 q 382 61 369 61 q 406 63 394 61 q 431 65 418 64 l 433 60 l 421 -4 q 354 -3 388 -4 q 294 -1 326 -1 q 239 0 263 0 q 183 -3 211 0 q 132 -8 156 -6 q 78 -17 104 -12 l 86 47 q 174 84 151 60 q 197 167 197 108 l 199 750 q 189 810 199 794 q 147 825 179 825 q 129 824 139 825 q 110 824 119 824 q 89 822 99 822 l 86 828 l 96 889 q 157 886 126 888 q 211 885 183 885 q 261 885 239 885 q 313 886 285 885 q 365 890 342 888 q 421 897 393 893 l 415 835 q 337 811 357 828 q 315 756 317 794 z "},"Ĳ":{"ha":956,"x_min":78,"x_max":886,"o":"m 315 756 q 308 593 311 681 q 301 423 304 506 q 297 269 299 340 q 296 156 296 199 q 308 80 296 99 q 357 61 321 61 q 382 61 369 61 q 406 63 394 61 q 431 65 418 64 l 433 60 l 421 -4 q 354 -3 388 -4 q 294 -1 326 -1 q 239 0 263 0 q 183 -3 211 0 q 132 -8 156 -6 q 78 -17 104 -12 l 86 47 q 174 84 151 60 q 197 167 197 108 l 199 750 q 189 810 199 794 q 147 825 179 825 q 129 824 139 825 q 110 824 119 824 q 89 822 99 822 l 86 828 l 96 889 q 157 886 126 888 q 211 885 183 885 q 261 885 239 885 q 313 886 285 885 q 365 890 342 888 q 421 897 393 893 l 415 835 q 337 811 357 828 q 315 756 317 794 m 685 750 q 675 809 685 794 q 633 824 665 824 q 616 823 626 824 q 594 821 606 822 q 568 818 582 819 l 565 824 l 575 885 l 725 885 q 775 886 747 885 q 828 890 803 888 q 886 897 857 893 l 881 835 q 817 813 832 828 q 801 756 803 799 q 798 676 800 725 q 794 572 796 628 q 791 455 793 515 q 788 338 789 394 q 785 235 786 282 q 783 161 783 189 q 728 -67 782 19 q 557 -200 675 -153 l 533 -154 l 538 -143 q 608 -91 579 -118 q 653 -29 636 -64 q 676 51 669 6 q 683 160 683 97 l 685 750 z "},"J":{"ha":454,"x_min":32,"x_max":385,"o":"m 183 750 q 174 809 183 794 q 132 824 164 824 q 115 823 125 824 q 93 821 104 822 q 67 818 81 819 l 64 824 l 74 885 l 224 885 q 274 886 246 885 q 326 890 301 888 q 385 897 356 893 l 379 835 q 316 813 331 828 q 300 756 301 799 q 297 676 299 725 q 293 572 294 628 q 290 455 292 515 q 286 338 288 394 q 283 235 285 282 q 282 161 282 189 q 227 -67 281 19 q 56 -200 174 -153 l 32 -154 l 36 -143 q 106 -91 78 -118 q 151 -29 135 -64 q 175 51 168 6 q 182 160 182 97 l 183 750 z "},"Í":{"ha":501,"x_min":78,"x_max":479,"o":"m 315 756 q 308 593 311 681 q 301 423 304 506 q 297 269 299 340 q 296 156 296 199 q 308 80 296 99 q 357 61 321 61 q 382 61 369 61 q 406 63 394 61 q 431 65 418 64 l 433 60 l 421 -4 q 354 -3 388 -4 q 294 -1 326 -1 q 239 0 263 0 q 183 -3 211 0 q 132 -8 156 -6 q 78 -17 104 -12 l 86 47 q 174 84 151 60 q 197 167 197 108 l 199 750 q 189 810 199 794 q 147 825 179 825 q 129 824 139 825 q 110 824 119 824 q 89 822 99 822 l 86 828 l 96 889 q 157 886 126 888 q 211 885 183 885 q 261 885 239 885 q 313 886 285 885 q 365 890 342 888 q 421 897 393 893 l 415 835 q 337 811 357 828 q 315 756 317 794 m 474 1079 q 385 1049 431 1064 q 293 1015 344 1033 q 188 976 242 997 l 176 983 l 168 1017 q 266 1069 217 1042 q 356 1118 315 1096 q 444 1168 401 1143 l 457 1160 l 479 1093 l 474 1079 z "},"Î":{"ha":501,"x_min":56,"x_max":458,"o":"m 317 756 q 309 593 313 681 q 303 423 306 506 q 299 269 300 340 q 297 156 297 199 q 310 80 297 99 q 358 61 322 61 q 383 61 371 61 q 407 63 396 61 q 432 65 419 64 l 435 60 l 422 -4 q 356 -3 389 -4 q 296 -1 328 -1 q 240 0 264 0 q 185 -3 213 0 q 133 -8 157 -6 q 79 -17 106 -12 l 88 47 q 176 84 153 60 q 199 167 199 108 l 200 750 q 190 810 200 794 q 149 825 181 825 q 131 824 140 825 q 111 824 121 824 q 90 822 100 822 l 88 828 l 97 889 q 158 886 128 888 q 213 885 185 885 q 263 885 240 885 q 315 886 286 885 q 367 890 343 888 q 422 897 394 893 l 417 835 q 338 811 358 828 q 317 756 318 794 m 56 1021 q 123 1073 89 1046 q 185 1124 157 1100 q 247 1175 217 1150 l 267 1175 q 329 1124 297 1150 q 390 1073 357 1100 q 458 1021 424 1046 l 439 990 l 426 989 q 331 1041 378 1017 q 257 1079 285 1065 q 183 1042 228 1065 q 88 989 138 1018 l 75 990 l 56 1021 z "},"Ï":{"ha":501,"x_min":78,"x_max":435,"o":"m 315 756 q 308 593 311 681 q 301 423 304 506 q 297 269 299 340 q 296 156 296 199 q 308 80 296 99 q 357 61 321 61 q 382 61 369 61 q 406 63 394 61 q 431 65 418 64 l 433 60 l 421 -4 q 354 -3 388 -4 q 294 -1 326 -1 q 239 0 263 0 q 183 -3 211 0 q 132 -8 156 -6 q 78 -17 104 -12 l 86 47 q 174 84 151 60 q 197 167 197 108 l 199 750 q 189 810 199 794 q 147 825 179 825 q 129 824 139 825 q 110 824 119 824 q 89 822 99 822 l 86 828 l 96 889 q 157 886 126 888 q 211 885 183 885 q 261 885 239 885 q 313 886 285 885 q 365 890 342 888 q 421 897 393 893 l 415 835 q 337 811 357 828 q 315 756 317 794 m 365 1007 q 323 1026 338 1007 q 308 1067 308 1044 q 328 1115 308 1094 q 378 1136 347 1136 q 420 1118 406 1136 q 435 1076 435 1100 q 415 1028 435 1049 q 365 1007 396 1007 m 135 1007 q 92 1026 107 1007 q 78 1067 78 1044 q 97 1115 78 1094 q 147 1136 117 1136 q 190 1118 175 1136 q 204 1076 204 1100 q 185 1028 204 1049 q 135 1007 165 1007 z "},"İ":{"ha":501,"x_min":78,"x_max":433,"o":"m 315 756 q 308 593 311 681 q 301 423 304 506 q 297 269 299 340 q 296 156 296 199 q 308 80 296 99 q 357 61 321 61 q 382 61 369 61 q 406 63 394 61 q 431 65 418 64 l 433 60 l 421 -4 q 354 -3 388 -4 q 294 -1 326 -1 q 239 0 263 0 q 183 -3 211 0 q 132 -8 156 -6 q 78 -17 104 -12 l 86 47 q 174 84 151 60 q 197 167 197 108 l 199 750 q 189 810 199 794 q 147 825 179 825 q 129 824 139 825 q 110 824 119 824 q 89 822 99 822 l 86 828 l 96 889 q 157 886 126 888 q 211 885 183 885 q 261 885 239 885 q 313 886 285 885 q 365 890 342 888 q 421 897 393 893 l 415 835 q 337 811 357 828 q 315 756 317 794 m 249 999 q 197 1021 214 999 q 181 1069 181 1043 q 203 1127 181 1103 q 263 1151 226 1151 q 313 1130 296 1151 q 331 1081 331 1108 q 308 1023 331 1047 q 249 999 285 999 z "},"Ì":{"ha":501,"x_min":44,"x_max":433,"o":"m 315 756 q 308 593 311 681 q 301 423 304 506 q 297 269 299 340 q 296 156 296 199 q 308 80 296 99 q 357 61 321 61 q 382 61 369 61 q 406 63 394 61 q 431 65 418 64 l 433 60 l 421 -4 q 354 -3 388 -4 q 294 -1 326 -1 q 239 0 263 0 q 183 -3 211 0 q 132 -8 156 -6 q 78 -17 104 -12 l 86 47 q 174 84 151 60 q 197 167 197 108 l 199 750 q 189 810 199 794 q 147 825 179 825 q 129 824 139 825 q 110 824 119 824 q 89 822 99 822 l 86 828 l 96 889 q 157 886 126 888 q 211 885 183 885 q 261 885 239 885 q 313 886 285 885 q 365 890 342 888 q 421 897 393 893 l 415 835 q 337 811 357 828 q 315 756 317 794 m 44 1096 l 67 1163 l 79 1171 q 168 1121 122 1146 q 258 1072 208 1099 q 356 1019 307 1044 l 347 986 l 336 979 q 230 1018 281 1000 q 139 1051 179 1036 q 50 1082 93 1067 l 44 1096 z "},"Ī":{"ha":501,"x_min":49,"x_max":464,"o":"m 315 756 q 308 593 311 681 q 301 423 304 506 q 297 269 299 340 q 296 156 296 199 q 308 80 296 99 q 357 61 321 61 q 382 61 369 61 q 406 63 394 61 q 431 65 418 64 l 433 60 l 421 -4 q 354 -3 388 -4 q 294 -1 326 -1 q 239 0 263 0 q 183 -3 211 0 q 132 -8 156 -6 q 78 -17 104 -12 l 86 47 q 174 84 151 60 q 197 167 197 108 l 199 750 q 189 810 199 794 q 147 825 179 825 q 129 824 139 825 q 110 824 119 824 q 89 822 99 822 l 86 828 l 96 889 q 157 886 126 888 q 211 885 183 885 q 261 885 239 885 q 313 886 285 885 q 365 890 342 888 q 421 897 393 893 l 415 835 q 337 811 357 828 q 315 756 317 794 m 464 1067 l 454 1001 l 257 1000 q 191 999 225 1000 q 126 999 157 999 l 57 999 l 49 1011 l 63 1074 q 139 1072 101 1072 l 276 1072 q 333 1073 303 1072 q 392 1076 364 1074 q 456 1081 424 1078 l 464 1067 z "},"Į":{"ha":501,"x_min":78,"x_max":457,"o":"m 457 -247 q 414 -282 438 -265 q 369 -312 394 -297 q 318 -335 344 -326 q 207 -301 250 -335 q 164 -204 164 -267 q 201 -106 164 -156 q 294 0 239 -56 l 239 0 q 183 -3 211 0 q 132 -8 156 -6 q 78 -17 104 -12 l 86 47 q 174 84 151 60 q 197 167 197 108 l 199 750 q 189 810 199 794 q 147 825 179 825 q 129 824 139 825 q 110 824 119 824 q 89 822 99 822 l 86 828 l 96 889 q 157 886 126 888 q 211 885 183 885 q 261 885 239 885 q 313 886 285 885 q 365 890 342 888 q 421 897 393 893 l 415 835 q 337 811 357 828 q 315 756 317 794 q 308 593 311 681 q 301 423 304 506 q 297 269 299 340 q 296 156 296 199 q 308 80 296 99 q 357 61 321 61 q 382 61 369 61 q 406 63 394 61 q 431 65 418 64 l 433 60 l 421 -4 q 401 -3 413 -3 q 380 -3 392 -3 q 354 -1 368 -3 q 276 -97 300 -58 q 251 -178 251 -136 q 274 -231 251 -210 q 332 -253 296 -253 q 371 -249 351 -253 q 406 -237 390 -244 q 439 -221 422 -231 l 457 -247 z "},"K":{"ha":872,"x_min":79,"x_max":858,"o":"m 199 750 q 189 810 199 794 q 147 825 179 825 q 132 824 140 825 q 117 824 124 824 q 100 822 108 822 l 97 828 l 107 889 q 164 886 136 888 q 215 885 188 885 q 261 885 242 885 q 310 886 283 885 q 358 890 336 888 q 410 897 383 893 l 404 835 q 333 809 351 826 q 313 751 314 792 l 296 156 q 307 80 293 99 q 357 61 321 61 q 378 61 368 61 q 399 63 389 61 q 419 65 410 64 l 422 60 l 410 -4 q 347 -3 378 -4 q 292 -1 321 -1 q 239 0 263 0 q 185 -1 213 0 q 133 -1 157 -1 l 79 -1 l 93 61 q 145 70 125 64 q 177 88 165 76 q 193 118 189 99 q 197 167 197 138 l 199 750 m 338 457 l 586 715 q 629 788 629 758 q 542 829 629 824 l 539 835 l 549 894 q 606 889 578 892 q 656 885 629 886 q 701 885 682 885 q 744 885 721 885 q 786 888 767 886 q 829 890 808 889 l 835 881 l 825 824 q 792 813 807 819 q 758 794 776 807 q 718 760 740 781 q 665 707 696 739 l 442 472 l 675 168 q 765 76 725 103 q 853 50 804 50 l 858 44 l 850 -3 q 799 -11 822 -7 q 760 -17 779 -14 q 735 -19 740 -19 q 660 12 700 -19 q 579 100 619 43 l 336 438 l 338 457 z "},"Ķ":{"ha":872,"x_min":79,"x_max":858,"o":"m 199 750 q 189 810 199 794 q 147 825 179 825 q 132 824 140 825 q 117 824 124 824 q 100 822 108 822 l 97 828 l 107 889 q 164 886 136 888 q 215 885 188 885 q 261 885 242 885 q 310 886 283 885 q 358 890 336 888 q 410 897 383 893 l 404 835 q 333 809 351 826 q 313 751 314 792 l 296 156 q 307 80 293 99 q 357 61 321 61 q 378 61 368 61 q 399 63 389 61 q 419 65 410 64 l 422 60 l 410 -4 q 347 -3 378 -4 q 292 -1 321 -1 q 239 0 263 0 q 185 -1 213 0 q 133 -1 157 -1 l 79 -1 l 93 61 q 145 70 125 64 q 177 88 165 76 q 193 118 189 99 q 197 167 197 138 l 199 750 m 338 457 l 586 715 q 629 788 629 758 q 542 829 629 824 l 539 835 l 549 894 q 606 889 578 892 q 656 885 629 886 q 701 885 682 885 q 744 885 721 885 q 786 888 767 886 q 829 890 808 889 l 835 881 l 825 824 q 792 813 807 819 q 758 794 776 807 q 718 760 740 781 q 665 707 696 739 l 442 472 l 675 168 q 765 76 725 103 q 853 50 804 50 l 858 44 l 850 -3 q 799 -11 822 -7 q 760 -17 779 -14 q 735 -19 740 -19 q 660 12 700 -19 q 579 100 619 43 l 336 438 l 338 457 m 385 -129 q 420 -106 399 -118 q 465 -93 442 -93 q 519 -119 497 -93 q 540 -192 540 -146 q 523 -262 540 -229 q 480 -322 506 -294 q 423 -370 454 -349 q 363 -407 392 -392 l 338 -386 l 338 -372 q 408 -308 379 -346 q 438 -235 438 -271 q 422 -185 438 -207 q 382 -149 406 -162 l 385 -129 z "},"L":{"ha":704,"x_min":94,"x_max":701,"o":"m 281 0 q 207 -2 240 0 q 149 -7 174 -4 q 94 -14 119 -11 l 103 50 q 177 83 157 58 q 197 167 197 107 l 199 750 q 189 810 199 794 q 147 825 179 825 q 132 824 140 825 q 117 824 124 824 q 100 822 108 822 l 97 828 l 107 889 q 165 886 138 888 q 216 885 189 885 q 263 885 243 885 q 311 886 285 885 q 360 890 338 888 q 411 897 385 893 l 406 835 q 353 823 371 831 q 327 801 335 815 q 318 763 319 786 q 314 706 317 740 q 306 566 310 640 q 301 419 303 492 q 298 282 299 347 q 297 169 297 217 q 301 113 297 133 q 317 81 304 92 q 353 66 329 69 q 415 63 376 63 q 513 69 475 63 q 575 97 551 76 q 612 157 599 118 q 636 260 625 196 l 697 267 l 701 260 q 688 179 694 222 q 674 95 681 143 q 661 -4 667 47 l 654 -12 q 517 -7 583 -10 q 394 -3 460 -6 q 281 0 329 0 z "},"Ĺ":{"ha":704,"x_min":94,"x_max":701,"o":"m 281 0 q 207 -2 240 0 q 149 -7 174 -4 q 94 -14 119 -11 l 103 50 q 177 83 157 58 q 197 167 197 107 l 199 750 q 189 810 199 794 q 147 825 179 825 q 132 824 140 825 q 117 824 124 824 q 100 822 108 822 l 97 828 l 107 889 q 165 886 138 888 q 216 885 189 885 q 263 885 243 885 q 311 886 285 885 q 360 890 338 888 q 411 897 385 893 l 406 835 q 353 823 371 831 q 327 801 335 815 q 318 763 319 786 q 314 706 317 740 q 306 566 310 640 q 301 419 303 492 q 298 282 299 347 q 297 169 297 217 q 301 113 297 133 q 317 81 304 92 q 353 66 329 69 q 415 63 376 63 q 513 69 475 63 q 575 97 551 76 q 612 157 599 118 q 636 260 625 196 l 697 267 l 701 260 q 688 179 694 222 q 674 95 681 143 q 661 -4 667 47 l 654 -12 q 517 -7 583 -10 q 394 -3 460 -6 q 281 0 329 0 m 481 1079 q 392 1049 438 1064 q 300 1015 351 1033 q 194 976 249 997 l 183 983 l 175 1017 q 273 1069 224 1042 q 363 1118 322 1096 q 451 1168 408 1143 l 464 1160 l 486 1093 l 481 1079 z "},"Ľ":{"ha":704,"x_min":94,"x_max":701,"o":"m 281 0 q 207 -2 240 0 q 149 -7 174 -4 q 94 -14 119 -11 l 103 50 q 177 83 157 58 q 197 167 197 107 l 199 750 q 189 810 199 794 q 147 825 179 825 q 132 824 140 825 q 117 824 124 824 q 100 822 108 822 l 97 828 l 107 889 q 165 886 138 888 q 216 885 189 885 q 263 885 243 885 q 311 886 285 885 q 360 890 338 888 q 411 897 385 893 l 406 835 q 353 823 371 831 q 327 801 335 815 q 318 763 319 786 q 314 706 317 740 q 306 566 310 640 q 301 419 303 492 q 298 282 299 347 q 297 169 297 217 q 301 113 297 133 q 317 81 304 92 q 353 66 329 69 q 415 63 376 63 q 513 69 475 63 q 575 97 551 76 q 612 157 599 118 q 636 260 625 196 l 697 267 l 701 260 q 688 179 694 222 q 674 95 681 143 q 661 -4 667 47 l 654 -12 q 517 -7 583 -10 q 394 -3 460 -6 q 281 0 329 0 m 676 869 q 663 775 669 824 q 647 681 656 733 q 628 575 639 628 l 593 556 l 578 558 q 579 670 581 617 q 575 767 578 724 q 569 861 572 817 l 667 881 l 676 869 z "},"Ļ":{"ha":704,"x_min":94,"x_max":701,"o":"m 281 0 q 207 -2 240 0 q 149 -7 174 -4 q 94 -14 119 -11 l 103 50 q 177 83 157 58 q 197 167 197 107 l 199 750 q 189 810 199 794 q 147 825 179 825 q 132 824 140 825 q 117 824 124 824 q 100 822 108 822 l 97 828 l 107 889 q 165 886 138 888 q 216 885 189 885 q 263 885 243 885 q 311 886 285 885 q 360 890 338 888 q 411 897 385 893 l 406 835 q 353 823 371 831 q 327 801 335 815 q 318 763 319 786 q 314 706 317 740 q 306 566 310 640 q 301 419 303 492 q 298 282 299 347 q 297 169 297 217 q 301 113 297 133 q 317 81 304 92 q 353 66 329 69 q 415 63 376 63 q 513 69 475 63 q 575 97 551 76 q 612 157 599 118 q 636 260 625 196 l 697 267 l 701 260 q 688 179 694 222 q 674 95 681 143 q 661 -4 667 47 l 654 -12 q 517 -7 583 -10 q 394 -3 460 -6 q 281 0 329 0 m 343 -129 q 378 -106 357 -118 q 424 -93 400 -93 q 477 -119 456 -93 q 499 -192 499 -146 q 481 -262 499 -229 q 438 -322 464 -294 q 381 -370 413 -349 q 321 -407 350 -392 l 296 -386 l 296 -372 q 367 -308 338 -346 q 396 -235 396 -271 q 380 -185 396 -207 q 340 -149 364 -162 l 343 -129 z "},"Ŀ":{"ha":740,"x_min":94,"x_max":701,"o":"m 281 0 q 207 -2 240 0 q 149 -7 174 -4 q 94 -14 119 -11 l 103 50 q 177 83 157 58 q 197 167 197 107 l 199 750 q 189 810 199 794 q 147 825 179 825 q 132 824 140 825 q 117 824 124 824 q 100 822 108 822 l 97 828 l 107 889 q 165 886 138 888 q 216 885 189 885 q 263 885 243 885 q 311 886 285 885 q 360 890 338 888 q 411 897 385 893 l 406 835 q 353 823 371 831 q 327 801 335 815 q 318 763 319 786 q 314 706 317 740 q 306 566 310 640 q 301 419 303 492 q 298 282 299 347 q 297 169 297 217 q 301 113 297 133 q 317 81 304 92 q 353 66 329 69 q 415 63 376 63 q 513 69 475 63 q 575 97 551 76 q 612 157 599 118 q 636 260 625 196 l 697 267 l 701 260 q 688 179 694 222 q 674 95 681 143 q 661 -4 667 47 l 654 -12 q 517 -7 583 -10 q 394 -3 460 -6 q 281 0 329 0 m 606 532 q 547 556 565 532 q 528 611 528 581 q 551 672 528 647 q 614 697 574 697 q 673 674 653 697 q 693 618 693 650 q 669 557 693 582 q 606 532 646 532 z "},"·":{"ha":331,"x_min":83,"x_max":249,"o":"m 161 233 q 102 258 121 233 q 83 313 83 282 q 106 374 83 349 q 169 399 129 399 q 228 375 208 399 q 249 319 249 351 q 225 258 249 283 q 161 233 201 233 z "},"Ł":{"ha":765,"x_min":85,"x_max":701,"o":"m 281 0 q 207 -2 240 0 q 149 -7 174 -4 q 94 -14 119 -11 l 103 50 q 177 83 157 58 q 197 167 197 107 l 197 404 l 104 358 l 92 363 l 85 407 l 197 463 l 199 750 q 189 810 199 794 q 147 825 179 825 q 132 824 140 825 q 117 824 124 824 q 100 822 108 822 l 97 828 l 107 889 q 165 886 138 888 q 216 885 189 885 q 263 885 243 885 q 311 886 285 885 q 360 890 338 888 q 411 897 385 893 l 406 835 q 353 823 371 831 q 327 801 335 815 q 318 763 319 786 q 314 706 317 740 q 308 609 311 660 q 303 507 306 558 l 553 631 l 564 624 l 571 581 l 301 447 q 298 294 299 367 q 297 169 297 222 q 301 113 297 133 q 317 81 304 92 q 353 66 329 69 q 415 63 376 63 q 513 69 475 63 q 575 97 551 76 q 612 157 599 118 q 636 260 625 196 l 697 267 l 701 260 q 688 179 694 222 q 674 95 681 143 q 661 -4 667 47 l 654 -12 q 517 -7 583 -10 q 394 -3 460 -6 q 281 0 329 0 z "},"M":{"ha":1176,"x_min":64,"x_max":1108,"o":"m 551 -26 l 282 722 l 275 722 q 251 426 261 558 q 242 315 247 369 q 235 216 238 261 q 230 141 232 171 q 228 104 228 111 q 271 61 228 61 l 304 61 q 328 63 315 61 l 331 57 l 318 -6 q 268 -3 293 -4 q 224 -1 247 -1 q 183 0 200 0 q 141 -1 163 0 q 103 -6 119 -3 q 64 -11 82 -8 l 71 53 q 134 81 115 58 q 160 160 153 103 q 168 236 163 185 q 181 351 174 288 q 194 482 188 414 q 208 608 201 550 q 217 708 214 667 q 221 760 221 749 q 192 814 221 796 q 100 836 164 832 l 96 843 l 107 892 q 165 888 138 889 q 215 885 189 886 q 258 885 242 885 q 290 885 274 885 q 321 888 307 886 q 353 890 336 889 q 442 612 400 738 q 517 394 485 486 q 588 201 554 288 l 594 201 q 665 394 628 288 q 741 611 697 486 q 835 888 785 736 q 845 888 835 888 q 870 887 856 888 q 900 885 885 886 q 926 885 915 885 q 967 885 942 885 q 1017 889 993 886 q 1076 893 1044 890 l 1079 888 l 1072 836 q 987 812 1011 829 q 963 760 963 794 q 964 717 963 750 q 968 638 965 685 q 974 534 971 592 q 982 417 978 476 q 990 300 986 358 q 999 193 994 242 q 1008 127 1003 153 q 1021 87 1014 101 q 1039 67 1028 72 q 1067 61 1050 61 q 1079 61 1074 61 q 1092 63 1085 61 q 1106 64 1097 63 l 1108 58 l 1096 -4 q 1049 -3 1072 -4 q 1006 -1 1029 -1 q 964 0 983 0 q 916 -1 940 0 q 869 -6 892 -3 q 819 -11 844 -8 l 825 53 q 907 122 907 63 q 905 161 907 131 q 899 235 903 192 q 892 333 896 279 q 883 440 888 386 q 860 722 872 568 l 853 722 l 585 -17 l 551 -26 z "},"N":{"ha":999,"x_min":75,"x_max":953,"o":"m 772 201 l 772 764 q 726 824 772 824 q 707 823 717 824 q 690 822 697 822 l 674 822 l 671 828 l 683 890 q 732 888 707 889 q 774 885 751 886 q 815 885 797 885 q 861 886 838 885 q 906 890 885 888 q 953 896 929 893 l 946 832 q 875 805 897 825 q 851 744 853 785 l 832 -36 l 792 -56 q 597 242 689 104 q 432 485 504 381 q 275 710 347 607 l 268 710 l 261 117 q 271 73 261 85 q 304 61 281 61 l 344 61 q 375 63 358 61 l 378 57 l 365 -6 q 314 -3 339 -4 q 266 -1 292 -1 q 218 0 240 0 q 174 -1 197 0 q 132 -6 151 -3 q 89 -11 110 -8 l 96 53 q 160 78 139 58 q 182 140 181 97 l 200 747 q 174 808 200 790 q 79 833 149 826 l 75 840 l 86 892 q 131 888 108 889 q 170 885 150 886 q 206 885 190 885 q 239 885 222 885 q 269 888 256 886 q 299 890 285 889 q 469 631 386 756 q 618 411 551 507 q 765 201 694 299 l 772 201 z "},"Ń":{"ha":999,"x_min":75,"x_max":953,"o":"m 772 201 l 772 764 q 726 824 772 824 q 707 823 717 824 q 690 822 697 822 l 674 822 l 671 828 l 683 890 q 732 888 707 889 q 774 885 751 886 q 815 885 797 885 q 861 886 838 885 q 906 890 885 888 q 953 896 929 893 l 946 832 q 875 805 897 825 q 851 744 853 785 l 832 -36 l 792 -56 q 597 242 689 104 q 432 485 504 381 q 275 710 347 607 l 268 710 l 261 117 q 271 73 261 85 q 304 61 281 61 l 344 61 q 375 63 358 61 l 378 57 l 365 -6 q 314 -3 339 -4 q 266 -1 292 -1 q 218 0 240 0 q 174 -1 197 0 q 132 -6 151 -3 q 89 -11 110 -8 l 96 53 q 160 78 139 58 q 182 140 181 97 l 200 747 q 174 808 200 790 q 79 833 149 826 l 75 840 l 86 892 q 131 888 108 889 q 170 885 150 886 q 206 885 190 885 q 239 885 222 885 q 269 888 256 886 q 299 890 285 889 q 469 631 386 756 q 618 411 551 507 q 765 201 694 299 l 772 201 m 732 1079 q 643 1049 689 1064 q 551 1015 603 1033 q 446 976 500 997 l 435 983 l 426 1017 q 524 1069 475 1042 q 614 1118 574 1096 q 703 1168 660 1143 l 715 1160 l 738 1093 l 732 1079 z "},"Ň":{"ha":999,"x_min":75,"x_max":953,"o":"m 772 201 l 772 764 q 726 824 772 824 q 707 823 717 824 q 690 822 697 822 l 674 822 l 671 828 l 683 890 q 732 888 707 889 q 774 885 751 886 q 815 885 797 885 q 861 886 838 885 q 906 890 885 888 q 953 896 929 893 l 946 832 q 875 805 897 825 q 851 744 853 785 l 832 -36 l 792 -56 q 597 242 689 104 q 432 485 504 381 q 275 710 347 607 l 268 710 l 261 117 q 271 73 261 85 q 304 61 281 61 l 344 61 q 375 63 358 61 l 378 57 l 365 -6 q 314 -3 339 -4 q 266 -1 292 -1 q 218 0 240 0 q 174 -1 197 0 q 132 -6 151 -3 q 89 -11 110 -8 l 96 53 q 160 78 139 58 q 182 140 181 97 l 200 747 q 174 808 200 790 q 79 833 149 826 l 75 840 l 86 892 q 131 888 108 889 q 170 885 150 886 q 206 885 190 885 q 239 885 222 885 q 269 888 256 886 q 299 890 285 889 q 469 631 386 756 q 618 411 551 507 q 765 201 694 299 l 772 201 m 717 1132 q 649 1079 682 1106 q 588 1029 615 1053 q 525 978 556 1003 l 506 978 q 443 1029 475 1003 q 381 1079 415 1053 q 314 1132 347 1106 l 333 1163 l 346 1164 q 441 1112 394 1136 q 515 1074 488 1088 q 590 1111 544 1088 q 685 1164 635 1135 l 697 1163 l 717 1132 z "},"Ņ":{"ha":999,"x_min":75,"x_max":953,"o":"m 772 201 l 772 764 q 726 824 772 824 q 707 823 717 824 q 690 822 697 822 l 674 822 l 671 828 l 683 890 q 732 888 707 889 q 774 885 751 886 q 815 885 797 885 q 861 886 838 885 q 906 890 885 888 q 953 896 929 893 l 946 832 q 875 805 897 825 q 851 744 853 785 l 832 -36 l 792 -56 q 597 242 689 104 q 432 485 504 381 q 275 710 347 607 l 268 710 l 261 117 q 271 73 261 85 q 304 61 281 61 l 344 61 q 375 63 358 61 l 378 57 l 365 -6 q 314 -3 339 -4 q 266 -1 292 -1 q 218 0 240 0 q 174 -1 197 0 q 132 -6 151 -3 q 89 -11 110 -8 l 96 53 q 160 78 139 58 q 182 140 181 97 l 200 747 q 174 808 200 790 q 79 833 149 826 l 75 840 l 86 892 q 131 888 108 889 q 170 885 150 886 q 206 885 190 885 q 239 885 222 885 q 269 888 256 886 q 299 890 285 889 q 469 631 386 756 q 618 411 551 507 q 765 201 694 299 l 772 201 m 435 -129 q 470 -106 449 -118 q 515 -93 492 -93 q 569 -119 547 -93 q 590 -192 590 -146 q 573 -262 590 -229 q 530 -322 556 -294 q 473 -370 504 -349 q 413 -407 442 -392 l 388 -386 l 388 -372 q 458 -308 429 -346 q 488 -235 488 -271 q 472 -185 488 -207 q 432 -149 456 -162 l 435 -129 z "},"Ñ":{"ha":999,"x_min":75,"x_max":953,"o":"m 772 201 l 772 764 q 726 824 772 824 q 707 823 717 824 q 690 822 697 822 l 674 822 l 671 828 l 683 890 q 732 888 707 889 q 774 885 751 886 q 815 885 797 885 q 861 886 838 885 q 906 890 885 888 q 953 896 929 893 l 946 832 q 875 805 897 825 q 851 744 853 785 l 832 -36 l 792 -56 q 597 242 689 104 q 432 485 504 381 q 275 710 347 607 l 268 710 l 261 117 q 271 73 261 85 q 304 61 281 61 l 344 61 q 375 63 358 61 l 378 57 l 365 -6 q 314 -3 339 -4 q 266 -1 292 -1 q 218 0 240 0 q 174 -1 197 0 q 132 -6 151 -3 q 89 -11 110 -8 l 96 53 q 160 78 139 58 q 182 140 181 97 l 200 747 q 174 808 200 790 q 79 833 149 826 l 75 840 l 86 892 q 131 888 108 889 q 170 885 150 886 q 206 885 190 885 q 239 885 222 885 q 269 888 256 886 q 299 890 285 889 q 469 631 386 756 q 618 411 551 507 q 765 201 694 299 l 772 201 m 318 971 l 288 1000 l 288 1007 l 393 1117 l 415 1122 q 460 1115 432 1122 q 519 1099 489 1108 q 576 1083 550 1090 q 618 1076 603 1076 q 644 1086 629 1076 q 674 1107 660 1096 q 706 1139 689 1121 l 714 1139 l 744 1110 l 744 1103 l 639 993 l 617 988 q 572 994 600 988 q 513 1010 543 1001 q 455 1026 482 1019 q 414 1033 428 1033 q 386 1023 401 1033 q 357 1001 371 1013 q 326 971 342 988 l 318 971 z "},"O":{"ha":961,"x_min":56,"x_max":906,"o":"m 483 54 q 605 81 550 54 q 699 155 660 107 q 760 269 739 203 q 782 415 782 335 q 759 578 782 504 q 694 706 736 653 q 594 788 653 758 q 465 818 536 818 q 347 792 400 818 q 256 717 294 765 q 196 603 217 669 q 175 457 175 538 q 198 294 175 368 q 261 167 221 219 q 358 84 301 114 q 483 54 415 54 m 440 -17 q 284 15 354 -17 q 163 103 214 46 q 83 238 111 160 q 56 413 56 317 q 91 605 56 515 q 188 760 126 694 q 333 864 249 826 q 513 901 417 901 q 672 870 600 901 q 797 783 744 839 q 877 647 849 726 q 906 474 906 568 q 869 280 906 369 q 771 124 833 190 q 624 21 708 58 q 440 -17 539 -17 z "},"Œ":{"ha":1338,"x_min":57,"x_max":1253,"o":"m 810 146 q 813 101 810 118 q 827 76 815 85 q 860 65 839 68 q 919 63 882 63 q 1051 67 1001 63 q 1128 90 1100 72 q 1167 141 1156 107 q 1188 232 1179 175 l 1249 239 l 1253 232 q 1239 160 1246 197 q 1226 85 1232 128 q 1215 -1 1219 43 l 1208 -10 q 1046 -4 1124 -7 q 976 -2 1013 -3 q 906 -1 940 -1 q 841 1 872 0 q 785 1 810 1 q 592 -8 676 1 q 432 -17 507 -17 q 280 15 349 -17 q 162 103 211 46 q 85 239 113 160 q 57 413 57 318 q 92 605 57 515 q 187 760 126 694 q 328 864 247 826 q 504 901 410 901 q 649 892 575 901 q 808 882 722 882 q 1056 886 956 882 q 1231 901 1156 890 l 1235 893 q 1222 825 1228 861 q 1211 752 1217 793 q 1203 663 1206 711 l 1136 657 q 1138 679 1136 668 q 1138 699 1138 689 q 1139 717 1139 710 q 1133 770 1139 750 q 1106 800 1128 790 q 1041 813 1083 810 q 925 815 999 815 q 872 814 892 815 q 844 808 853 813 q 832 792 835 803 q 828 761 829 781 l 817 492 l 961 490 q 1008 492 981 490 q 1064 497 1036 494 q 1131 506 1096 501 l 1136 499 l 1117 417 q 1047 418 1082 417 q 984 420 1018 419 q 922 421 950 421 l 814 411 l 810 146 m 475 56 q 589 68 542 56 q 665 108 636 81 q 708 181 694 136 q 722 289 721 225 l 724 649 q 713 733 724 700 q 672 786 701 767 q 594 813 643 806 q 471 821 546 821 q 351 794 406 821 q 258 720 297 768 q 198 606 219 672 q 176 458 176 539 q 198 294 176 368 q 259 167 219 221 q 353 85 299 114 q 475 56 408 56 z "},"Ó":{"ha":961,"x_min":56,"x_max":906,"o":"m 483 54 q 605 81 550 54 q 699 155 660 107 q 760 269 739 203 q 782 415 782 335 q 759 578 782 504 q 694 706 736 653 q 594 788 653 758 q 465 818 536 818 q 347 792 400 818 q 256 717 294 765 q 196 603 217 669 q 175 457 175 538 q 198 294 175 368 q 261 167 221 219 q 358 84 301 114 q 483 54 415 54 m 440 -17 q 284 15 354 -17 q 163 103 214 46 q 83 238 111 160 q 56 413 56 317 q 91 605 56 515 q 188 760 126 694 q 333 864 249 826 q 513 901 417 901 q 672 870 600 901 q 797 783 744 839 q 877 647 849 726 q 906 474 906 568 q 869 280 906 369 q 771 124 833 190 q 624 21 708 58 q 440 -17 539 -17 m 692 1079 q 603 1049 649 1064 q 511 1015 563 1033 q 406 976 460 997 l 394 983 l 386 1017 q 484 1069 435 1042 q 574 1118 533 1096 q 663 1168 619 1143 l 675 1160 l 697 1093 l 692 1079 z "},"Ô":{"ha":961,"x_min":56,"x_max":906,"o":"m 483 54 q 605 81 550 54 q 699 155 660 107 q 760 269 739 203 q 782 415 782 335 q 759 578 782 504 q 694 706 736 653 q 594 788 653 758 q 465 818 536 818 q 347 792 400 818 q 256 717 294 765 q 196 603 217 669 q 175 457 175 538 q 198 294 175 368 q 261 167 221 219 q 358 84 301 114 q 483 54 415 54 m 440 -17 q 284 15 354 -17 q 163 103 214 46 q 83 238 111 160 q 56 413 56 317 q 91 605 56 515 q 188 760 126 694 q 333 864 249 826 q 513 901 417 901 q 672 870 600 901 q 797 783 744 839 q 877 647 849 726 q 906 474 906 568 q 869 280 906 369 q 771 124 833 190 q 624 21 708 58 q 440 -17 539 -17 m 274 1021 q 341 1073 307 1046 q 403 1124 375 1100 q 465 1175 435 1150 l 485 1175 q 547 1124 515 1150 q 608 1073 575 1100 q 676 1021 642 1046 l 657 990 l 644 989 q 549 1041 596 1017 q 475 1079 503 1065 q 401 1042 446 1065 q 306 989 356 1018 l 293 990 l 274 1021 z "},"Ö":{"ha":961,"x_min":56,"x_max":906,"o":"m 483 54 q 605 81 550 54 q 699 155 660 107 q 760 269 739 203 q 782 415 782 335 q 759 578 782 504 q 694 706 736 653 q 594 788 653 758 q 465 818 536 818 q 347 792 400 818 q 256 717 294 765 q 196 603 217 669 q 175 457 175 538 q 198 294 175 368 q 261 167 221 219 q 358 84 301 114 q 483 54 415 54 m 440 -17 q 284 15 354 -17 q 163 103 214 46 q 83 238 111 160 q 56 413 56 317 q 91 605 56 515 q 188 760 126 694 q 333 864 249 826 q 513 901 417 901 q 672 870 600 901 q 797 783 744 839 q 877 647 849 726 q 906 474 906 568 q 869 280 906 369 q 771 124 833 190 q 624 21 708 58 q 440 -17 539 -17 m 583 1007 q 541 1026 556 1007 q 526 1067 526 1044 q 546 1115 526 1094 q 596 1136 565 1136 q 638 1118 624 1136 q 653 1076 653 1100 q 633 1028 653 1049 q 583 1007 614 1007 m 353 1007 q 310 1026 325 1007 q 296 1067 296 1044 q 315 1115 296 1094 q 365 1136 335 1136 q 408 1118 393 1136 q 422 1076 422 1100 q 403 1028 422 1049 q 353 1007 383 1007 z "},"Ò":{"ha":961,"x_min":56,"x_max":906,"o":"m 483 54 q 605 81 550 54 q 699 155 660 107 q 760 269 739 203 q 782 415 782 335 q 759 578 782 504 q 694 706 736 653 q 594 788 653 758 q 465 818 536 818 q 347 792 400 818 q 256 717 294 765 q 196 603 217 669 q 175 457 175 538 q 198 294 175 368 q 261 167 221 219 q 358 84 301 114 q 483 54 415 54 m 440 -17 q 284 15 354 -17 q 163 103 214 46 q 83 238 111 160 q 56 413 56 317 q 91 605 56 515 q 188 760 126 694 q 333 864 249 826 q 513 901 417 901 q 672 870 600 901 q 797 783 744 839 q 877 647 849 726 q 906 474 906 568 q 869 280 906 369 q 771 124 833 190 q 624 21 708 58 q 440 -17 539 -17 m 263 1093 l 285 1160 l 297 1168 q 386 1118 340 1143 q 476 1069 426 1096 q 574 1017 525 1042 l 565 983 l 554 976 q 448 1015 499 997 q 357 1049 397 1033 q 268 1079 311 1064 l 263 1093 z "},"Ő":{"ha":961,"x_min":56,"x_max":906,"o":"m 483 54 q 605 81 550 54 q 699 155 660 107 q 760 269 739 203 q 782 415 782 335 q 759 578 782 504 q 694 706 736 653 q 594 788 653 758 q 465 818 536 818 q 347 792 400 818 q 256 717 294 765 q 196 603 217 669 q 175 457 175 538 q 198 294 175 368 q 261 167 221 219 q 358 84 301 114 q 483 54 415 54 m 440 -17 q 284 15 354 -17 q 163 103 214 46 q 83 238 111 160 q 56 413 56 317 q 91 605 56 515 q 188 760 126 694 q 333 864 249 826 q 513 901 417 901 q 672 870 600 901 q 797 783 744 839 q 877 647 849 726 q 906 474 906 568 q 869 280 906 369 q 771 124 833 190 q 624 21 708 58 q 440 -17 539 -17 m 592 1085 q 521 1049 557 1068 q 449 1010 489 1032 q 364 964 408 988 l 353 971 l 340 1000 q 415 1056 378 1028 q 483 1108 453 1085 q 553 1163 519 1136 l 565 1157 l 596 1097 l 592 1085 m 786 1072 q 715 1036 751 1056 q 643 997 683 1019 q 558 951 603 975 l 549 957 l 535 986 q 610 1043 572 1014 q 678 1096 647 1072 q 747 1150 714 1124 l 760 1143 l 790 1085 l 786 1072 z "},"Ō":{"ha":961,"x_min":56,"x_max":906,"o":"m 483 54 q 605 81 550 54 q 699 155 660 107 q 760 269 739 203 q 782 415 782 335 q 759 578 782 504 q 694 706 736 653 q 594 788 653 758 q 465 818 536 818 q 347 792 400 818 q 256 717 294 765 q 196 603 217 669 q 175 457 175 538 q 198 294 175 368 q 261 167 221 219 q 358 84 301 114 q 483 54 415 54 m 440 -17 q 284 15 354 -17 q 163 103 214 46 q 83 238 111 160 q 56 413 56 317 q 91 605 56 515 q 188 760 126 694 q 333 864 249 826 q 513 901 417 901 q 672 870 600 901 q 797 783 744 839 q 877 647 849 726 q 906 474 906 568 q 869 280 906 369 q 771 124 833 190 q 624 21 708 58 q 440 -17 539 -17 m 682 1067 l 672 1001 l 475 1000 q 409 999 443 1000 q 344 999 375 999 l 275 999 l 267 1011 l 281 1074 q 357 1072 319 1072 l 494 1072 q 551 1073 521 1072 q 610 1076 582 1074 q 674 1081 642 1078 l 682 1067 z "},"Ø":{"ha":961,"x_min":56,"x_max":906,"o":"m 231 43 q 101 192 147 97 q 56 413 56 288 q 91 605 56 515 q 188 760 126 694 q 333 864 249 826 q 513 901 417 901 q 664 872 594 901 l 722 983 l 763 974 l 767 957 l 710 851 q 853 701 801 799 q 906 474 906 604 q 869 280 906 369 q 771 124 833 190 q 624 21 708 58 q 440 -17 539 -17 q 351 -7 393 -17 q 272 19 310 3 l 189 -136 l 151 -128 l 149 -114 l 231 43 m 483 54 q 605 81 550 54 q 699 155 660 107 q 760 269 739 203 q 782 415 782 335 q 748 609 782 524 q 654 747 714 694 l 318 108 q 483 54 392 54 m 175 457 q 203 276 175 357 q 282 142 231 194 l 614 776 q 544 807 582 796 q 465 818 506 818 q 347 792 400 818 q 256 717 294 765 q 196 603 217 669 q 175 457 175 538 z "},"Õ":{"ha":961,"x_min":56,"x_max":906,"o":"m 483 54 q 605 81 550 54 q 699 155 660 107 q 760 269 739 203 q 782 415 782 335 q 759 578 782 504 q 694 706 736 653 q 594 788 653 758 q 465 818 536 818 q 347 792 400 818 q 256 717 294 765 q 196 603 217 669 q 175 457 175 538 q 198 294 175 368 q 261 167 221 219 q 358 84 301 114 q 483 54 415 54 m 440 -17 q 284 15 354 -17 q 163 103 214 46 q 83 238 111 160 q 56 413 56 317 q 91 605 56 515 q 188 760 126 694 q 333 864 249 826 q 513 901 417 901 q 672 870 600 901 q 797 783 744 839 q 877 647 849 726 q 906 474 906 568 q 869 280 906 369 q 771 124 833 190 q 624 21 708 58 q 440 -17 539 -17 m 278 971 l 247 1000 l 247 1007 l 353 1117 l 375 1122 q 420 1115 392 1122 q 479 1099 449 1108 q 536 1083 510 1090 q 578 1076 563 1076 q 604 1086 589 1076 q 633 1107 619 1096 q 665 1139 649 1121 l 674 1139 l 704 1110 l 704 1103 l 599 993 l 576 988 q 531 994 560 988 q 472 1010 503 1001 q 415 1026 442 1019 q 374 1033 388 1033 q 346 1023 361 1033 q 317 1001 331 1013 q 286 971 301 988 l 278 971 z "},"P":{"ha":765,"x_min":88,"x_max":733,"o":"m 107 889 q 164 886 136 888 q 215 885 188 885 q 261 885 242 885 q 304 885 275 885 q 363 888 333 886 q 436 890 397 889 q 657 827 581 890 q 733 643 733 764 q 707 528 733 583 q 636 431 681 474 q 535 364 592 389 q 415 339 478 339 l 299 339 l 296 203 q 298 127 296 156 q 306 84 300 99 q 324 65 313 69 q 357 61 336 61 q 381 61 368 61 q 404 63 393 61 q 432 65 418 64 l 435 60 l 422 -4 q 409 -3 422 -4 q 376 -2 396 -3 q 335 -1 357 -1 q 294 0 313 0 q 231 -1 267 0 q 164 -4 196 -3 q 110 -8 132 -6 q 88 -11 89 -10 l 97 53 q 147 65 128 58 q 178 85 167 72 q 193 117 189 97 q 197 167 197 138 l 199 750 q 188 810 199 794 q 147 825 178 825 q 132 824 140 825 q 117 824 124 824 q 100 822 108 822 l 97 828 l 107 889 m 449 400 q 617 617 617 428 q 554 773 617 724 q 356 822 492 822 q 325 820 331 822 q 318 803 319 818 q 308 610 311 710 q 301 421 304 511 l 449 400 z "},"Q":{"ha":968,"x_min":56,"x_max":1117,"o":"m 440 -17 q 284 15 354 -17 q 163 103 214 46 q 83 238 111 160 q 56 413 56 317 q 91 605 56 515 q 188 760 126 694 q 333 864 249 826 q 513 901 417 901 q 672 870 600 901 q 797 783 744 839 q 877 647 849 726 q 906 474 906 568 q 881 310 906 388 q 810 172 856 233 q 703 65 765 110 q 565 0 640 21 l 565 -7 q 699 -92 639 -57 q 810 -149 760 -126 q 906 -181 861 -171 q 992 -190 950 -190 q 1072 -183 1040 -190 q 1103 -176 1089 -181 l 1108 -181 l 1117 -206 q 1061 -253 1086 -232 q 1017 -285 1039 -271 q 985 -300 996 -300 q 890 -290 935 -300 q 787 -249 846 -279 q 646 -162 728 -218 q 440 -17 564 -107 m 483 54 q 605 81 550 54 q 699 155 660 107 q 760 269 739 203 q 782 415 782 335 q 759 578 782 504 q 694 706 736 653 q 594 788 653 758 q 465 818 536 818 q 347 792 400 818 q 256 717 294 765 q 196 603 217 669 q 175 457 175 538 q 198 294 175 368 q 261 167 221 219 q 358 84 301 114 q 483 54 415 54 z "},"R":{"ha":849,"x_min":79,"x_max":838,"o":"m 300 379 l 296 172 q 299 113 296 135 q 312 78 301 90 q 342 62 322 65 q 396 58 363 58 l 399 53 l 386 -6 q 372 -5 386 -6 q 337 -3 358 -4 q 290 -2 315 -3 q 239 -1 264 -1 q 185 -1 213 -1 q 133 -3 157 -1 q 79 -6 106 -4 l 92 57 q 144 67 124 61 q 177 85 165 74 q 193 117 189 97 q 197 167 197 136 l 199 750 q 188 810 199 794 q 147 825 178 825 q 132 824 140 825 q 117 824 124 824 q 100 822 108 822 l 97 828 l 107 889 q 164 886 136 888 q 215 885 188 885 q 261 885 242 885 q 308 885 279 885 q 364 888 336 886 q 432 890 396 889 q 637 832 563 890 q 711 672 711 774 q 658 519 711 589 q 507 406 604 450 l 660 164 q 699 108 681 131 q 738 72 718 86 q 781 52 758 58 q 832 46 804 46 l 838 40 l 829 -7 l 711 -22 q 637 13 676 -22 q 564 110 597 49 l 415 379 l 300 379 m 446 443 q 521 483 488 457 q 572 546 549 507 q 596 647 596 585 q 342 831 596 831 q 322 824 326 831 q 317 799 318 818 q 311 697 314 743 q 307 609 308 650 q 304 531 306 568 q 303 457 303 493 l 446 443 z "},"Ŕ":{"ha":849,"x_min":79,"x_max":838,"o":"m 300 379 l 296 172 q 299 113 296 135 q 312 78 301 90 q 342 62 322 65 q 396 58 363 58 l 399 53 l 386 -6 q 372 -5 386 -6 q 337 -3 358 -4 q 290 -2 315 -3 q 239 -1 264 -1 q 185 -1 213 -1 q 133 -3 157 -1 q 79 -6 106 -4 l 92 57 q 144 67 124 61 q 177 85 165 74 q 193 117 189 97 q 197 167 197 136 l 199 750 q 188 810 199 794 q 147 825 178 825 q 132 824 140 825 q 117 824 124 824 q 100 822 108 822 l 97 828 l 107 889 q 164 886 136 888 q 215 885 188 885 q 261 885 242 885 q 308 885 279 885 q 364 888 336 886 q 432 890 396 889 q 637 832 563 890 q 711 672 711 774 q 658 519 711 589 q 507 406 604 450 l 660 164 q 699 108 681 131 q 738 72 718 86 q 781 52 758 58 q 832 46 804 46 l 838 40 l 829 -7 l 711 -22 q 637 13 676 -22 q 564 110 597 49 l 415 379 l 300 379 m 446 443 q 521 483 488 457 q 572 546 549 507 q 596 647 596 585 q 342 831 596 831 q 322 824 326 831 q 317 799 318 818 q 311 697 314 743 q 307 609 308 650 q 304 531 306 568 q 303 457 303 493 l 446 443 m 640 1079 q 551 1049 597 1064 q 460 1015 511 1033 q 354 976 408 997 l 343 983 l 335 1017 q 433 1069 383 1042 q 522 1118 482 1096 q 611 1168 568 1143 l 624 1160 l 646 1093 l 640 1079 z "},"Ř":{"ha":849,"x_min":79,"x_max":838,"o":"m 300 379 l 296 172 q 299 113 296 135 q 312 78 301 90 q 342 62 322 65 q 396 58 363 58 l 399 53 l 386 -6 q 372 -5 386 -6 q 337 -3 358 -4 q 290 -2 315 -3 q 239 -1 264 -1 q 185 -1 213 -1 q 133 -3 157 -1 q 79 -6 106 -4 l 92 57 q 144 67 124 61 q 177 85 165 74 q 193 117 189 97 q 197 167 197 136 l 199 750 q 188 810 199 794 q 147 825 178 825 q 132 824 140 825 q 117 824 124 824 q 100 822 108 822 l 97 828 l 107 889 q 164 886 136 888 q 215 885 188 885 q 261 885 242 885 q 308 885 279 885 q 364 888 336 886 q 432 890 396 889 q 637 832 563 890 q 711 672 711 774 q 658 519 711 589 q 507 406 604 450 l 660 164 q 699 108 681 131 q 738 72 718 86 q 781 52 758 58 q 832 46 804 46 l 838 40 l 829 -7 l 711 -22 q 637 13 676 -22 q 564 110 597 49 l 415 379 l 300 379 m 446 443 q 521 483 488 457 q 572 546 549 507 q 596 647 596 585 q 342 831 596 831 q 322 824 326 831 q 317 799 318 818 q 311 697 314 743 q 307 609 308 650 q 304 531 306 568 q 303 457 303 493 l 446 443 m 625 1132 q 557 1079 590 1106 q 496 1029 524 1053 q 433 978 464 1003 l 414 978 q 351 1029 383 1003 q 290 1079 324 1053 q 222 1132 256 1106 l 242 1163 l 254 1164 q 349 1112 303 1136 q 424 1074 396 1088 q 498 1111 453 1088 q 593 1164 543 1135 l 606 1163 l 625 1132 z "},"Ŗ":{"ha":849,"x_min":79,"x_max":838,"o":"m 300 379 l 296 172 q 299 113 296 135 q 312 78 301 90 q 342 62 322 65 q 396 58 363 58 l 399 53 l 386 -6 q 372 -5 386 -6 q 337 -3 358 -4 q 290 -2 315 -3 q 239 -1 264 -1 q 185 -1 213 -1 q 133 -3 157 -1 q 79 -6 106 -4 l 92 57 q 144 67 124 61 q 177 85 165 74 q 193 117 189 97 q 197 167 197 136 l 199 750 q 188 810 199 794 q 147 825 178 825 q 132 824 140 825 q 117 824 124 824 q 100 822 108 822 l 97 828 l 107 889 q 164 886 136 888 q 215 885 188 885 q 261 885 242 885 q 308 885 279 885 q 364 888 336 886 q 432 890 396 889 q 637 832 563 890 q 711 672 711 774 q 658 519 711 589 q 507 406 604 450 l 660 164 q 699 108 681 131 q 738 72 718 86 q 781 52 758 58 q 832 46 804 46 l 838 40 l 829 -7 l 711 -22 q 637 13 676 -22 q 564 110 597 49 l 415 379 l 300 379 m 446 443 q 521 483 488 457 q 572 546 549 507 q 596 647 596 585 q 342 831 596 831 q 322 824 326 831 q 317 799 318 818 q 311 697 314 743 q 307 609 308 650 q 304 531 306 568 q 303 457 303 493 l 446 443 m 371 -129 q 406 -106 385 -118 q 451 -93 428 -93 q 505 -119 483 -93 q 526 -192 526 -146 q 509 -262 526 -229 q 466 -322 492 -294 q 409 -370 440 -349 q 349 -407 378 -392 l 324 -386 l 324 -372 q 394 -308 365 -346 q 424 -235 424 -271 q 408 -185 424 -207 q 368 -149 392 -162 l 371 -129 z "},"S":{"ha":736,"x_min":79,"x_max":647,"o":"m 304 -17 q 215 -10 256 -17 q 146 7 174 -3 q 86 31 111 17 l 79 44 q 88 115 83 78 q 93 191 90 147 q 96 286 96 235 l 158 293 q 165 171 158 218 q 192 97 172 124 q 247 61 213 71 q 339 51 282 51 q 479 92 426 51 q 532 204 532 133 q 514 265 532 238 q 467 315 496 292 q 399 358 438 338 q 321 400 361 379 q 239 446 279 422 q 166 498 199 469 q 114 562 133 526 q 94 643 94 597 q 119 744 94 697 q 186 826 143 792 q 288 881 229 861 q 414 901 346 901 q 499 896 460 901 q 567 883 539 890 q 626 867 600 876 l 631 858 q 618 789 624 826 q 608 715 613 757 q 600 624 603 672 l 546 618 l 538 625 q 539 644 538 633 q 541 667 540 654 q 542 697 542 681 q 506 798 542 769 q 376 826 469 826 q 251 789 300 826 q 201 693 201 751 q 217 635 201 661 q 259 588 233 610 q 319 546 285 565 q 390 507 353 526 q 482 459 436 483 q 565 405 528 435 q 624 338 601 375 q 647 254 647 301 q 622 145 647 194 q 551 60 597 96 q 442 3 506 24 q 304 -17 379 -17 z "},"Ś":{"ha":736,"x_min":79,"x_max":647,"o":"m 304 -17 q 215 -10 256 -17 q 146 7 174 -3 q 86 31 111 17 l 79 44 q 88 115 83 78 q 93 191 90 147 q 96 286 96 235 l 158 293 q 165 171 158 218 q 192 97 172 124 q 247 61 213 71 q 339 51 282 51 q 479 92 426 51 q 532 204 532 133 q 514 265 532 238 q 467 315 496 292 q 399 358 438 338 q 321 400 361 379 q 239 446 279 422 q 166 498 199 469 q 114 562 133 526 q 94 643 94 597 q 119 744 94 697 q 186 826 143 792 q 288 881 229 861 q 414 901 346 901 q 499 896 460 901 q 567 883 539 890 q 626 867 600 876 l 631 858 q 618 789 624 826 q 608 715 613 757 q 600 624 603 672 l 546 618 l 538 625 q 539 644 538 633 q 541 667 540 654 q 542 697 542 681 q 506 798 542 769 q 376 826 469 826 q 251 789 300 826 q 201 693 201 751 q 217 635 201 661 q 259 588 233 610 q 319 546 285 565 q 390 507 353 526 q 482 459 436 483 q 565 405 528 435 q 624 338 601 375 q 647 254 647 301 q 622 145 647 194 q 551 60 597 96 q 442 3 506 24 q 304 -17 379 -17 m 581 1079 q 492 1049 538 1064 q 400 1015 451 1033 q 294 976 349 997 l 283 983 l 275 1017 q 373 1069 324 1042 q 463 1118 422 1096 q 551 1168 508 1143 l 564 1160 l 586 1093 l 581 1079 z "},"Š":{"ha":736,"x_min":79,"x_max":647,"o":"m 304 -17 q 215 -10 256 -17 q 146 7 174 -3 q 86 31 111 17 l 79 44 q 88 115 83 78 q 93 191 90 147 q 96 286 96 235 l 158 293 q 165 171 158 218 q 192 97 172 124 q 247 61 213 71 q 339 51 282 51 q 479 92 426 51 q 532 204 532 133 q 514 265 532 238 q 467 315 496 292 q 399 358 438 338 q 321 400 361 379 q 239 446 279 422 q 166 498 199 469 q 114 562 133 526 q 94 643 94 597 q 119 744 94 697 q 186 826 143 792 q 288 881 229 861 q 414 901 346 901 q 499 896 460 901 q 567 883 539 890 q 626 867 600 876 l 631 858 q 618 789 624 826 q 608 715 613 757 q 600 624 603 672 l 546 618 l 538 625 q 539 644 538 633 q 541 667 540 654 q 542 697 542 681 q 506 798 542 769 q 376 826 469 826 q 251 789 300 826 q 201 693 201 751 q 217 635 201 661 q 259 588 233 610 q 319 546 285 565 q 390 507 353 526 q 482 459 436 483 q 565 405 528 435 q 624 338 601 375 q 647 254 647 301 q 622 145 647 194 q 551 60 597 96 q 442 3 506 24 q 304 -17 379 -17 m 565 1135 q 497 1082 531 1108 q 436 1032 464 1056 q 374 981 404 1006 l 354 981 q 292 1032 324 1006 q 230 1082 264 1056 q 163 1135 196 1108 l 182 1165 l 194 1167 q 290 1115 243 1139 q 364 1076 336 1090 q 438 1114 393 1090 q 533 1167 483 1138 l 546 1165 l 565 1135 z "},"Ş":{"ha":736,"x_min":79,"x_max":647,"o":"m 304 -17 q 215 -10 256 -17 q 146 7 174 -3 q 86 31 111 17 l 79 44 q 88 115 83 78 q 93 191 90 147 q 96 286 96 235 l 158 293 q 165 171 158 218 q 192 97 172 124 q 247 61 213 71 q 339 51 282 51 q 479 92 426 51 q 532 204 532 133 q 514 265 532 238 q 467 315 496 292 q 399 358 438 338 q 321 400 361 379 q 239 446 279 422 q 166 498 199 469 q 114 562 133 526 q 94 643 94 597 q 119 744 94 697 q 186 826 143 792 q 288 881 229 861 q 414 901 346 901 q 499 896 460 901 q 567 883 539 890 q 626 867 600 876 l 631 858 q 618 789 624 826 q 608 715 613 757 q 600 624 603 672 l 546 618 l 538 625 q 539 644 538 633 q 541 667 540 654 q 542 697 542 681 q 506 798 542 769 q 376 826 469 826 q 251 789 300 826 q 201 693 201 751 q 217 635 201 661 q 259 588 233 610 q 319 546 285 565 q 390 507 353 526 q 482 459 436 483 q 565 405 528 435 q 624 338 601 375 q 647 254 647 301 q 628 157 647 201 q 572 78 608 113 q 486 20 536 43 q 375 -11 436 -3 l 356 -69 q 393 -95 372 -82 q 432 -124 414 -108 q 462 -156 450 -139 q 474 -193 474 -174 q 458 -244 474 -221 q 419 -285 443 -268 q 365 -313 394 -303 q 307 -324 336 -324 q 275 -320 292 -324 q 244 -310 258 -317 q 222 -295 231 -304 q 213 -274 213 -286 q 224 -236 213 -260 q 247 -196 236 -212 l 260 -196 q 282 -255 261 -235 q 336 -275 303 -275 q 383 -260 364 -275 q 403 -222 403 -246 q 392 -197 403 -210 q 365 -169 382 -183 q 326 -143 347 -156 q 285 -118 306 -131 l 315 -17 l 304 -17 l 304 -17 z "},"Ș":{"ha":736,"x_min":79,"x_max":647,"o":"m 304 -17 q 215 -10 256 -17 q 146 7 174 -3 q 86 31 111 17 l 79 44 q 88 115 83 78 q 93 191 90 147 q 96 286 96 235 l 158 293 q 165 171 158 218 q 192 97 172 124 q 247 61 213 71 q 339 51 282 51 q 479 92 426 51 q 532 204 532 133 q 514 265 532 238 q 467 315 496 292 q 399 358 438 338 q 321 400 361 379 q 239 446 279 422 q 166 498 199 469 q 114 562 133 526 q 94 643 94 597 q 119 744 94 697 q 186 826 143 792 q 288 881 229 861 q 414 901 346 901 q 499 896 460 901 q 567 883 539 890 q 626 867 600 876 l 631 858 q 618 789 624 826 q 608 715 613 757 q 600 624 603 672 l 546 618 l 538 625 q 539 644 538 633 q 541 667 540 654 q 542 697 542 681 q 506 798 542 769 q 376 826 469 826 q 251 789 300 826 q 201 693 201 751 q 217 635 201 661 q 259 588 233 610 q 319 546 285 565 q 390 507 353 526 q 482 459 436 483 q 565 405 528 435 q 624 338 601 375 q 647 254 647 301 q 622 145 647 194 q 551 60 597 96 q 442 3 506 24 q 304 -17 379 -17 m 278 -129 q 313 -106 292 -118 q 358 -93 335 -93 q 412 -119 390 -93 q 433 -192 433 -146 q 416 -262 433 -229 q 373 -322 399 -294 q 316 -370 347 -349 q 256 -407 285 -392 l 231 -386 l 231 -372 q 301 -308 272 -346 q 331 -235 331 -271 q 315 -185 331 -207 q 275 -149 299 -162 l 278 -129 z "},"T":{"ha":758,"x_min":13,"x_max":743,"o":"m 324 831 q 197 822 242 826 q 128 800 151 817 q 95 750 104 783 q 78 656 86 717 l 13 650 q 21 726 17 686 q 27 803 24 761 q 33 890 31 846 l 46 901 l 161 886 l 592 886 l 710 901 l 722 890 q 728 804 724 846 q 735 729 732 763 q 743 656 739 690 l 678 650 q 658 747 667 713 q 626 799 649 782 q 560 822 603 817 q 443 831 518 826 q 435 710 439 789 q 428 535 431 631 q 423 340 425 440 q 421 156 421 240 q 439 83 421 104 q 500 61 457 61 q 533 61 518 61 q 557 63 547 61 q 576 65 568 64 l 581 60 l 568 -4 q 490 -3 528 -4 q 423 -1 458 -1 q 364 0 388 0 q 305 -1 338 0 q 243 -3 272 -1 q 174 -6 208 -4 l 185 54 q 261 65 233 58 q 303 88 289 71 q 320 138 317 106 q 324 225 324 169 l 324 831 z "},"Ŧ":{"ha":758,"x_min":13,"x_max":743,"o":"m 324 415 q 276 415 300 415 q 235 414 253 414 l 194 414 l 182 426 l 192 481 q 233 479 211 479 l 324 479 l 324 831 q 197 822 242 826 q 128 800 151 817 q 95 750 104 783 q 78 656 86 717 l 13 650 q 21 726 17 686 q 27 803 24 761 q 33 890 31 846 l 46 901 l 161 886 l 592 886 l 710 901 l 722 890 q 728 804 724 846 q 735 729 732 763 q 743 656 739 690 l 678 650 q 658 747 667 713 q 626 799 649 782 q 560 822 603 817 q 443 831 518 826 q 433 687 438 782 q 425 479 428 592 q 464 481 444 481 q 499 483 483 482 q 532 486 515 485 l 550 468 l 544 417 l 424 415 q 422 281 422 347 q 421 156 421 214 q 439 83 421 104 q 500 61 457 61 q 533 61 518 61 q 557 63 547 61 q 576 65 568 64 l 581 60 l 568 -4 q 490 -3 528 -4 q 423 -1 458 -1 q 364 0 388 0 q 305 -1 338 0 q 243 -3 272 -1 q 174 -6 208 -4 l 185 54 q 261 65 233 58 q 303 88 289 71 q 320 138 317 106 q 324 225 324 169 l 324 415 z "},"Ť":{"ha":758,"x_min":13,"x_max":743,"o":"m 324 831 q 197 822 242 826 q 128 800 151 817 q 95 750 104 783 q 78 656 86 717 l 13 650 q 21 726 17 686 q 27 803 24 761 q 33 890 31 846 l 46 901 l 161 886 l 592 886 l 710 901 l 722 890 q 728 804 724 846 q 735 729 732 763 q 743 656 739 690 l 678 650 q 658 747 667 713 q 626 799 649 782 q 560 822 603 817 q 443 831 518 826 q 435 710 439 789 q 428 535 431 631 q 423 340 425 440 q 421 156 421 240 q 439 83 421 104 q 500 61 457 61 q 533 61 518 61 q 557 63 547 61 q 576 65 568 64 l 581 60 l 568 -4 q 490 -3 528 -4 q 423 -1 458 -1 q 364 0 388 0 q 305 -1 338 0 q 243 -3 272 -1 q 174 -6 208 -4 l 185 54 q 261 65 233 58 q 303 88 289 71 q 320 138 317 106 q 324 225 324 169 l 324 831 m 585 1132 q 517 1079 550 1106 q 456 1029 483 1053 q 393 978 424 1003 l 374 978 q 311 1029 343 1003 q 249 1079 283 1053 q 182 1132 215 1106 l 201 1163 l 214 1164 q 309 1112 263 1136 q 383 1074 356 1088 q 458 1111 413 1088 q 553 1164 503 1135 l 565 1163 l 585 1132 z "},"Ţ":{"ha":758,"x_min":13,"x_max":743,"o":"m 351 0 q 294 -1 325 0 q 236 -3 264 -1 q 174 -6 204 -4 l 185 54 q 261 65 233 58 q 303 88 289 71 q 320 138 317 106 q 324 225 324 169 l 324 831 q 197 822 242 826 q 128 800 151 817 q 95 750 104 783 q 78 656 86 717 l 13 650 q 21 726 17 686 q 27 803 24 761 q 33 890 31 846 l 46 901 l 161 886 l 592 886 l 710 901 l 722 890 q 728 804 724 846 q 735 729 732 763 q 743 656 739 690 l 678 650 q 658 747 667 713 q 626 799 649 782 q 560 822 603 817 q 443 831 518 826 q 435 710 439 789 q 428 535 431 631 q 423 340 425 440 q 421 156 421 240 q 439 83 421 104 q 500 61 457 61 q 533 61 518 61 q 557 63 547 61 q 576 65 568 64 l 581 60 l 568 -4 q 514 -3 540 -4 q 463 -1 490 -1 q 410 0 435 -1 l 386 -69 q 424 -95 403 -82 q 463 -124 444 -108 q 492 -156 481 -139 q 504 -193 504 -174 q 489 -244 504 -221 q 449 -285 474 -268 q 396 -313 425 -303 q 338 -324 367 -324 q 306 -320 322 -324 q 275 -310 289 -317 q 252 -295 261 -304 q 243 -274 243 -286 q 255 -236 243 -260 q 278 -196 267 -212 l 290 -196 q 313 -255 292 -235 q 367 -275 333 -275 q 414 -260 394 -275 q 433 -222 433 -246 q 423 -197 433 -210 q 395 -169 413 -183 q 357 -143 378 -156 q 315 -118 336 -131 l 351 0 z "},"Þ":{"ha":754,"x_min":78,"x_max":724,"o":"m 315 756 q 313 722 314 733 q 313 699 311 710 l 426 699 q 647 640 571 699 q 724 472 724 582 q 697 370 724 418 q 624 285 669 322 q 519 227 579 249 q 394 206 460 206 l 296 206 l 296 156 q 308 80 296 99 q 357 61 321 61 q 382 61 369 61 q 406 63 394 61 q 431 65 418 64 l 433 60 l 421 -4 q 354 -3 388 -4 q 294 -1 326 -1 q 239 0 263 0 q 183 -3 211 0 q 132 -8 156 -6 q 78 -17 104 -12 l 86 47 q 174 84 151 60 q 197 167 197 108 l 199 750 q 189 810 199 794 q 147 825 179 825 q 129 824 139 825 q 110 824 119 824 q 89 822 99 822 l 86 828 l 96 889 q 157 886 126 888 q 211 885 183 885 q 261 885 239 885 q 313 886 285 885 q 365 890 342 888 q 421 897 393 893 l 415 835 q 337 811 357 828 q 315 756 317 794 m 308 619 q 301 421 303 499 q 297 290 299 343 q 328 282 310 286 q 365 275 346 278 q 404 269 385 272 q 439 267 424 267 q 607 446 607 288 q 544 586 607 542 q 346 631 482 631 q 317 628 322 631 q 308 619 311 626 z "},"U":{"ha":946,"x_min":49,"x_max":900,"o":"m 256 347 q 315 135 256 208 q 488 63 375 63 q 661 122 601 63 q 721 297 721 182 q 720 344 721 315 q 719 409 719 374 q 717 483 718 444 q 717 560 717 522 q 713 750 714 649 q 701 812 710 799 q 661 825 692 825 q 644 824 654 825 q 625 824 635 824 q 601 822 614 822 l 599 828 l 608 889 q 667 886 638 888 q 718 885 690 885 q 765 885 746 885 q 812 886 788 885 q 856 890 836 888 q 900 897 879 893 l 894 835 q 845 826 864 831 q 816 813 826 821 q 802 790 806 804 q 799 756 799 776 l 799 289 q 708 63 799 142 q 454 -17 618 -17 q 228 63 307 -17 q 150 290 150 143 l 150 750 q 140 810 150 794 q 99 825 131 825 q 83 824 92 825 q 68 824 75 824 q 51 822 60 822 l 49 828 l 58 889 q 117 886 88 888 q 168 885 140 885 q 215 885 196 885 q 263 886 238 885 q 311 890 289 888 q 361 897 336 893 l 356 835 q 313 826 329 831 q 286 812 296 821 q 272 789 276 803 q 267 756 268 775 l 256 347 l 256 347 z "},"Ú":{"ha":946,"x_min":49,"x_max":900,"o":"m 256 347 q 315 135 256 208 q 488 63 375 63 q 661 122 601 63 q 721 297 721 182 q 720 344 721 315 q 719 409 719 374 q 717 483 718 444 q 717 560 717 522 q 713 750 714 649 q 701 812 710 799 q 661 825 692 825 q 644 824 654 825 q 625 824 635 824 q 601 822 614 822 l 599 828 l 608 889 q 667 886 638 888 q 718 885 690 885 q 765 885 746 885 q 812 886 788 885 q 856 890 836 888 q 900 897 879 893 l 894 835 q 845 826 864 831 q 816 813 826 821 q 802 790 806 804 q 799 756 799 776 l 799 289 q 708 63 799 142 q 454 -17 618 -17 q 228 63 307 -17 q 150 290 150 143 l 150 750 q 140 810 150 794 q 99 825 131 825 q 83 824 92 825 q 68 824 75 824 q 51 822 60 822 l 49 828 l 58 889 q 117 886 88 888 q 168 885 140 885 q 215 885 196 885 q 263 886 238 885 q 311 890 289 888 q 361 897 336 893 l 356 835 q 313 826 329 831 q 286 812 296 821 q 272 789 276 803 q 267 756 268 775 l 256 347 l 256 347 m 699 1079 q 610 1049 656 1064 q 518 1015 569 1033 q 413 976 467 997 l 401 983 l 393 1017 q 491 1069 442 1042 q 581 1118 540 1096 q 669 1168 626 1143 l 682 1160 l 704 1093 l 699 1079 z "},"Û":{"ha":946,"x_min":49,"x_max":900,"o":"m 256 347 q 315 135 256 208 q 488 63 375 63 q 661 122 601 63 q 721 297 721 182 q 720 344 721 315 q 719 409 719 374 q 717 483 718 444 q 717 560 717 522 q 713 750 714 649 q 701 812 710 799 q 661 825 692 825 q 644 824 654 825 q 625 824 635 824 q 601 822 614 822 l 599 828 l 608 889 q 667 886 638 888 q 718 885 690 885 q 765 885 746 885 q 812 886 788 885 q 856 890 836 888 q 900 897 879 893 l 894 835 q 845 826 864 831 q 816 813 826 821 q 802 790 806 804 q 799 756 799 776 l 799 289 q 708 63 799 142 q 454 -17 618 -17 q 228 63 307 -17 q 150 290 150 143 l 150 750 q 140 810 150 794 q 99 825 131 825 q 83 824 92 825 q 68 824 75 824 q 51 822 60 822 l 49 828 l 58 889 q 117 886 88 888 q 168 885 140 885 q 215 885 196 885 q 263 886 238 885 q 311 890 289 888 q 361 897 336 893 l 356 835 q 313 826 329 831 q 286 812 296 821 q 272 789 276 803 q 267 756 268 775 l 256 347 l 256 347 m 279 1021 q 347 1073 313 1046 q 408 1124 381 1100 q 471 1175 440 1150 l 490 1175 q 553 1124 521 1150 q 614 1073 581 1100 q 682 1021 647 1046 l 663 990 l 650 989 q 555 1041 601 1017 q 481 1079 508 1065 q 406 1042 451 1065 q 311 989 361 1018 l 299 990 l 279 1021 z "},"Ü":{"ha":946,"x_min":49,"x_max":900,"o":"m 256 347 q 315 135 256 208 q 488 63 375 63 q 661 122 601 63 q 721 297 721 182 q 720 344 721 315 q 719 409 719 374 q 717 483 718 444 q 717 560 717 522 q 713 750 714 649 q 701 812 710 799 q 661 825 692 825 q 644 824 654 825 q 625 824 635 824 q 601 822 614 822 l 599 828 l 608 889 q 667 886 638 888 q 718 885 690 885 q 765 885 746 885 q 812 886 788 885 q 856 890 836 888 q 900 897 879 893 l 894 835 q 845 826 864 831 q 816 813 826 821 q 802 790 806 804 q 799 756 799 776 l 799 289 q 708 63 799 142 q 454 -17 618 -17 q 228 63 307 -17 q 150 290 150 143 l 150 750 q 140 810 150 794 q 99 825 131 825 q 83 824 92 825 q 68 824 75 824 q 51 822 60 822 l 49 828 l 58 889 q 117 886 88 888 q 168 885 140 885 q 215 885 196 885 q 263 886 238 885 q 311 890 289 888 q 361 897 336 893 l 356 835 q 313 826 329 831 q 286 812 296 821 q 272 789 276 803 q 267 756 268 775 l 256 347 l 256 347 m 590 1007 q 548 1026 563 1007 q 533 1067 533 1044 q 553 1115 533 1094 q 603 1136 572 1136 q 645 1118 631 1136 q 660 1076 660 1100 q 640 1028 660 1049 q 590 1007 621 1007 m 360 1007 q 317 1026 332 1007 q 303 1067 303 1044 q 322 1115 303 1094 q 372 1136 342 1136 q 415 1118 400 1136 q 429 1076 429 1100 q 410 1028 429 1049 q 360 1007 390 1007 z "},"Ù":{"ha":946,"x_min":49,"x_max":900,"o":"m 256 347 q 315 135 256 208 q 488 63 375 63 q 661 122 601 63 q 721 297 721 182 q 720 344 721 315 q 719 409 719 374 q 717 483 718 444 q 717 560 717 522 q 713 750 714 649 q 701 812 710 799 q 661 825 692 825 q 644 824 654 825 q 625 824 635 824 q 601 822 614 822 l 599 828 l 608 889 q 667 886 638 888 q 718 885 690 885 q 765 885 746 885 q 812 886 788 885 q 856 890 836 888 q 900 897 879 893 l 894 835 q 845 826 864 831 q 816 813 826 821 q 802 790 806 804 q 799 756 799 776 l 799 289 q 708 63 799 142 q 454 -17 618 -17 q 228 63 307 -17 q 150 290 150 143 l 150 750 q 140 810 150 794 q 99 825 131 825 q 83 824 92 825 q 68 824 75 824 q 51 822 60 822 l 49 828 l 58 889 q 117 886 88 888 q 168 885 140 885 q 215 885 196 885 q 263 886 238 885 q 311 890 289 888 q 361 897 336 893 l 356 835 q 313 826 329 831 q 286 812 296 821 q 272 789 276 803 q 267 756 268 775 l 256 347 l 256 347 m 269 1093 l 292 1160 l 304 1168 q 393 1118 347 1143 q 483 1069 433 1096 q 581 1017 532 1042 l 572 983 l 561 976 q 455 1015 506 997 q 364 1049 404 1033 q 275 1079 318 1064 l 269 1093 z "},"Ű":{"ha":946,"x_min":49,"x_max":900,"o":"m 256 347 q 315 135 256 208 q 488 63 375 63 q 661 122 601 63 q 721 297 721 182 q 720 344 721 315 q 719 409 719 374 q 717 483 718 444 q 717 560 717 522 q 713 750 714 649 q 701 812 710 799 q 661 825 692 825 q 644 824 654 825 q 625 824 635 824 q 601 822 614 822 l 599 828 l 608 889 q 667 886 638 888 q 718 885 690 885 q 765 885 746 885 q 812 886 788 885 q 856 890 836 888 q 900 897 879 893 l 894 835 q 845 826 864 831 q 816 813 826 821 q 802 790 806 804 q 799 756 799 776 l 799 289 q 708 63 799 142 q 454 -17 618 -17 q 228 63 307 -17 q 150 290 150 143 l 150 750 q 140 810 150 794 q 99 825 131 825 q 83 824 92 825 q 68 824 75 824 q 51 822 60 822 l 49 828 l 58 889 q 117 886 88 888 q 168 885 140 885 q 215 885 196 885 q 263 886 238 885 q 311 890 289 888 q 361 897 336 893 l 356 835 q 313 826 329 831 q 286 812 296 821 q 272 789 276 803 q 267 756 268 775 l 256 347 l 256 347 m 599 1085 q 528 1049 564 1068 q 456 1010 496 1032 q 371 964 415 988 l 360 971 l 347 1000 q 422 1056 385 1028 q 490 1108 460 1085 q 560 1163 526 1136 l 572 1157 l 603 1097 l 599 1085 m 793 1072 q 722 1036 758 1056 q 650 997 690 1019 q 565 951 610 975 l 556 957 l 542 986 q 617 1043 579 1014 q 685 1096 654 1072 q 754 1150 721 1124 l 767 1143 l 797 1085 l 793 1072 z "},"Ū":{"ha":946,"x_min":49,"x_max":900,"o":"m 256 347 q 315 135 256 208 q 488 63 375 63 q 661 122 601 63 q 721 297 721 182 q 720 344 721 315 q 719 409 719 374 q 717 483 718 444 q 717 560 717 522 q 713 750 714 649 q 701 812 710 799 q 661 825 692 825 q 644 824 654 825 q 625 824 635 824 q 601 822 614 822 l 599 828 l 608 889 q 667 886 638 888 q 718 885 690 885 q 765 885 746 885 q 812 886 788 885 q 856 890 836 888 q 900 897 879 893 l 894 835 q 845 826 864 831 q 816 813 826 821 q 802 790 806 804 q 799 756 799 776 l 799 289 q 708 63 799 142 q 454 -17 618 -17 q 228 63 307 -17 q 150 290 150 143 l 150 750 q 140 810 150 794 q 99 825 131 825 q 83 824 92 825 q 68 824 75 824 q 51 822 60 822 l 49 828 l 58 889 q 117 886 88 888 q 168 885 140 885 q 215 885 196 885 q 263 886 238 885 q 311 890 289 888 q 361 897 336 893 l 356 835 q 313 826 329 831 q 286 812 296 821 q 272 789 276 803 q 267 756 268 775 l 256 347 l 256 347 m 689 1067 l 679 1001 l 482 1000 q 416 999 450 1000 q 351 999 382 999 l 282 999 l 274 1011 l 288 1074 q 364 1072 326 1072 l 501 1072 q 558 1073 528 1072 q 617 1076 589 1074 q 681 1081 649 1078 l 689 1067 z "},"Ų":{"ha":946,"x_min":49,"x_max":900,"o":"m 747 -247 q 704 -282 728 -265 q 660 -312 685 -297 q 608 -335 635 -326 q 496 -300 538 -335 q 454 -204 454 -265 q 483 -119 454 -165 q 585 0 513 -74 q 454 -17 526 -17 q 228 63 307 -17 q 150 290 150 143 l 150 750 q 140 810 150 794 q 99 825 131 825 q 83 824 92 825 q 68 824 75 824 q 51 822 60 822 l 49 828 l 58 889 q 117 886 88 888 q 168 885 140 885 q 215 885 196 885 q 263 886 238 885 q 311 890 289 888 q 361 897 336 893 l 356 835 q 313 826 329 831 q 286 812 296 821 q 272 789 276 803 q 267 756 268 775 l 256 347 q 315 135 256 208 q 488 63 375 63 q 661 122 601 63 q 721 297 721 182 q 720 344 721 315 q 719 409 719 374 q 717 483 718 444 q 717 560 717 522 q 713 750 714 649 q 708 790 711 775 q 700 812 706 804 q 685 822 694 819 q 661 825 676 825 q 644 824 654 825 q 625 824 635 824 q 601 822 614 822 l 599 828 l 608 889 q 667 886 638 888 q 718 885 690 885 q 765 885 746 885 q 812 886 788 885 q 856 890 836 888 q 900 897 879 893 l 894 835 q 845 825 864 831 q 816 811 826 819 q 802 790 806 803 q 799 756 799 776 l 799 289 q 707 58 799 150 q 624 -26 657 8 q 574 -87 592 -61 q 549 -134 556 -112 q 542 -178 542 -156 q 564 -232 542 -211 q 622 -253 586 -253 q 661 -249 642 -253 q 696 -237 681 -244 q 729 -221 713 -231 l 747 -247 z "},"Ů":{"ha":946,"x_min":49,"x_max":900,"o":"m 256 347 q 315 135 256 208 q 488 63 375 63 q 661 122 601 63 q 721 297 721 182 q 720 344 721 315 q 719 409 719 374 q 717 483 718 444 q 717 560 717 522 q 713 750 714 649 q 701 812 710 799 q 661 825 692 825 q 644 824 654 825 q 625 824 635 824 q 601 822 614 822 l 599 828 l 608 889 q 667 886 638 888 q 718 885 690 885 q 765 885 746 885 q 812 886 788 885 q 856 890 836 888 q 900 897 879 893 l 894 835 q 845 826 864 831 q 816 813 826 821 q 802 790 806 804 q 799 756 799 776 l 799 289 q 708 63 799 142 q 454 -17 618 -17 q 228 63 307 -17 q 150 290 150 143 l 150 750 q 140 810 150 794 q 99 825 131 825 q 83 824 92 825 q 68 824 75 824 q 51 822 60 822 l 49 828 l 58 889 q 117 886 88 888 q 168 885 140 885 q 215 885 196 885 q 263 886 238 885 q 311 890 289 888 q 361 897 336 893 l 356 835 q 313 826 329 831 q 286 812 296 821 q 272 789 276 803 q 267 756 268 775 l 256 347 l 256 347 m 486 989 q 505 990 494 989 q 525 997 515 992 q 541 1014 535 1003 q 547 1043 547 1025 q 529 1091 547 1072 q 476 1110 511 1110 q 431 1095 446 1110 q 415 1056 415 1081 q 440 1004 415 1019 q 486 989 464 989 m 476 936 q 398 967 425 936 q 371 1047 371 999 q 403 1131 371 1097 q 488 1164 435 1164 q 537 1155 517 1164 q 569 1131 557 1146 q 588 1097 582 1117 q 594 1058 594 1078 q 564 973 594 1010 q 476 936 533 936 z "},"V":{"ha":847,"x_min":-12,"x_max":849,"o":"m 118 744 q 75 803 106 785 q -10 824 44 822 l -12 829 l -3 889 q 60 886 29 888 q 113 885 86 885 q 158 885 140 885 q 222 887 186 885 q 290 892 258 889 q 367 900 328 896 l 371 890 l 365 836 q 267 819 292 831 q 242 778 242 808 q 249 738 242 769 q 269 658 257 706 q 297 554 281 611 q 329 439 313 497 q 417 135 367 301 l 429 135 q 472 244 447 181 q 522 374 496 307 q 572 508 547 442 q 616 631 596 575 q 648 724 636 686 q 660 774 660 763 q 638 816 660 803 q 564 829 615 829 l 492 829 l 489 835 l 497 894 q 563 889 528 892 q 626 885 590 886 q 696 885 661 885 q 747 885 721 885 q 797 886 774 885 q 849 889 822 888 l 838 824 q 802 819 817 822 q 778 809 788 817 q 760 789 768 801 q 746 757 753 776 l 447 7 l 358 -24 q 282 225 322 96 q 205 472 247 336 q 118 744 163 607 z "},"W":{"ha":1294,"x_min":-10,"x_max":1293,"o":"m 817 -24 q 765 157 793 60 q 710 345 742 240 q 643 565 679 450 l 635 565 l 438 7 l 349 -24 q 276 225 314 96 q 203 472 244 336 q 117 744 161 608 q 74 803 104 785 q -8 824 44 822 q -9 826 -8 825 q -10 829 -10 828 l -1 889 q 60 886 31 888 q 111 885 85 885 q 156 885 138 885 q 228 887 192 885 q 293 892 265 889 q 357 900 326 896 l 361 890 l 356 836 q 260 819 285 831 q 236 779 236 808 q 243 735 236 768 q 262 656 250 703 q 289 551 274 608 q 321 436 304 494 q 407 135 358 300 l 415 135 l 611 668 l 586 744 q 542 803 572 786 q 461 824 513 821 l 458 829 l 468 889 q 529 886 500 888 q 581 885 554 885 q 625 885 607 885 q 692 887 657 885 q 757 892 726 889 q 826 900 793 896 l 831 890 l 825 836 q 728 819 753 831 q 704 778 704 808 q 712 737 704 769 q 731 658 719 704 q 758 554 743 611 q 790 439 774 497 q 876 135 828 301 l 885 135 q 925 245 901 182 q 974 376 949 308 q 1023 513 999 444 q 1067 637 1047 581 q 1098 731 1086 693 q 1110 781 1110 769 q 1088 818 1110 807 q 1015 829 1065 829 l 946 829 l 943 835 l 953 894 q 1015 889 982 892 q 1078 885 1043 886 q 1146 885 1113 885 q 1195 885 1169 885 q 1243 886 1221 885 q 1293 889 1268 888 l 1283 824 q 1249 819 1263 822 q 1226 810 1236 817 q 1209 790 1217 803 q 1194 757 1201 778 l 903 7 l 817 -24 z "},"Ẃ":{"ha":1294,"x_min":-10,"x_max":1293,"o":"m 817 -24 q 765 157 793 60 q 710 345 742 240 q 643 565 679 450 l 635 565 l 438 7 l 349 -24 q 276 225 314 96 q 203 472 244 336 q 117 744 161 608 q 74 803 104 785 q -8 824 44 822 q -9 826 -8 825 q -10 829 -10 828 l -1 889 q 60 886 31 888 q 111 885 85 885 q 156 885 138 885 q 228 887 192 885 q 293 892 265 889 q 357 900 326 896 l 361 890 l 356 836 q 260 819 285 831 q 236 779 236 808 q 243 735 236 768 q 262 656 250 703 q 289 551 274 608 q 321 436 304 494 q 407 135 358 300 l 415 135 l 611 668 l 586 744 q 542 803 572 786 q 461 824 513 821 l 458 829 l 468 889 q 529 886 500 888 q 581 885 554 885 q 625 885 607 885 q 692 887 657 885 q 757 892 726 889 q 826 900 793 896 l 831 890 l 825 836 q 728 819 753 831 q 704 778 704 808 q 712 737 704 769 q 731 658 719 704 q 758 554 743 611 q 790 439 774 497 q 876 135 828 301 l 885 135 q 925 245 901 182 q 974 376 949 308 q 1023 513 999 444 q 1067 637 1047 581 q 1098 731 1086 693 q 1110 781 1110 769 q 1088 818 1110 807 q 1015 829 1065 829 l 946 829 l 943 835 l 953 894 q 1015 889 982 892 q 1078 885 1043 886 q 1146 885 1113 885 q 1195 885 1169 885 q 1243 886 1221 885 q 1293 889 1268 888 l 1283 824 q 1249 819 1263 822 q 1226 810 1236 817 q 1209 790 1217 803 q 1194 757 1201 778 l 903 7 l 817 -24 m 864 1079 q 775 1049 821 1064 q 683 1015 735 1033 q 578 976 632 997 l 567 983 l 558 1017 q 656 1069 607 1042 q 746 1118 706 1096 q 835 1168 792 1143 l 847 1160 l 869 1093 l 864 1079 z "},"Ŵ":{"ha":1294,"x_min":-10,"x_max":1293,"o":"m 817 -24 q 765 157 793 60 q 710 345 742 240 q 643 565 679 450 l 635 565 l 438 7 l 349 -24 q 276 225 314 96 q 203 472 244 336 q 117 744 161 608 q 74 803 104 785 q -8 824 44 822 q -9 826 -8 825 q -10 829 -10 828 l -1 889 q 60 886 31 888 q 111 885 85 885 q 156 885 138 885 q 228 887 192 885 q 293 892 265 889 q 357 900 326 896 l 361 890 l 356 836 q 260 819 285 831 q 236 779 236 808 q 243 735 236 768 q 262 656 250 703 q 289 551 274 608 q 321 436 304 494 q 407 135 358 300 l 415 135 l 611 668 l 586 744 q 542 803 572 786 q 461 824 513 821 l 458 829 l 468 889 q 529 886 500 888 q 581 885 554 885 q 625 885 607 885 q 692 887 657 885 q 757 892 726 889 q 826 900 793 896 l 831 890 l 825 836 q 728 819 753 831 q 704 778 704 808 q 712 737 704 769 q 731 658 719 704 q 758 554 743 611 q 790 439 774 497 q 876 135 828 301 l 885 135 q 925 245 901 182 q 974 376 949 308 q 1023 513 999 444 q 1067 637 1047 581 q 1098 731 1086 693 q 1110 781 1110 769 q 1088 818 1110 807 q 1015 829 1065 829 l 946 829 l 943 835 l 953 894 q 1015 889 982 892 q 1078 885 1043 886 q 1146 885 1113 885 q 1195 885 1169 885 q 1243 886 1221 885 q 1293 889 1268 888 l 1283 824 q 1249 819 1263 822 q 1226 810 1236 817 q 1209 790 1217 803 q 1194 757 1201 778 l 903 7 l 817 -24 m 446 1021 q 513 1073 479 1046 q 575 1124 547 1100 q 638 1175 607 1150 l 657 1175 q 719 1124 688 1150 q 781 1073 747 1100 q 849 1021 814 1046 l 829 990 l 817 989 q 722 1041 768 1017 q 647 1079 675 1065 q 573 1042 618 1065 q 478 989 528 1018 l 465 990 l 446 1021 z "},"Ẅ":{"ha":1294,"x_min":-10,"x_max":1293,"o":"m 817 -24 q 765 157 793 60 q 710 345 742 240 q 643 565 679 450 l 635 565 l 438 7 l 349 -24 q 276 225 314 96 q 203 472 244 336 q 117 744 161 608 q 74 803 104 785 q -8 824 44 822 q -9 826 -8 825 q -10 829 -10 828 l -1 889 q 60 886 31 888 q 111 885 85 885 q 156 885 138 885 q 228 887 192 885 q 293 892 265 889 q 357 900 326 896 l 361 890 l 356 836 q 260 819 285 831 q 236 779 236 808 q 243 735 236 768 q 262 656 250 703 q 289 551 274 608 q 321 436 304 494 q 407 135 358 300 l 415 135 l 611 668 l 586 744 q 542 803 572 786 q 461 824 513 821 l 458 829 l 468 889 q 529 886 500 888 q 581 885 554 885 q 625 885 607 885 q 692 887 657 885 q 757 892 726 889 q 826 900 793 896 l 831 890 l 825 836 q 728 819 753 831 q 704 778 704 808 q 712 737 704 769 q 731 658 719 704 q 758 554 743 611 q 790 439 774 497 q 876 135 828 301 l 885 135 q 925 245 901 182 q 974 376 949 308 q 1023 513 999 444 q 1067 637 1047 581 q 1098 731 1086 693 q 1110 781 1110 769 q 1088 818 1110 807 q 1015 829 1065 829 l 946 829 l 943 835 l 953 894 q 1015 889 982 892 q 1078 885 1043 886 q 1146 885 1113 885 q 1195 885 1169 885 q 1243 886 1221 885 q 1293 889 1268 888 l 1283 824 q 1249 819 1263 822 q 1226 810 1236 817 q 1209 790 1217 803 q 1194 757 1201 778 l 903 7 l 817 -24 m 754 1007 q 712 1026 726 1007 q 697 1067 697 1044 q 717 1115 697 1094 q 767 1136 736 1136 q 809 1118 794 1136 q 824 1076 824 1100 q 804 1028 824 1049 q 754 1007 785 1007 m 524 1007 q 481 1026 496 1007 q 467 1067 467 1044 q 486 1115 467 1094 q 536 1136 506 1136 q 578 1118 564 1136 q 593 1076 593 1100 q 574 1028 593 1049 q 524 1007 554 1007 z "},"Ẁ":{"ha":1294,"x_min":-10,"x_max":1293,"o":"m 817 -24 q 765 157 793 60 q 710 345 742 240 q 643 565 679 450 l 635 565 l 438 7 l 349 -24 q 276 225 314 96 q 203 472 244 336 q 117 744 161 608 q 74 803 104 785 q -8 824 44 822 q -9 826 -8 825 q -10 829 -10 828 l -1 889 q 60 886 31 888 q 111 885 85 885 q 156 885 138 885 q 228 887 192 885 q 293 892 265 889 q 357 900 326 896 l 361 890 l 356 836 q 260 819 285 831 q 236 779 236 808 q 243 735 236 768 q 262 656 250 703 q 289 551 274 608 q 321 436 304 494 q 407 135 358 300 l 415 135 l 611 668 l 586 744 q 542 803 572 786 q 461 824 513 821 l 458 829 l 468 889 q 529 886 500 888 q 581 885 554 885 q 625 885 607 885 q 692 887 657 885 q 757 892 726 889 q 826 900 793 896 l 831 890 l 825 836 q 728 819 753 831 q 704 778 704 808 q 712 737 704 769 q 731 658 719 704 q 758 554 743 611 q 790 439 774 497 q 876 135 828 301 l 885 135 q 925 245 901 182 q 974 376 949 308 q 1023 513 999 444 q 1067 637 1047 581 q 1098 731 1086 693 q 1110 781 1110 769 q 1088 818 1110 807 q 1015 829 1065 829 l 946 829 l 943 835 l 953 894 q 1015 889 982 892 q 1078 885 1043 886 q 1146 885 1113 885 q 1195 885 1169 885 q 1243 886 1221 885 q 1293 889 1268 888 l 1283 824 q 1249 819 1263 822 q 1226 810 1236 817 q 1209 790 1217 803 q 1194 757 1201 778 l 903 7 l 817 -24 m 435 1093 l 457 1160 l 469 1168 q 558 1118 513 1143 q 648 1069 599 1096 q 746 1017 697 1042 l 738 983 l 726 976 q 620 1015 671 997 q 529 1049 569 1033 q 440 1079 483 1064 l 435 1093 z "},"X":{"ha":911,"x_min":17,"x_max":904,"o":"m 404 442 l 222 714 q 142 793 188 765 q 32 829 96 821 l 29 835 l 38 889 q 114 886 78 888 q 180 885 146 885 q 238 885 214 885 q 313 886 278 885 q 372 890 347 888 q 425 896 401 893 l 429 886 l 425 838 q 342 822 367 833 q 317 788 317 811 q 360 701 317 771 q 474 524 403 631 q 528 597 497 556 q 588 676 560 638 q 636 747 617 715 q 656 793 656 778 q 637 822 656 813 q 575 835 618 831 l 572 840 l 581 894 q 638 889 610 892 q 688 885 661 886 q 733 885 714 885 q 777 885 753 885 q 821 888 801 886 q 868 890 844 889 l 874 881 l 865 829 q 811 813 833 822 q 768 786 789 803 q 726 745 747 769 q 676 685 706 721 l 508 472 l 711 176 q 792 94 749 122 q 901 61 836 67 l 904 56 l 894 -4 q 832 -3 863 -4 q 776 -1 806 -1 q 722 0 746 0 q 656 -1 693 0 q 585 -6 618 -3 q 507 -11 546 -8 l 503 -1 l 508 53 q 590 67 564 56 q 617 101 617 78 q 610 128 617 114 q 589 163 603 143 l 438 390 l 310 221 q 254 142 269 167 q 239 97 239 117 q 319 56 239 61 l 322 50 l 313 -10 q 256 -6 283 -8 q 206 -1 232 -3 q 160 0 179 0 q 115 -1 139 0 q 71 -3 92 -1 q 22 -6 46 -4 l 17 4 l 26 61 q 138 127 88 79 q 251 253 189 175 l 404 442 z "},"Y":{"ha":747,"x_min":-26,"x_max":775,"o":"m 226 788 q 238 747 226 778 q 266 677 249 717 q 303 594 283 638 q 341 513 324 550 q 370 453 358 476 q 382 429 382 429 l 389 429 l 547 724 q 569 793 569 764 q 482 835 569 829 l 479 840 l 488 894 q 546 889 518 892 q 596 885 569 886 q 642 885 622 885 q 684 885 661 885 q 726 888 707 886 q 769 890 749 889 l 775 881 l 767 829 q 708 812 731 822 q 668 781 686 801 q 631 730 650 761 q 585 649 613 699 l 446 404 q 429 365 435 385 q 421 318 424 346 q 417 251 418 290 q 415 156 417 213 q 427 82 414 103 q 476 61 440 61 q 499 61 488 61 q 521 63 510 61 q 544 65 533 64 l 547 60 l 535 -4 q 469 -3 501 -4 q 412 -1 442 -1 q 358 0 382 0 q 304 -3 332 0 q 253 -8 276 -6 q 200 -17 226 -12 l 208 47 q 267 64 246 54 q 300 90 289 74 q 314 133 311 107 q 317 197 317 158 l 317 258 q 309 332 317 299 q 276 415 301 365 l 151 669 q 116 741 131 713 q 84 788 101 769 q 42 816 67 807 q -24 829 17 825 l -26 835 l -18 889 q 35 886 8 888 q 85 885 58 885 q 135 885 111 885 q 198 886 164 885 q 263 890 232 888 q 332 896 297 893 l 336 886 l 332 838 q 248 822 269 832 q 226 788 226 811 z "},"Ý":{"ha":747,"x_min":-26,"x_max":775,"o":"m 226 788 q 238 747 226 778 q 266 677 249 717 q 303 594 283 638 q 341 513 324 550 q 370 453 358 476 q 382 429 382 429 l 389 429 l 547 724 q 569 793 569 764 q 482 835 569 829 l 479 840 l 488 894 q 546 889 518 892 q 596 885 569 886 q 642 885 622 885 q 684 885 661 885 q 726 888 707 886 q 769 890 749 889 l 775 881 l 767 829 q 708 812 731 822 q 668 781 686 801 q 631 730 650 761 q 585 649 613 699 l 446 404 q 429 365 435 385 q 421 318 424 346 q 417 251 418 290 q 415 156 417 213 q 427 82 414 103 q 476 61 440 61 q 499 61 488 61 q 521 63 510 61 q 544 65 533 64 l 547 60 l 535 -4 q 469 -3 501 -4 q 412 -1 442 -1 q 358 0 382 0 q 304 -3 332 0 q 253 -8 276 -6 q 200 -17 226 -12 l 208 47 q 267 64 246 54 q 300 90 289 74 q 314 133 311 107 q 317 197 317 158 l 317 258 q 309 332 317 299 q 276 415 301 365 l 151 669 q 116 741 131 713 q 84 788 101 769 q 42 816 67 807 q -24 829 17 825 l -26 835 l -18 889 q 35 886 8 888 q 85 885 58 885 q 135 885 111 885 q 198 886 164 885 q 263 890 232 888 q 332 896 297 893 l 336 886 l 332 838 q 248 822 269 832 q 226 788 226 811 m 613 1079 q 524 1049 569 1064 q 432 1015 483 1033 q 326 976 381 997 l 315 983 l 307 1017 q 405 1069 356 1042 q 494 1118 454 1096 q 583 1168 540 1143 l 596 1160 l 618 1093 l 613 1079 z "},"Ŷ":{"ha":747,"x_min":-26,"x_max":775,"o":"m 226 788 q 238 747 226 778 q 266 677 249 717 q 303 594 283 638 q 341 513 324 550 q 370 453 358 476 q 382 429 382 429 l 389 429 l 547 724 q 569 793 569 764 q 482 835 569 829 l 479 840 l 488 894 q 546 889 518 892 q 596 885 569 886 q 642 885 622 885 q 684 885 661 885 q 726 888 707 886 q 769 890 749 889 l 775 881 l 767 829 q 708 812 731 822 q 668 781 686 801 q 631 730 650 761 q 585 649 613 699 l 446 404 q 429 365 435 385 q 421 318 424 346 q 417 251 418 290 q 415 156 417 213 q 427 82 414 103 q 476 61 440 61 q 499 61 488 61 q 521 63 510 61 q 544 65 533 64 l 547 60 l 535 -4 q 469 -3 501 -4 q 412 -1 442 -1 q 358 0 382 0 q 304 -3 332 0 q 253 -8 276 -6 q 200 -17 226 -12 l 208 47 q 267 64 246 54 q 300 90 289 74 q 314 133 311 107 q 317 197 317 158 l 317 258 q 309 332 317 299 q 276 415 301 365 l 151 669 q 116 741 131 713 q 84 788 101 769 q 42 816 67 807 q -24 829 17 825 l -26 835 l -18 889 q 35 886 8 888 q 85 885 58 885 q 135 885 111 885 q 198 886 164 885 q 263 890 232 888 q 332 896 297 893 l 336 886 l 332 838 q 248 822 269 832 q 226 788 226 811 m 194 1021 q 262 1073 228 1046 q 324 1124 296 1100 q 386 1175 356 1150 l 406 1175 q 468 1124 436 1150 q 529 1073 496 1100 q 597 1021 563 1046 l 578 990 l 565 989 q 470 1041 517 1017 q 396 1079 424 1065 q 322 1042 367 1065 q 226 989 276 1018 l 214 990 l 194 1021 z "},"Ÿ":{"ha":747,"x_min":-26,"x_max":775,"o":"m 226 788 q 238 747 226 778 q 266 677 249 717 q 303 594 283 638 q 341 513 324 550 q 370 453 358 476 q 382 429 382 429 l 389 429 l 547 724 q 569 793 569 764 q 482 835 569 829 l 479 840 l 488 894 q 546 889 518 892 q 596 885 569 886 q 642 885 622 885 q 684 885 661 885 q 726 888 707 886 q 769 890 749 889 l 775 881 l 767 829 q 708 812 731 822 q 668 781 686 801 q 631 730 650 761 q 585 649 613 699 l 446 404 q 429 365 435 385 q 421 318 424 346 q 417 251 418 290 q 415 156 417 213 q 427 82 414 103 q 476 61 440 61 q 499 61 488 61 q 521 63 510 61 q 544 65 533 64 l 547 60 l 535 -4 q 469 -3 501 -4 q 412 -1 442 -1 q 358 0 382 0 q 304 -3 332 0 q 253 -8 276 -6 q 200 -17 226 -12 l 208 47 q 267 64 246 54 q 300 90 289 74 q 314 133 311 107 q 317 197 317 158 l 317 258 q 309 332 317 299 q 276 415 301 365 l 151 669 q 116 741 131 713 q 84 788 101 769 q 42 816 67 807 q -24 829 17 825 l -26 835 l -18 889 q 35 886 8 888 q 85 885 58 885 q 135 885 111 885 q 198 886 164 885 q 263 890 232 888 q 332 896 297 893 l 336 886 l 332 838 q 248 822 269 832 q 226 788 226 811 m 506 1007 q 463 1026 478 1007 q 449 1067 449 1044 q 468 1115 449 1094 q 518 1136 488 1136 q 560 1118 546 1136 q 575 1076 575 1100 q 556 1028 575 1049 q 506 1007 536 1007 m 275 1007 q 233 1026 247 1007 q 218 1067 218 1044 q 238 1115 218 1094 q 288 1136 257 1136 q 330 1118 315 1136 q 344 1076 344 1100 q 325 1028 344 1049 q 275 1007 306 1007 z "},"Ỳ":{"ha":747,"x_min":-26,"x_max":775,"o":"m 226 788 q 238 747 226 778 q 266 677 249 717 q 303 594 283 638 q 341 513 324 550 q 370 453 358 476 q 382 429 382 429 l 389 429 l 547 724 q 569 793 569 764 q 482 835 569 829 l 479 840 l 488 894 q 546 889 518 892 q 596 885 569 886 q 642 885 622 885 q 684 885 661 885 q 726 888 707 886 q 769 890 749 889 l 775 881 l 767 829 q 708 812 731 822 q 668 781 686 801 q 631 730 650 761 q 585 649 613 699 l 446 404 q 429 365 435 385 q 421 318 424 346 q 417 251 418 290 q 415 156 417 213 q 427 82 414 103 q 476 61 440 61 q 499 61 488 61 q 521 63 510 61 q 544 65 533 64 l 547 60 l 535 -4 q 469 -3 501 -4 q 412 -1 442 -1 q 358 0 382 0 q 304 -3 332 0 q 253 -8 276 -6 q 200 -17 226 -12 l 208 47 q 267 64 246 54 q 300 90 289 74 q 314 133 311 107 q 317 197 317 158 l 317 258 q 309 332 317 299 q 276 415 301 365 l 151 669 q 116 741 131 713 q 84 788 101 769 q 42 816 67 807 q -24 829 17 825 l -26 835 l -18 889 q 35 886 8 888 q 85 885 58 885 q 135 885 111 885 q 198 886 164 885 q 263 890 232 888 q 332 896 297 893 l 336 886 l 332 838 q 248 822 269 832 q 226 788 226 811 m 183 1093 l 206 1160 l 218 1168 q 307 1118 261 1143 q 397 1069 347 1096 q 494 1017 446 1042 l 486 983 l 475 976 q 369 1015 419 997 q 278 1049 318 1033 q 189 1079 232 1064 l 183 1093 z "},"Z":{"ha":789,"x_min":47,"x_max":728,"o":"m 667 -4 l 164 4 l 67 -4 l 47 40 l 565 824 l 325 815 q 244 802 276 813 q 189 769 211 792 q 155 712 167 747 q 138 624 143 676 l 72 618 q 83 706 78 660 q 92 792 88 744 q 97 889 96 840 l 111 901 l 354 886 l 713 876 l 728 836 q 542 581 629 706 q 384 351 454 456 q 264 168 314 246 q 192 56 214 90 l 474 65 q 590 122 546 67 q 657 296 633 176 l 722 303 q 707 210 714 257 q 695 119 700 169 q 688 18 690 68 l 667 -4 z "},"Ź":{"ha":789,"x_min":47,"x_max":728,"o":"m 667 -4 l 164 4 l 67 -4 l 47 40 l 565 824 l 325 815 q 244 802 276 813 q 189 769 211 792 q 155 712 167 747 q 138 624 143 676 l 72 618 q 83 706 78 660 q 92 792 88 744 q 97 889 96 840 l 111 901 l 354 886 l 713 876 l 728 836 q 542 581 629 706 q 384 351 454 456 q 264 168 314 246 q 192 56 214 90 l 474 65 q 590 122 546 67 q 657 296 633 176 l 722 303 q 707 210 714 257 q 695 119 700 169 q 688 18 690 68 l 667 -4 m 622 1079 q 533 1049 579 1064 q 442 1015 493 1033 q 336 976 390 997 l 325 983 l 317 1017 q 415 1069 365 1042 q 504 1118 464 1096 q 593 1168 550 1143 l 606 1160 l 628 1093 l 622 1079 z "},"Ž":{"ha":789,"x_min":47,"x_max":728,"o":"m 667 -4 l 164 4 l 67 -4 l 47 40 l 565 824 l 325 815 q 244 802 276 813 q 189 769 211 792 q 155 712 167 747 q 138 624 143 676 l 72 618 q 83 706 78 660 q 92 792 88 744 q 97 889 96 840 l 111 901 l 354 886 l 713 876 l 728 836 q 542 581 629 706 q 384 351 454 456 q 264 168 314 246 q 192 56 214 90 l 474 65 q 590 122 546 67 q 657 296 633 176 l 722 303 q 707 210 714 257 q 695 119 700 169 q 688 18 690 68 l 667 -4 m 607 1132 q 539 1079 572 1106 q 478 1029 506 1053 q 415 978 446 1003 l 396 978 q 333 1029 365 1003 q 272 1079 306 1053 q 204 1132 238 1106 l 224 1163 l 236 1164 q 331 1112 285 1136 q 406 1074 378 1088 q 480 1111 435 1088 q 575 1164 525 1135 l 588 1163 l 607 1132 z "},"Ż":{"ha":789,"x_min":47,"x_max":728,"o":"m 667 -4 l 164 4 l 67 -4 l 47 40 l 565 824 l 325 815 q 244 802 276 813 q 189 769 211 792 q 155 712 167 747 q 138 624 143 676 l 72 618 q 83 706 78 660 q 92 792 88 744 q 97 889 96 840 l 111 901 l 354 886 l 713 876 l 728 836 q 542 581 629 706 q 384 351 454 456 q 264 168 314 246 q 192 56 214 90 l 474 65 q 590 122 546 67 q 657 296 633 176 l 722 303 q 707 210 714 257 q 695 119 700 169 q 688 18 690 68 l 667 -4 m 399 999 q 347 1021 364 999 q 331 1069 331 1043 q 353 1127 331 1103 q 413 1151 376 1151 q 463 1130 446 1151 q 481 1081 481 1108 q 458 1023 481 1047 q 399 999 435 999 z "},"a":{"ha":647,"x_min":57,"x_max":638,"o":"m 396 406 q 364 515 396 476 q 274 553 332 553 q 210 542 239 553 q 157 518 181 531 q 107 483 131 503 l 100 488 l 83 547 q 174 596 131 574 q 248 629 210 614 q 310 644 286 644 q 452 597 401 644 q 503 465 503 550 q 499 406 503 446 q 490 317 494 365 q 482 223 486 269 q 478 146 478 176 q 535 82 478 82 q 567 87 551 82 q 593 99 582 92 q 618 117 607 106 l 638 94 q 603 47 621 69 q 565 10 586 28 q 517 -17 543 -8 q 393 96 403 -17 l 388 97 q 297 18 338 47 q 235 -11 256 -11 q 163 1 196 -11 q 107 37 131 14 q 70 92 83 60 q 57 161 57 124 q 77 232 57 201 q 131 272 97 263 l 393 344 l 396 406 m 390 292 l 203 235 q 163 176 163 222 q 190 110 163 136 q 258 83 217 83 q 320 102 285 83 q 385 150 356 121 l 390 292 z "},"á":{"ha":647,"x_min":57,"x_max":638,"o":"m 396 406 q 364 515 396 476 q 274 553 332 553 q 210 542 239 553 q 157 518 181 531 q 107 483 131 503 l 100 488 l 83 547 q 174 596 131 574 q 248 629 210 614 q 310 644 286 644 q 452 597 401 644 q 503 465 503 550 q 499 406 503 446 q 490 317 494 365 q 482 223 486 269 q 478 146 478 176 q 535 82 478 82 q 567 87 551 82 q 593 99 582 92 q 618 117 607 106 l 638 94 q 603 47 621 69 q 565 10 586 28 q 517 -17 543 -8 q 393 96 403 -17 l 388 97 q 297 18 338 47 q 235 -11 256 -11 q 163 1 196 -11 q 107 37 131 14 q 70 92 83 60 q 57 161 57 124 q 77 232 57 201 q 131 272 97 263 l 393 344 l 396 406 m 390 292 l 203 235 q 163 176 163 222 q 190 110 163 136 q 258 83 217 83 q 320 102 285 83 q 385 150 356 121 l 390 292 m 479 918 q 406 860 443 890 q 331 798 372 832 q 246 724 290 764 l 233 726 l 206 753 q 280 835 243 793 q 347 914 317 878 q 414 993 382 954 l 428 990 l 481 933 l 479 918 z "},"´":{"ha":553,"x_min":179,"x_max":454,"o":"m 453 918 q 379 860 417 890 q 305 798 346 832 q 219 724 264 764 l 207 726 l 179 753 q 253 835 217 793 q 321 914 290 878 q 388 993 356 954 l 401 990 l 454 933 l 453 918 z "},"ă":{"ha":647,"x_min":57,"x_max":638,"o":"m 396 406 q 364 515 396 476 q 274 553 332 553 q 210 542 239 553 q 157 518 181 531 q 107 483 131 503 l 100 488 l 83 547 q 174 596 131 574 q 248 629 210 614 q 310 644 286 644 q 452 597 401 644 q 503 465 503 550 q 499 406 503 446 q 490 317 494 365 q 482 223 486 269 q 478 146 478 176 q 535 82 478 82 q 567 87 551 82 q 593 99 582 92 q 618 117 607 106 l 638 94 q 603 47 621 69 q 565 10 586 28 q 517 -17 543 -8 q 393 96 403 -17 l 388 97 q 297 18 338 47 q 235 -11 256 -11 q 163 1 196 -11 q 107 37 131 14 q 70 92 83 60 q 57 161 57 124 q 77 232 57 201 q 131 272 97 263 l 393 344 l 396 406 m 390 292 l 203 235 q 163 176 163 222 q 190 110 163 136 q 258 83 217 83 q 320 102 285 83 q 385 150 356 121 l 390 292 m 306 856 q 385 878 350 856 q 439 947 421 901 l 450 947 l 472 933 q 451 876 465 904 q 417 825 438 847 q 369 789 397 803 q 306 775 342 775 q 242 789 269 775 q 194 825 214 803 q 160 876 174 847 q 139 933 146 904 l 161 947 l 172 947 q 226 878 190 901 q 306 856 261 856 z "},"˘":{"ha":553,"x_min":110,"x_max":443,"o":"m 276 856 q 356 878 321 856 q 410 947 392 901 l 421 947 l 443 933 q 422 876 436 904 q 388 825 408 847 q 340 789 368 803 q 276 775 313 775 q 213 789 240 775 q 165 825 185 803 q 131 876 144 847 q 110 933 117 904 l 132 947 l 143 947 q 197 878 161 901 q 276 856 232 856 z "},"â":{"ha":647,"x_min":57,"x_max":638,"o":"m 396 406 q 364 515 396 476 q 274 553 332 553 q 210 542 239 553 q 157 518 181 531 q 107 483 131 503 l 100 488 l 83 547 q 174 596 131 574 q 248 629 210 614 q 310 644 286 644 q 452 597 401 644 q 503 465 503 550 q 499 406 503 446 q 490 317 494 365 q 482 223 486 269 q 478 146 478 176 q 535 82 478 82 q 567 87 551 82 q 593 99 582 92 q 618 117 607 106 l 638 94 q 603 47 621 69 q 565 10 586 28 q 517 -17 543 -8 q 393 96 403 -17 l 388 97 q 297 18 338 47 q 235 -11 256 -11 q 163 1 196 -11 q 107 37 131 14 q 70 92 83 60 q 57 161 57 124 q 77 232 57 201 q 131 272 97 263 l 393 344 l 396 406 m 390 292 l 203 235 q 163 176 163 222 q 190 110 163 136 q 258 83 217 83 q 320 102 285 83 q 385 150 356 121 l 390 292 m 101 764 q 169 837 135 800 q 231 906 203 874 q 293 976 263 942 l 313 976 q 375 906 343 942 q 436 837 403 874 q 504 764 469 800 l 485 733 l 472 732 q 377 810 424 775 q 303 867 331 844 q 228 810 274 844 q 133 732 183 776 l 121 733 l 101 764 z "},"ˆ":{"ha":553,"x_min":75,"x_max":478,"o":"m 75 764 q 142 837 108 800 q 204 906 176 874 q 267 976 236 942 l 286 976 q 349 906 317 942 q 410 837 376 874 q 478 764 443 800 l 458 733 l 446 732 q 351 810 397 775 q 276 867 304 844 q 202 810 247 844 q 107 732 157 776 l 94 733 l 75 764 z "},"ä":{"ha":647,"x_min":57,"x_max":638,"o":"m 396 406 q 364 515 396 476 q 274 553 332 553 q 210 542 239 553 q 157 518 181 531 q 107 483 131 503 l 100 488 l 83 547 q 174 596 131 574 q 248 629 210 614 q 310 644 286 644 q 452 597 401 644 q 503 465 503 550 q 499 406 503 446 q 490 317 494 365 q 482 223 486 269 q 478 146 478 176 q 535 82 478 82 q 567 87 551 82 q 593 99 582 92 q 618 117 607 106 l 638 94 q 603 47 621 69 q 565 10 586 28 q 517 -17 543 -8 q 393 96 403 -17 l 388 97 q 297 18 338 47 q 235 -11 256 -11 q 163 1 196 -11 q 107 37 131 14 q 70 92 83 60 q 57 161 57 124 q 77 232 57 201 q 131 272 97 263 l 393 344 l 396 406 m 390 292 l 203 235 q 163 176 163 222 q 190 110 163 136 q 258 83 217 83 q 320 102 285 83 q 385 150 356 121 l 390 292 m 410 786 q 367 805 382 786 q 353 846 353 824 q 372 894 353 874 q 422 915 392 915 q 465 897 450 915 q 479 856 479 879 q 460 807 479 828 q 410 786 440 786 m 179 786 q 137 805 151 786 q 122 846 122 824 q 142 894 122 874 q 192 915 161 915 q 234 897 219 915 q 249 856 249 879 q 229 807 249 828 q 179 786 210 786 z "},"¨":{"ha":553,"x_min":97,"x_max":454,"o":"m 385 786 q 342 805 357 786 q 328 846 328 824 q 347 894 328 874 q 397 915 367 915 q 440 897 425 915 q 454 856 454 879 q 435 807 454 828 q 385 786 415 786 m 154 786 q 112 805 126 786 q 97 846 97 824 q 117 894 97 874 q 167 915 136 915 q 209 897 194 915 q 224 856 224 879 q 204 807 224 828 q 154 786 185 786 z "},"æ":{"ha":907,"x_min":42,"x_max":879,"o":"m 879 78 q 804 31 842 51 q 735 -2 772 13 q 667 -17 699 -17 q 513 22 579 -17 q 413 132 446 61 q 307 36 358 74 q 219 -11 256 -1 q 148 1 181 -11 q 92 37 115 14 q 55 92 68 60 q 42 161 42 124 q 62 231 42 201 q 115 271 82 261 l 381 343 l 382 413 q 351 520 382 483 q 263 557 321 557 q 197 545 228 557 q 143 519 167 533 q 92 483 115 504 l 85 488 l 68 547 q 160 596 115 574 q 234 629 196 614 q 294 644 272 644 q 467 533 431 644 q 563 615 507 586 q 678 644 618 644 q 817 592 767 644 q 868 447 868 540 q 867 435 868 442 q 865 421 867 429 l 853 401 l 478 313 q 499 215 482 258 q 542 139 515 171 q 606 90 569 107 q 685 72 642 72 q 747 79 717 72 q 801 96 778 86 q 856 121 829 107 l 864 118 l 879 78 m 188 235 q 153 212 164 228 q 143 176 143 196 q 171 108 143 138 q 236 79 199 79 q 306 103 265 79 q 396 174 347 128 q 379 292 379 225 l 188 235 m 476 364 l 719 433 q 747 458 747 442 q 719 535 747 504 q 646 567 690 567 q 523 514 569 567 q 476 374 476 461 l 476 364 z "},"à":{"ha":647,"x_min":57,"x_max":638,"o":"m 396 406 q 364 515 396 476 q 274 553 332 553 q 210 542 239 553 q 157 518 181 531 q 107 483 131 503 l 100 488 l 83 547 q 174 596 131 574 q 248 629 210 614 q 310 644 286 644 q 452 597 401 644 q 503 465 503 550 q 499 406 503 446 q 490 317 494 365 q 482 223 486 269 q 478 146 478 176 q 535 82 478 82 q 567 87 551 82 q 593 99 582 92 q 618 117 607 106 l 638 94 q 603 47 621 69 q 565 10 586 28 q 517 -17 543 -8 q 393 96 403 -17 l 388 97 q 297 18 338 47 q 235 -11 256 -11 q 163 1 196 -11 q 107 37 131 14 q 70 92 83 60 q 57 161 57 124 q 77 232 57 201 q 131 272 97 263 l 393 344 l 396 406 m 390 292 l 203 235 q 163 176 163 222 q 190 110 163 136 q 258 83 217 83 q 320 102 285 83 q 385 150 356 121 l 390 292 m 129 932 l 182 989 l 196 992 q 263 913 226 953 q 329 835 292 878 q 404 753 367 793 l 376 726 l 364 724 q 277 799 319 764 q 203 860 235 833 q 131 917 164 890 l 129 932 z "},"`":{"ha":553,"x_min":99,"x_max":374,"o":"m 99 932 l 151 989 l 165 992 q 232 913 196 953 q 299 835 261 878 q 374 753 336 793 l 346 726 l 333 724 q 247 799 289 764 q 172 860 204 833 q 100 917 133 890 l 99 932 z "},"ā":{"ha":647,"x_min":57,"x_max":638,"o":"m 396 406 q 364 515 396 476 q 274 553 332 553 q 210 542 239 553 q 157 518 181 531 q 107 483 131 503 l 100 488 l 83 547 q 174 596 131 574 q 248 629 210 614 q 310 644 286 644 q 452 597 401 644 q 503 465 503 550 q 499 406 503 446 q 490 317 494 365 q 482 223 486 269 q 478 146 478 176 q 535 82 478 82 q 567 87 551 82 q 593 99 582 92 q 618 117 607 106 l 638 94 q 603 47 621 69 q 565 10 586 28 q 517 -17 543 -8 q 393 96 403 -17 l 388 97 q 297 18 338 47 q 235 -11 256 -11 q 163 1 196 -11 q 107 37 131 14 q 70 92 83 60 q 57 161 57 124 q 77 232 57 201 q 131 272 97 263 l 393 344 l 396 406 m 390 292 l 203 235 q 163 176 163 222 q 190 110 163 136 q 258 83 217 83 q 320 102 285 83 q 385 150 356 121 l 390 292 m 510 893 l 500 828 l 303 826 q 237 826 271 826 q 172 825 203 825 l 103 825 l 94 838 l 108 900 q 185 899 147 899 l 322 899 q 379 899 349 899 q 438 903 410 900 q 501 907 469 904 l 510 893 z "},"¯":{"ha":553,"x_min":69,"x_max":485,"o":"m 485 893 l 475 828 l 278 826 q 212 826 246 826 q 147 825 178 825 l 78 825 l 69 838 l 83 900 q 160 899 122 899 l 297 899 q 354 899 324 899 q 413 903 385 900 q 476 907 444 904 l 485 893 z "},"ą":{"ha":647,"x_min":57,"x_max":657,"o":"m 657 -247 q 614 -282 638 -265 q 569 -312 594 -297 q 518 -335 544 -326 q 406 -300 447 -335 q 364 -204 364 -265 q 390 -123 364 -167 q 482 -12 417 -79 q 419 22 442 -6 q 393 96 396 50 q 390 97 392 96 q 388 97 389 97 q 297 18 338 47 q 235 -11 256 -11 q 163 1 196 -11 q 107 37 131 14 q 70 92 83 60 q 57 161 57 124 q 77 232 57 201 q 131 272 97 263 l 393 344 l 396 406 q 364 515 396 476 q 274 553 332 553 q 210 542 239 553 q 157 518 181 531 q 107 483 131 503 l 100 488 l 83 547 q 174 596 131 574 q 248 629 210 614 q 310 644 286 644 q 358 640 335 644 q 465 583 428 629 q 503 465 503 538 q 501 440 503 454 q 497 394 500 426 q 485 263 489 307 q 480 197 482 218 q 478 167 478 175 q 478 146 478 160 q 535 82 478 82 q 567 87 551 82 q 593 99 582 92 q 618 117 607 106 l 640 90 q 549 -9 585 32 q 491 -81 513 -50 q 460 -135 469 -112 q 451 -178 451 -157 q 474 -232 451 -211 q 532 -253 496 -253 q 571 -249 551 -253 q 606 -237 590 -244 q 639 -221 622 -231 l 657 -247 m 390 292 l 203 235 q 163 176 163 219 q 190 110 163 136 q 258 83 217 83 q 320 102 285 83 q 385 150 356 121 l 390 292 z "},"å":{"ha":647,"x_min":57,"x_max":638,"o":"m 396 406 q 364 515 396 476 q 274 553 332 553 q 210 542 239 553 q 157 518 181 531 q 107 483 131 503 l 100 488 l 83 547 q 174 596 131 574 q 248 629 210 614 q 310 644 286 644 q 452 597 401 644 q 503 465 503 550 q 499 406 503 446 q 490 317 494 365 q 482 223 486 269 q 478 146 478 176 q 535 82 478 82 q 567 87 551 82 q 593 99 582 92 q 618 117 607 106 l 638 94 q 603 47 621 69 q 565 10 586 28 q 517 -17 543 -8 q 393 96 403 -17 l 388 97 q 297 18 338 47 q 235 -11 256 -11 q 163 1 196 -11 q 107 37 131 14 q 70 92 83 60 q 57 161 57 124 q 77 232 57 201 q 131 272 97 263 l 393 344 l 396 406 m 390 292 l 203 235 q 163 176 163 222 q 190 110 163 136 q 258 83 217 83 q 320 102 285 83 q 385 150 356 121 l 390 292 m 306 808 q 324 810 314 808 q 344 817 335 811 q 360 833 354 822 q 367 863 367 844 q 349 910 367 892 q 296 929 331 929 q 250 915 265 929 q 235 875 235 900 q 259 824 235 839 q 306 808 283 808 m 296 756 q 217 787 244 756 q 190 867 190 818 q 222 950 190 917 q 307 983 254 983 q 356 974 336 983 q 389 951 376 965 q 408 917 401 936 q 414 878 414 897 q 383 792 414 829 q 296 756 353 756 z "},"˚":{"ha":553,"x_min":164,"x_max":388,"o":"m 279 808 q 298 810 288 808 q 318 817 308 811 q 334 833 328 822 q 340 863 340 844 q 322 910 340 892 q 269 929 304 929 q 224 915 239 929 q 208 875 208 900 q 233 824 208 839 q 279 808 257 808 m 269 756 q 191 787 218 756 q 164 867 164 818 q 196 950 164 917 q 281 983 228 983 q 330 974 310 983 q 363 951 350 965 q 381 917 375 936 q 388 878 388 897 q 357 792 388 829 q 269 756 326 756 z "},"ã":{"ha":647,"x_min":57,"x_max":638,"o":"m 396 406 q 364 515 396 476 q 274 553 332 553 q 210 542 239 553 q 157 518 181 531 q 107 483 131 503 l 100 488 l 83 547 q 174 596 131 574 q 248 629 210 614 q 310 644 286 644 q 452 597 401 644 q 503 465 503 550 q 499 406 503 446 q 490 317 494 365 q 482 223 486 269 q 478 146 478 176 q 535 82 478 82 q 567 87 551 82 q 593 99 582 92 q 618 117 607 106 l 638 94 q 603 47 621 69 q 565 10 586 28 q 517 -17 543 -8 q 393 96 403 -17 l 388 97 q 297 18 338 47 q 235 -11 256 -11 q 163 1 196 -11 q 107 37 131 14 q 70 92 83 60 q 57 161 57 124 q 77 232 57 201 q 131 272 97 263 l 393 344 l 396 406 m 390 292 l 203 235 q 163 176 163 222 q 190 110 163 136 q 258 83 217 83 q 320 102 285 83 q 385 150 356 121 l 390 292 m 104 765 l 74 794 l 74 801 l 179 925 l 201 931 q 247 924 218 931 q 306 908 275 917 q 363 892 336 899 q 404 885 389 885 q 431 896 415 885 q 460 922 446 907 q 492 961 475 939 l 500 961 l 531 932 l 531 925 l 425 801 l 403 796 q 358 803 386 796 q 299 819 329 810 q 241 835 268 828 q 200 842 214 842 q 172 830 188 842 q 143 803 157 818 q 113 765 128 786 l 104 765 z "},"˜":{"ha":553,"x_min":49,"x_max":506,"o":"m 79 765 l 49 794 l 49 801 l 154 925 l 176 931 q 222 924 193 931 q 281 908 250 917 q 338 892 311 899 q 379 885 364 885 q 406 896 390 885 q 435 922 421 907 q 467 961 450 939 l 475 961 l 506 932 l 506 925 l 400 801 l 378 796 q 333 803 361 796 q 274 819 304 810 q 216 835 243 828 q 175 842 189 842 q 147 830 163 842 q 118 803 132 818 q 88 765 103 786 l 79 765 z "},"b":{"ha":706,"x_min":32,"x_max":656,"o":"m 118 869 q 67 944 118 944 q 46 942 57 944 q 36 940 40 940 l 32 944 l 38 990 q 110 1001 74 994 q 176 1015 147 1008 q 243 1031 211 1022 l 251 1013 q 242 969 247 1006 q 233 871 238 932 q 226 727 229 810 q 219 547 222 644 q 328 619 283 593 q 388 644 372 644 q 497 623 447 644 q 581 562 546 601 q 636 468 617 522 q 656 347 656 414 q 628 205 656 271 q 554 90 601 139 q 444 12 507 40 q 310 -17 382 -17 q 242 -14 274 -17 q 185 -8 210 -11 q 131 0 156 -4 l 118 11 l 118 869 m 213 89 q 276 68 238 76 q 349 60 315 60 q 495 123 442 60 q 549 296 549 186 q 535 395 549 349 q 496 476 521 442 q 438 530 471 510 q 365 550 404 550 q 295 528 338 550 q 217 475 253 507 l 213 89 z "},"c":{"ha":589,"x_min":50,"x_max":538,"o":"m 515 119 l 531 76 q 461 29 496 50 q 399 -3 432 11 q 340 -17 365 -17 q 220 5 274 -17 q 129 67 167 26 q 71 164 92 107 q 50 290 50 221 q 74 430 50 365 q 142 542 99 494 q 244 617 185 590 q 371 644 303 644 q 433 640 404 644 q 485 631 463 636 q 533 618 510 625 l 538 608 q 525 553 531 583 q 515 492 519 526 q 508 417 510 457 l 451 413 l 451 456 q 420 538 451 507 q 338 569 389 569 q 206 510 251 569 q 161 338 161 450 q 212 146 161 215 q 350 76 263 76 q 407 83 379 76 q 457 99 435 90 q 507 122 482 108 l 515 119 z "},"ć":{"ha":589,"x_min":50,"x_max":538,"o":"m 515 119 l 531 76 q 461 29 496 50 q 399 -3 432 11 q 340 -17 365 -17 q 220 5 274 -17 q 129 67 167 26 q 71 164 92 107 q 50 290 50 221 q 74 430 50 365 q 142 542 99 494 q 244 617 185 590 q 371 644 303 644 q 433 640 404 644 q 485 631 463 636 q 533 618 510 625 l 538 608 q 525 553 531 583 q 515 492 519 526 q 508 417 510 457 l 451 413 l 451 456 q 420 538 451 507 q 338 569 389 569 q 206 510 251 569 q 161 338 161 450 q 212 146 161 215 q 350 76 263 76 q 407 83 379 76 q 457 99 435 90 q 507 122 482 108 l 515 119 m 518 918 q 444 860 482 890 q 370 798 411 832 q 285 724 329 764 l 272 726 l 244 753 q 319 835 282 793 q 386 914 356 878 q 453 993 421 954 l 467 990 l 519 933 l 518 918 z "},"č":{"ha":589,"x_min":50,"x_max":551,"o":"m 515 119 l 531 76 q 461 29 496 50 q 399 -3 432 11 q 340 -17 365 -17 q 220 5 274 -17 q 129 67 167 26 q 71 164 92 107 q 50 290 50 221 q 74 430 50 365 q 142 542 99 494 q 244 617 185 590 q 371 644 303 644 q 433 640 404 644 q 485 631 463 636 q 533 618 510 625 l 538 608 q 525 553 531 583 q 515 492 519 526 q 508 417 510 457 l 451 413 l 451 456 q 420 538 451 507 q 338 569 389 569 q 206 510 251 569 q 161 338 161 450 q 212 146 161 215 q 350 76 263 76 q 407 83 379 76 q 457 99 435 90 q 507 122 482 108 l 515 119 m 151 985 l 163 986 q 263 904 215 940 q 340 846 310 868 q 417 905 369 868 q 518 986 465 942 l 529 985 l 551 953 q 480 876 515 915 q 415 804 444 836 q 350 731 381 767 l 331 731 q 265 804 300 767 q 201 876 236 836 q 129 953 165 915 l 151 985 z "},"ˇ":{"ha":553,"x_min":65,"x_max":488,"o":"m 88 985 l 99 986 q 199 904 151 940 q 276 846 246 868 q 353 905 306 868 q 454 986 401 942 l 465 985 l 488 953 q 416 876 451 915 q 351 804 381 836 q 286 731 317 767 l 267 731 q 201 804 236 767 q 137 876 172 836 q 65 953 101 915 l 88 985 z "},"ç":{"ha":589,"x_min":50,"x_max":538,"o":"m 296 -14 q 116 81 182 0 q 50 290 50 161 q 74 430 50 365 q 142 542 99 494 q 244 617 185 590 q 371 644 303 644 q 433 640 404 644 q 485 631 463 636 q 533 618 510 625 l 538 608 q 525 553 531 583 q 515 492 519 526 q 508 417 510 457 l 451 413 l 451 456 q 420 538 451 507 q 338 569 389 569 q 206 510 251 569 q 161 338 161 450 q 212 146 161 215 q 350 76 263 76 q 407 83 379 76 q 457 99 435 90 q 507 122 482 108 l 515 119 l 531 76 q 468 35 500 54 q 410 3 440 18 q 353 -15 379 -12 l 335 -69 q 372 -95 351 -82 q 411 -124 393 -108 q 441 -156 429 -139 q 453 -193 453 -174 q 438 -244 453 -221 q 398 -285 422 -268 q 344 -313 374 -303 q 286 -324 315 -324 q 254 -320 271 -324 q 224 -310 238 -317 q 201 -295 210 -304 q 192 -274 192 -286 q 203 -236 192 -260 q 226 -196 215 -212 l 239 -196 q 261 -255 240 -235 q 315 -275 282 -275 q 363 -260 343 -275 q 382 -222 382 -246 q 372 -197 382 -210 q 344 -169 361 -183 q 306 -143 326 -156 q 264 -118 285 -131 l 296 -14 z "},"ċ":{"ha":589,"x_min":50,"x_max":538,"o":"m 515 119 l 531 76 q 461 29 496 50 q 399 -3 432 11 q 340 -17 365 -17 q 220 5 274 -17 q 129 67 167 26 q 71 164 92 107 q 50 290 50 221 q 74 430 50 365 q 142 542 99 494 q 244 617 185 590 q 371 644 303 644 q 433 640 404 644 q 485 631 463 636 q 533 618 510 625 l 538 608 q 525 553 531 583 q 515 492 519 526 q 508 417 510 457 l 451 413 l 451 456 q 420 538 451 507 q 338 569 389 569 q 206 510 251 569 q 161 338 161 450 q 212 146 161 215 q 350 76 263 76 q 407 83 379 76 q 457 99 435 90 q 507 122 482 108 l 515 119 m 332 836 q 281 858 297 836 q 264 907 264 881 q 287 965 264 940 q 346 989 310 989 q 397 967 379 989 q 414 918 414 946 q 391 860 414 885 q 332 836 368 836 z "},"˙":{"ha":553,"x_min":201,"x_max":351,"o":"m 269 836 q 218 858 235 836 q 201 907 201 881 q 224 965 201 940 q 283 989 247 989 q 334 967 317 989 q 351 918 351 946 q 328 860 351 885 q 269 836 306 836 z "},"d":{"ha":746,"x_min":50,"x_max":746,"o":"m 492 86 q 318 -12 347 -12 q 209 8 258 -12 q 124 68 160 29 q 69 161 89 107 q 50 281 50 215 q 77 422 50 356 q 151 538 104 488 q 262 616 199 588 q 396 644 325 644 q 439 643 415 644 q 492 639 463 642 l 492 869 q 440 944 492 944 q 417 942 431 944 q 406 939 411 940 l 411 990 q 484 1001 447 994 q 550 1015 521 1008 q 617 1031 585 1022 l 625 1013 q 611 921 618 1000 q 599 720 604 842 q 590 449 593 599 q 586 146 586 299 q 643 82 586 82 q 675 87 660 82 q 701 99 690 92 q 726 117 715 106 l 746 94 q 710 46 729 68 q 671 8 693 26 q 625 -17 649 -10 q 501 82 517 -17 l 492 86 m 492 532 q 456 547 476 540 q 413 559 438 554 q 357 564 389 564 q 210 501 264 564 q 157 328 157 438 q 171 229 157 275 q 210 150 185 183 q 268 97 235 117 q 340 78 301 78 q 392 89 365 78 q 440 114 418 100 q 492 151 465 129 l 492 532 z "},"ď":{"ha":763,"x_min":50,"x_max":804,"o":"m 492 86 q 318 -12 347 -12 q 209 8 258 -12 q 124 68 160 29 q 69 161 89 107 q 50 281 50 215 q 77 422 50 356 q 151 538 104 488 q 262 616 199 588 q 396 644 325 644 q 439 643 415 644 q 492 639 463 642 l 492 869 q 440 944 492 944 q 417 942 431 944 q 406 939 411 940 l 411 990 q 484 1001 447 994 q 550 1015 521 1008 q 617 1031 585 1022 l 625 1013 q 611 921 618 1000 q 599 720 604 842 q 590 449 593 599 q 586 146 586 299 q 643 82 586 82 q 675 87 660 82 q 701 99 690 92 q 726 117 715 106 l 746 94 q 710 46 729 68 q 671 8 693 26 q 625 -17 649 -10 q 501 82 517 -17 l 492 86 m 492 532 q 456 547 476 540 q 413 559 438 554 q 357 564 389 564 q 210 501 264 564 q 157 328 157 438 q 171 229 157 275 q 210 150 185 183 q 268 97 235 117 q 340 78 301 78 q 392 89 365 78 q 440 114 418 100 q 492 151 465 129 l 492 532 m 804 974 q 790 879 797 928 q 775 785 783 838 q 756 679 767 732 l 721 660 l 706 663 q 707 774 708 721 q 703 871 706 828 q 697 965 700 921 l 794 985 l 804 974 z "},"ı":{"ha":392,"x_min":58,"x_max":339,"o":"m 67 40 q 126 73 108 51 q 144 131 144 94 l 144 483 q 93 558 144 558 q 69 556 83 558 q 58 553 64 554 l 64 604 q 134 616 99 610 q 199 629 169 622 q 264 644 233 636 l 271 628 q 258 565 264 613 q 249 449 253 517 q 242 299 244 381 q 239 136 239 218 q 288 58 239 58 q 303 58 294 58 q 318 60 311 58 q 336 61 326 60 l 339 56 l 328 -4 q 285 -3 307 -4 q 244 -1 265 -1 q 204 0 224 0 q 157 -3 182 0 q 111 -8 132 -6 q 61 -17 86 -12 l 67 40 z "},"e":{"ha":622,"x_min":50,"x_max":564,"o":"m 411 422 q 439 432 432 425 q 446 460 446 439 q 416 544 446 515 q 331 574 386 574 q 219 530 265 574 q 160 410 172 486 l 411 422 m 154 358 l 154 336 q 169 230 154 278 q 210 149 183 182 q 276 97 238 115 q 360 78 314 78 q 423 84 392 78 q 478 99 454 90 q 531 121 506 108 l 539 118 l 554 78 q 479 31 517 51 q 410 -2 447 13 q 342 -17 374 -17 q 222 6 276 -17 q 130 68 168 28 q 71 165 92 108 q 50 290 50 221 q 75 426 50 361 q 142 539 100 490 q 239 616 183 588 q 357 644 294 644 q 564 443 564 644 q 561 405 563 414 q 556 375 560 396 l 538 358 l 154 358 z "},"é":{"ha":622,"x_min":50,"x_max":564,"o":"m 411 422 q 439 432 432 425 q 446 460 446 439 q 416 544 446 515 q 331 574 386 574 q 219 530 265 574 q 160 410 172 486 l 411 422 m 154 358 l 154 336 q 169 230 154 278 q 210 149 183 182 q 276 97 238 115 q 360 78 314 78 q 423 84 392 78 q 478 99 454 90 q 531 121 506 108 l 539 118 l 554 78 q 479 31 517 51 q 410 -2 447 13 q 342 -17 374 -17 q 222 6 276 -17 q 130 68 168 28 q 71 165 92 108 q 50 290 50 221 q 75 426 50 361 q 142 539 100 490 q 239 616 183 588 q 357 644 294 644 q 564 443 564 644 q 561 405 563 414 q 556 375 560 396 l 538 358 l 154 358 m 513 918 q 439 860 476 890 q 365 798 406 832 q 279 724 324 764 l 267 726 l 239 753 q 313 835 276 793 q 381 914 350 878 q 447 993 415 954 l 461 990 l 514 933 l 513 918 z "},"ě":{"ha":622,"x_min":50,"x_max":564,"o":"m 411 422 q 439 432 432 425 q 446 460 446 439 q 416 544 446 515 q 331 574 386 574 q 219 530 265 574 q 160 410 172 486 l 411 422 m 154 358 l 154 336 q 169 230 154 278 q 210 149 183 182 q 276 97 238 115 q 360 78 314 78 q 423 84 392 78 q 478 99 454 90 q 531 121 506 108 l 539 118 l 554 78 q 479 31 517 51 q 410 -2 447 13 q 342 -17 374 -17 q 222 6 276 -17 q 130 68 168 28 q 71 165 92 108 q 50 290 50 221 q 75 426 50 361 q 142 539 100 490 q 239 616 183 588 q 357 644 294 644 q 564 443 564 644 q 561 405 563 414 q 556 375 560 396 l 538 358 l 154 358 m 150 985 l 161 986 q 261 904 214 940 q 339 846 308 868 q 416 905 368 868 q 517 986 464 942 l 528 985 l 550 953 q 478 876 514 915 q 414 804 443 836 q 349 731 379 767 l 329 731 q 264 804 299 767 q 199 876 235 836 q 128 953 164 915 l 150 985 z "},"ê":{"ha":622,"x_min":50,"x_max":564,"o":"m 411 422 q 439 432 432 425 q 446 460 446 439 q 416 544 446 515 q 331 574 386 574 q 219 530 265 574 q 160 410 172 486 l 411 422 m 154 358 l 154 336 q 169 230 154 278 q 210 149 183 182 q 276 97 238 115 q 360 78 314 78 q 423 84 392 78 q 478 99 454 90 q 531 121 506 108 l 539 118 l 554 78 q 479 31 517 51 q 410 -2 447 13 q 342 -17 374 -17 q 222 6 276 -17 q 130 68 168 28 q 71 165 92 108 q 50 290 50 221 q 75 426 50 361 q 142 539 100 490 q 239 616 183 588 q 357 644 294 644 q 564 443 564 644 q 561 405 563 414 q 556 375 560 396 l 538 358 l 154 358 m 135 764 q 202 837 168 800 q 264 906 236 874 q 326 976 296 942 l 346 976 q 408 906 376 942 q 469 837 436 874 q 538 764 503 800 l 518 733 l 506 732 q 410 810 457 775 q 336 867 364 844 q 262 810 307 844 q 167 732 217 776 l 154 733 l 135 764 z "},"ë":{"ha":622,"x_min":50,"x_max":564,"o":"m 411 422 q 439 432 432 425 q 446 460 446 439 q 416 544 446 515 q 331 574 386 574 q 219 530 265 574 q 160 410 172 486 l 411 422 m 154 358 l 154 336 q 169 230 154 278 q 210 149 183 182 q 276 97 238 115 q 360 78 314 78 q 423 84 392 78 q 478 99 454 90 q 531 121 506 108 l 539 118 l 554 78 q 479 31 517 51 q 410 -2 447 13 q 342 -17 374 -17 q 222 6 276 -17 q 130 68 168 28 q 71 165 92 108 q 50 290 50 221 q 75 426 50 361 q 142 539 100 490 q 239 616 183 588 q 357 644 294 644 q 564 443 564 644 q 561 405 563 414 q 556 375 560 396 l 538 358 l 154 358 m 443 786 q 401 805 415 786 q 386 846 386 824 q 406 894 386 874 q 456 915 425 915 q 498 897 483 915 q 513 856 513 879 q 493 807 513 828 q 443 786 474 786 m 213 786 q 170 805 185 786 q 156 846 156 824 q 175 894 156 874 q 225 915 194 915 q 267 897 253 915 q 282 856 282 879 q 263 807 282 828 q 213 786 243 786 z "},"ė":{"ha":622,"x_min":50,"x_max":564,"o":"m 411 422 q 439 432 432 425 q 446 460 446 439 q 416 544 446 515 q 331 574 386 574 q 219 530 265 574 q 160 410 172 486 l 411 422 m 154 358 l 154 336 q 169 230 154 278 q 210 149 183 182 q 276 97 238 115 q 360 78 314 78 q 423 84 392 78 q 478 99 454 90 q 531 121 506 108 l 539 118 l 554 78 q 479 31 517 51 q 410 -2 447 13 q 342 -17 374 -17 q 222 6 276 -17 q 130 68 168 28 q 71 165 92 108 q 50 290 50 221 q 75 426 50 361 q 142 539 100 490 q 239 616 183 588 q 357 644 294 644 q 564 443 564 644 q 561 405 563 414 q 556 375 560 396 l 538 358 l 154 358 m 329 836 q 278 858 294 836 q 261 907 261 881 q 284 965 261 940 q 343 989 307 989 q 394 967 376 989 q 411 918 411 946 q 388 860 411 885 q 329 836 365 836 z "},"è":{"ha":622,"x_min":50,"x_max":564,"o":"m 411 422 q 439 432 432 425 q 446 460 446 439 q 416 544 446 515 q 331 574 386 574 q 219 530 265 574 q 160 410 172 486 l 411 422 m 154 358 l 154 336 q 169 230 154 278 q 210 149 183 182 q 276 97 238 115 q 360 78 314 78 q 423 84 392 78 q 478 99 454 90 q 531 121 506 108 l 539 118 l 554 78 q 479 31 517 51 q 410 -2 447 13 q 342 -17 374 -17 q 222 6 276 -17 q 130 68 168 28 q 71 165 92 108 q 50 290 50 221 q 75 426 50 361 q 142 539 100 490 q 239 616 183 588 q 357 644 294 644 q 564 443 564 644 q 561 405 563 414 q 556 375 560 396 l 538 358 l 154 358 m 161 932 l 214 989 l 228 992 q 294 913 258 953 q 361 835 324 878 q 436 753 399 793 l 408 726 l 396 724 q 309 799 351 764 q 235 860 267 833 q 163 917 196 890 l 161 932 z "},"ē":{"ha":622,"x_min":50,"x_max":564,"o":"m 411 422 q 439 432 432 425 q 446 460 446 439 q 416 544 446 515 q 331 574 386 574 q 219 530 265 574 q 160 410 172 486 l 411 422 m 154 358 l 154 336 q 169 230 154 278 q 210 149 183 182 q 276 97 238 115 q 360 78 314 78 q 423 84 392 78 q 478 99 454 90 q 531 121 506 108 l 539 118 l 554 78 q 479 31 517 51 q 410 -2 447 13 q 342 -17 374 -17 q 222 6 276 -17 q 130 68 168 28 q 71 165 92 108 q 50 290 50 221 q 75 426 50 361 q 142 539 100 490 q 239 616 183 588 q 357 644 294 644 q 564 443 564 644 q 561 405 563 414 q 556 375 560 396 l 538 358 l 154 358 m 543 893 l 533 828 l 336 826 q 270 826 304 826 q 206 825 236 825 l 136 825 l 128 838 l 142 900 q 218 899 181 899 l 356 899 q 413 899 382 899 q 471 903 443 900 q 535 907 503 904 l 543 893 z "},"ŋ":{"ha":740,"x_min":54,"x_max":643,"o":"m 453 644 q 592 597 540 644 q 643 465 643 549 l 628 133 q 610 11 624 64 q 572 -81 597 -42 q 505 -149 546 -121 q 406 -200 464 -178 l 382 -154 l 386 -143 q 457 -95 429 -119 q 501 -40 485 -71 q 525 33 518 -8 q 533 131 532 74 l 535 406 q 505 513 535 475 q 419 550 475 550 q 368 542 394 550 q 319 522 342 533 q 277 498 296 510 q 249 478 258 486 q 245 392 247 442 q 241 292 243 342 q 238 199 239 242 q 236 136 236 157 q 247 76 236 93 q 286 58 258 58 q 301 58 293 58 q 317 60 310 58 q 335 61 325 60 l 338 56 l 325 -4 q 281 -3 303 -4 q 240 -1 261 -1 q 199 0 218 0 q 152 -1 176 0 q 108 -4 128 -3 q 61 -8 83 -7 l 68 49 q 125 74 108 56 q 142 131 142 92 l 142 469 q 126 535 142 517 q 74 554 111 554 l 58 554 l 54 560 l 58 606 q 129 618 94 611 q 192 632 164 625 q 253 646 224 639 l 261 635 q 254 607 257 622 q 249 578 251 594 q 246 543 247 561 l 249 539 q 288 565 261 547 q 347 600 315 582 q 407 631 378 618 q 453 644 436 644 z "},"ę":{"ha":622,"x_min":50,"x_max":576,"o":"m 576 -247 q 533 -282 557 -265 q 489 -312 514 -297 q 438 -335 464 -326 q 326 -301 369 -335 q 283 -204 283 -267 q 321 -106 283 -156 q 415 0 358 -56 q 377 -12 396 -7 q 342 -17 358 -17 q 222 6 276 -17 q 130 68 168 28 q 71 165 92 108 q 50 290 50 221 q 75 426 50 361 q 142 539 100 490 q 239 616 183 588 q 357 644 294 644 q 564 443 564 644 q 563 417 564 429 q 560 396 561 406 q 556 375 557 385 l 538 358 l 154 358 l 154 336 q 169 230 154 278 q 210 149 183 182 q 276 97 238 115 q 360 78 314 78 q 423 84 392 78 q 478 99 454 90 q 531 121 506 108 l 539 118 l 554 78 l 553 76 q 471 -6 506 29 q 414 -69 436 -40 q 381 -124 392 -99 q 371 -178 371 -150 q 393 -231 371 -210 q 451 -253 415 -253 q 490 -249 471 -253 q 525 -237 510 -244 q 558 -221 542 -231 l 576 -247 m 411 422 q 439 432 432 425 q 446 460 446 439 q 416 544 446 515 q 331 574 386 574 q 219 530 265 574 q 160 410 172 486 l 411 422 z "},"ð":{"ha":706,"x_min":60,"x_max":646,"o":"m 581 954 l 586 914 l 418 832 q 588 602 529 728 q 646 336 646 476 q 622 197 646 261 q 557 85 599 133 q 459 10 515 38 q 338 -17 403 -17 q 225 6 276 -17 q 137 67 174 28 q 80 163 100 107 q 60 286 60 219 q 84 419 60 357 q 151 528 108 482 q 249 602 193 575 q 369 629 306 629 q 403 624 385 629 q 438 611 422 618 q 472 593 456 603 l 475 596 q 419 701 451 651 q 343 794 386 750 l 158 706 l 146 710 l 140 751 l 304 832 q 74 978 207 915 l 94 1024 l 108 1029 q 378 868 263 963 l 569 961 l 581 954 m 532 286 q 507 497 532 399 q 452 533 490 513 q 347 554 414 554 q 217 494 264 554 q 171 326 171 435 q 186 215 171 265 q 228 128 201 164 q 293 72 256 92 q 376 51 331 51 q 490 115 449 51 q 532 286 532 178 z "},"f":{"ha":458,"x_min":57,"x_max":631,"o":"m 57 571 l 67 618 l 150 633 l 150 639 q 173 802 150 729 q 238 926 196 875 q 338 1003 279 976 q 469 1031 396 1031 q 534 1026 506 1031 q 583 1017 563 1022 q 628 1004 608 1011 l 631 992 q 617 965 624 981 q 602 937 610 953 q 588 901 594 921 l 572 897 q 526 922 551 911 q 475 940 504 932 q 413 949 446 949 q 253 692 257 949 l 251 624 q 322 624 288 624 q 385 625 357 624 q 443 628 417 626 l 447 624 l 433 550 q 378 551 407 550 q 319 553 353 553 q 250 554 286 554 l 244 136 q 315 60 244 60 q 349 60 333 60 q 375 61 364 60 q 399 63 389 61 l 401 57 l 392 -3 q 326 -1 358 -3 q 269 -1 299 -1 q 219 0 239 0 q 163 -1 190 0 q 113 -3 135 -1 q 64 -6 88 -4 l 71 49 q 150 131 150 58 l 150 506 q 131 549 147 539 q 63 563 114 560 l 57 571 z "},"g":{"ha":700,"x_min":72,"x_max":676,"o":"m 317 181 q 278 183 297 181 q 236 192 258 186 q 178 131 178 160 q 218 82 178 99 q 344 63 258 65 q 573 20 506 54 q 640 -86 640 -14 q 611 -179 640 -135 q 534 -259 582 -224 q 424 -315 486 -294 q 296 -336 363 -336 q 141 -287 196 -336 q 86 -151 86 -239 q 126 -106 103 -128 q 172 -67 150 -85 q 224 -26 197 -46 l 224 -18 q 164 -1 192 -14 q 116 29 136 11 q 84 70 96 47 q 72 118 72 93 q 108 151 88 135 q 147 179 129 167 q 189 207 168 194 l 189 213 q 113 287 140 239 q 86 397 86 335 q 107 492 86 447 q 163 570 128 536 q 246 624 199 604 q 344 644 293 644 q 419 637 385 644 q 481 629 453 629 q 540 639 507 632 q 603 653 574 646 q 672 671 638 661 l 676 665 l 661 588 q 624 583 643 586 q 585 578 607 581 q 542 575 564 576 l 536 568 q 592 428 592 506 q 570 330 592 375 q 512 251 549 285 q 425 199 475 218 q 317 181 375 181 m 350 242 q 451 282 414 242 q 488 393 488 322 q 443 524 488 474 q 328 574 399 574 q 227 533 264 574 q 190 421 190 492 q 234 291 190 340 q 350 242 278 242 m 347 -268 q 424 -257 388 -268 q 490 -226 461 -246 q 535 -183 518 -207 q 551 -131 551 -158 q 540 -96 551 -110 q 499 -70 529 -82 q 417 -49 469 -58 q 281 -28 364 -39 q 238 -68 256 -47 q 208 -108 221 -86 q 194 -154 194 -131 q 235 -237 194 -207 q 347 -268 275 -268 z "},"ğ":{"ha":700,"x_min":72,"x_max":676,"o":"m 317 181 q 278 183 297 181 q 236 192 258 186 q 178 131 178 160 q 218 82 178 99 q 344 63 258 65 q 573 20 506 54 q 640 -86 640 -14 q 611 -179 640 -135 q 534 -259 582 -224 q 424 -315 486 -294 q 296 -336 363 -336 q 141 -287 196 -336 q 86 -151 86 -239 q 126 -106 103 -128 q 172 -67 150 -85 q 224 -26 197 -46 l 224 -18 q 164 -1 192 -14 q 116 29 136 11 q 84 70 96 47 q 72 118 72 93 q 108 151 88 135 q 147 179 129 167 q 189 207 168 194 l 189 213 q 113 287 140 239 q 86 397 86 335 q 107 492 86 447 q 163 570 128 536 q 246 624 199 604 q 344 644 293 644 q 419 637 385 644 q 481 629 453 629 q 540 639 507 632 q 603 653 574 646 q 672 671 638 661 l 676 665 l 661 588 q 624 583 643 586 q 585 578 607 581 q 542 575 564 576 l 536 568 q 592 428 592 506 q 570 330 592 375 q 512 251 549 285 q 425 199 475 218 q 317 181 375 181 m 350 242 q 451 282 414 242 q 488 393 488 322 q 443 524 488 474 q 328 574 399 574 q 227 533 264 574 q 190 421 190 492 q 234 291 190 340 q 350 242 278 242 m 347 -268 q 424 -257 388 -268 q 490 -226 461 -246 q 535 -183 518 -207 q 551 -131 551 -158 q 540 -96 551 -110 q 499 -70 529 -82 q 417 -49 469 -58 q 281 -28 364 -39 q 238 -68 256 -47 q 208 -108 221 -86 q 194 -154 194 -131 q 235 -237 194 -207 q 347 -268 275 -268 m 346 856 q 426 878 390 856 q 479 947 461 901 l 490 947 l 513 933 q 492 876 506 904 q 458 825 478 847 q 410 789 438 803 q 346 775 382 775 q 282 789 310 775 q 234 825 254 803 q 200 876 214 847 q 179 933 186 904 l 201 947 l 213 947 q 266 878 231 901 q 346 856 301 856 z "},"ġ":{"ha":700,"x_min":72,"x_max":676,"o":"m 317 181 q 278 183 297 181 q 236 192 258 186 q 178 131 178 160 q 218 82 178 99 q 344 63 258 65 q 573 20 506 54 q 640 -86 640 -14 q 611 -179 640 -135 q 534 -259 582 -224 q 424 -315 486 -294 q 296 -336 363 -336 q 141 -287 196 -336 q 86 -151 86 -239 q 126 -106 103 -128 q 172 -67 150 -85 q 224 -26 197 -46 l 224 -18 q 164 -1 192 -14 q 116 29 136 11 q 84 70 96 47 q 72 118 72 93 q 108 151 88 135 q 147 179 129 167 q 189 207 168 194 l 189 213 q 113 287 140 239 q 86 397 86 335 q 107 492 86 447 q 163 570 128 536 q 246 624 199 604 q 344 644 293 644 q 419 637 385 644 q 481 629 453 629 q 540 639 507 632 q 603 653 574 646 q 672 671 638 661 l 676 665 l 661 588 q 624 583 643 586 q 585 578 607 581 q 542 575 564 576 l 536 568 q 592 428 592 506 q 570 330 592 375 q 512 251 549 285 q 425 199 475 218 q 317 181 375 181 m 350 242 q 451 282 414 242 q 488 393 488 322 q 443 524 488 474 q 328 574 399 574 q 227 533 264 574 q 190 421 190 492 q 234 291 190 340 q 350 242 278 242 m 347 -268 q 424 -257 388 -268 q 490 -226 461 -246 q 535 -183 518 -207 q 551 -131 551 -158 q 540 -96 551 -110 q 499 -70 529 -82 q 417 -49 469 -58 q 281 -28 364 -39 q 238 -68 256 -47 q 208 -108 221 -86 q 194 -154 194 -131 q 235 -237 194 -207 q 347 -268 275 -268 m 335 836 q 283 858 300 836 q 267 907 267 881 q 290 965 267 940 q 349 989 313 989 q 399 967 382 989 q 417 918 417 946 q 394 860 417 885 q 335 836 371 836 z "},"ß":{"ha":821,"x_min":57,"x_max":808,"o":"m 400 57 q 405 83 400 67 q 418 117 410 99 q 435 151 426 135 q 453 176 444 167 l 472 176 q 507 79 472 114 q 604 44 542 44 q 644 54 625 44 q 677 80 663 64 q 701 117 692 96 q 710 160 710 138 q 687 224 710 196 q 631 277 664 253 q 557 326 597 301 q 483 378 517 350 q 427 442 450 407 q 404 525 404 478 q 433 610 404 574 q 495 680 461 647 q 558 745 529 713 q 586 817 586 778 q 539 913 586 878 q 410 949 492 949 q 292 887 331 949 q 253 692 254 825 l 244 136 q 299 60 242 60 l 346 60 q 364 61 356 60 l 367 56 l 357 -3 q 304 -1 329 -3 q 258 -1 282 -1 q 219 0 235 0 q 163 -1 190 0 q 113 -3 135 -1 q 64 -6 88 -4 l 71 49 q 135 76 119 56 q 150 150 150 97 l 150 506 q 129 549 147 538 q 63 563 111 560 l 57 571 l 67 618 l 150 633 q 235 926 150 822 q 471 1031 319 1031 q 551 1017 513 1031 q 618 979 589 1003 q 665 925 647 956 q 682 861 682 894 q 655 762 682 803 q 594 688 628 721 q 534 622 561 654 q 507 551 507 590 q 529 497 507 521 q 585 449 551 472 q 658 403 618 426 q 731 352 697 381 q 786 288 764 324 q 808 204 808 251 q 788 119 808 160 q 735 49 768 79 q 656 1 701 19 q 561 -17 611 -17 q 447 4 493 -17 q 400 57 400 25 z "},"h":{"ha":742,"x_min":35,"x_max":697,"o":"m 49 54 q 105 75 89 58 q 121 131 121 92 l 121 869 q 69 942 121 942 l 40 942 l 35 946 l 40 990 q 113 1001 76 994 q 179 1015 150 1008 q 246 1031 214 1022 l 254 1013 q 244 965 249 1004 q 235 863 239 926 q 227 715 231 799 q 221 536 224 632 q 257 560 231 543 q 315 597 283 578 q 378 630 347 615 q 429 644 410 644 q 570 598 521 644 q 619 465 619 551 q 616 405 619 447 q 608 313 613 363 q 601 215 604 263 q 597 136 597 167 q 646 58 597 58 q 661 58 653 58 q 676 60 669 58 q 694 61 685 60 l 697 56 l 686 -4 q 643 -3 665 -4 q 603 -1 624 -1 q 563 0 582 0 q 515 -3 540 0 q 469 -8 490 -6 q 419 -17 444 -12 l 425 40 q 485 73 467 51 q 503 131 503 94 l 511 406 q 481 513 511 475 q 396 550 451 550 q 340 540 368 550 q 288 518 313 531 q 246 492 264 506 q 219 474 228 479 q 216 308 217 393 q 215 136 215 222 q 226 76 215 93 q 265 58 238 58 q 281 58 272 58 q 296 60 289 58 q 314 61 304 60 l 317 56 l 304 -4 q 260 -3 282 -4 q 219 -1 240 -1 q 178 0 197 0 q 131 -1 156 0 q 88 -1 107 -1 q 40 -3 63 -3 l 49 54 z "},"ħ":{"ha":744,"x_min":11,"x_max":700,"o":"m 51 54 q 108 75 92 58 q 124 131 124 92 l 124 725 q 86 724 104 724 q 54 724 68 724 l 24 724 l 11 736 l 21 790 q 51 789 35 789 l 124 789 l 124 869 q 72 942 124 942 l 43 942 l 38 946 l 43 990 q 116 1001 79 994 q 182 1015 153 1008 q 249 1031 217 1022 l 257 1013 q 244 942 250 1001 q 233 789 239 883 q 276 790 254 789 q 318 793 299 792 q 361 796 340 794 l 379 778 l 374 726 l 231 725 q 226 635 228 682 q 224 536 225 588 q 260 560 233 543 q 318 597 286 578 q 381 630 350 615 q 432 644 413 644 q 573 598 524 644 q 622 465 622 551 q 619 405 622 447 q 611 313 615 363 q 603 215 607 263 q 600 136 600 167 q 649 58 600 58 q 664 58 656 58 q 679 60 672 58 q 697 61 688 60 l 700 56 l 689 -4 q 646 -3 668 -4 q 606 -1 626 -1 q 565 0 585 0 q 518 -3 543 0 q 472 -8 493 -6 q 422 -17 447 -12 l 428 40 q 488 73 469 51 q 506 131 506 94 l 514 406 q 484 513 514 475 q 399 550 454 550 q 343 540 371 550 q 291 518 315 531 q 249 492 267 506 q 222 474 231 479 q 219 308 219 393 q 218 136 218 222 q 229 76 218 93 q 268 58 240 58 q 283 58 275 58 q 299 60 292 58 q 317 61 307 60 l 319 56 l 307 -4 q 263 -3 285 -4 q 222 -1 243 -1 q 181 0 200 0 q 134 -1 158 0 q 90 -1 110 -1 q 43 -3 65 -3 l 51 54 z "},"i":{"ha":392,"x_min":58,"x_max":339,"o":"m 185 836 q 135 856 154 836 q 117 907 117 875 q 140 965 117 942 q 199 989 164 989 q 247 969 228 989 q 267 918 267 950 q 243 860 267 883 q 185 836 219 836 m 67 40 q 126 73 108 51 q 144 131 144 94 l 144 483 q 93 558 144 558 q 69 556 83 558 q 58 553 64 554 l 64 604 q 134 616 99 610 q 199 629 169 622 q 264 644 233 636 l 271 628 q 258 565 264 613 q 249 449 253 517 q 242 299 244 381 q 239 136 239 218 q 288 58 239 58 q 303 58 294 58 q 318 60 311 58 q 336 61 326 60 l 339 56 l 328 -4 q 285 -3 307 -4 q 244 -1 265 -1 q 204 0 224 0 q 157 -3 182 0 q 111 -8 132 -6 q 61 -17 86 -12 l 67 40 z "},"ĳ":{"ha":739,"x_min":58,"x_max":642,"o":"m 185 836 q 135 856 154 836 q 117 907 117 875 q 140 965 117 942 q 199 989 164 989 q 247 969 228 989 q 267 918 267 950 q 243 860 267 883 q 185 836 219 836 m 67 40 q 126 73 108 51 q 144 131 144 94 l 144 483 q 93 558 144 558 q 69 556 83 558 q 58 553 64 554 l 64 604 q 134 616 99 610 q 199 629 169 622 q 264 644 233 636 l 271 628 q 258 565 264 613 q 249 449 253 517 q 242 299 244 381 q 239 136 239 218 q 288 58 239 58 q 303 58 294 58 q 318 60 311 58 q 336 61 326 60 l 339 56 l 328 -4 q 285 -3 307 -4 q 244 -1 265 -1 q 204 0 224 0 q 157 -3 182 0 q 111 -8 132 -6 q 61 -17 86 -12 l 67 40 m 413 -308 l 415 -297 q 465 -236 444 -268 q 497 -164 485 -204 q 513 -71 508 -124 q 518 53 518 -18 l 518 483 q 506 542 518 526 q 463 558 494 558 q 438 556 451 558 q 425 554 432 554 l 431 606 q 498 616 463 610 q 563 629 533 622 q 631 644 597 636 l 638 628 q 620 442 626 608 q 614 -19 614 275 q 569 -201 614 -119 q 438 -335 524 -282 l 413 -308 m 560 836 q 510 856 529 836 q 492 907 492 875 q 515 965 492 942 q 574 989 539 989 q 622 969 603 989 q 642 918 642 950 q 618 860 642 883 q 560 836 594 836 z "},"j":{"ha":347,"x_min":21,"x_max":250,"o":"m 21 -308 l 24 -297 q 73 -236 53 -268 q 105 -164 93 -204 q 122 -71 117 -124 q 126 53 126 -18 l 126 483 q 115 542 126 526 q 71 558 103 558 q 46 556 60 558 q 33 554 40 554 l 39 606 q 106 616 71 610 q 171 629 142 622 q 239 644 206 636 l 246 628 q 228 442 235 608 q 222 -19 222 275 q 177 -201 222 -119 q 46 -335 132 -282 l 21 -308 m 168 836 q 119 856 138 836 q 100 907 100 875 q 124 965 100 942 q 182 989 147 989 q 231 969 211 989 q 250 918 250 950 q 226 860 250 883 q 168 836 203 836 z "},"į":{"ha":392,"x_min":58,"x_max":351,"o":"m 67 40 q 126 73 108 51 q 144 131 144 94 l 144 483 q 93 558 144 558 q 69 556 83 558 q 58 553 64 554 l 64 604 q 134 616 99 610 q 199 629 169 622 q 264 644 233 636 l 271 628 q 258 565 264 613 q 249 449 253 517 q 242 299 244 381 q 239 136 239 218 q 282 58 239 60 l 288 58 q 303 58 294 58 q 318 60 311 58 q 336 61 326 60 l 339 56 l 328 -4 q 303 -3 315 -4 q 278 -1 292 -1 q 250 0 265 -1 q 170 -97 194 -58 q 146 -178 146 -136 q 168 -231 146 -210 q 226 -253 190 -253 q 265 -249 246 -253 q 300 -237 285 -244 q 333 -221 317 -231 l 351 -247 q 308 -282 332 -265 q 264 -312 289 -297 q 213 -335 239 -326 q 101 -301 144 -335 q 58 -204 58 -267 q 96 -106 58 -156 q 189 0 133 -56 q 145 -3 167 -1 q 104 -8 124 -6 q 61 -17 82 -12 l 67 40 m 185 836 q 135 856 154 836 q 117 907 117 875 q 140 965 117 942 q 199 989 164 989 q 247 969 228 989 q 267 918 267 950 q 243 860 267 883 q 185 836 219 836 z "},"k":{"ha":690,"x_min":35,"x_max":671,"o":"m 47 49 q 90 62 75 53 q 113 88 106 71 q 120 128 119 104 q 121 188 121 153 l 121 869 q 69 944 121 944 q 46 942 60 944 q 35 939 40 940 q 35 951 35 946 q 38 964 36 957 l 40 990 q 113 1001 76 994 q 179 1015 150 1008 q 246 1031 214 1022 l 254 1013 q 245 966 250 1006 q 235 864 240 926 q 227 719 231 801 q 221 542 224 636 q 217 344 218 447 q 215 136 215 240 q 226 76 215 93 q 265 58 238 58 q 281 58 272 58 q 296 60 289 58 q 314 61 304 60 l 317 56 l 304 -4 q 260 -3 282 -4 q 219 -1 240 -1 q 178 0 197 0 q 131 -1 156 0 q 88 -4 107 -3 q 40 -8 63 -7 l 47 49 m 250 331 l 253 350 l 422 506 q 449 533 442 524 q 456 554 456 543 q 438 576 456 569 q 379 583 419 583 l 375 590 l 388 631 q 436 629 411 629 q 481 628 457 628 q 524 628 504 628 q 567 628 543 628 q 610 632 590 629 q 656 636 633 633 l 660 629 l 649 586 q 573 549 611 575 q 497 491 535 524 q 424 422 460 458 q 353 351 388 385 l 499 164 q 585 76 547 101 q 667 50 624 50 l 671 43 l 663 3 q 619 -8 640 -3 q 584 -16 601 -12 q 560 -19 567 -19 q 534 -15 546 -19 q 511 -6 522 -11 q 467 30 489 6 q 414 99 446 54 l 250 331 z "},"ķ":{"ha":690,"x_min":35,"x_max":671,"o":"m 47 49 q 90 62 75 53 q 113 88 106 71 q 120 128 119 104 q 121 188 121 153 l 121 869 q 69 944 121 944 q 46 942 60 944 q 35 939 40 940 q 35 951 35 946 q 38 964 36 957 l 40 990 q 113 1001 76 994 q 179 1015 150 1008 q 246 1031 214 1022 l 254 1013 q 245 966 250 1006 q 235 864 240 926 q 227 719 231 801 q 221 542 224 636 q 217 344 218 447 q 215 136 215 240 q 226 76 215 93 q 265 58 238 58 q 281 58 272 58 q 296 60 289 58 q 314 61 304 60 l 317 56 l 304 -4 q 260 -3 282 -4 q 219 -1 240 -1 q 178 0 197 0 q 131 -1 156 0 q 88 -4 107 -3 q 40 -8 63 -7 l 47 49 m 250 331 l 253 350 l 422 506 q 449 533 442 524 q 456 554 456 543 q 438 576 456 569 q 379 583 419 583 l 375 590 l 388 631 q 436 629 411 629 q 481 628 457 628 q 524 628 504 628 q 567 628 543 628 q 610 632 590 629 q 656 636 633 633 l 660 629 l 649 586 q 573 549 611 575 q 497 491 535 524 q 424 422 460 458 q 353 351 388 385 l 499 164 q 585 76 547 101 q 667 50 624 50 l 671 43 l 663 3 q 619 -8 640 -3 q 584 -16 601 -12 q 560 -19 567 -19 q 534 -15 546 -19 q 511 -6 522 -11 q 467 30 489 6 q 414 99 446 54 l 250 331 m 289 -129 q 324 -106 303 -118 q 369 -93 346 -93 q 423 -119 401 -93 q 444 -192 444 -146 q 427 -262 444 -229 q 384 -322 410 -294 q 327 -370 358 -349 q 267 -407 296 -392 l 242 -386 l 242 -372 q 313 -308 283 -346 q 342 -235 342 -271 q 326 -185 342 -207 q 286 -149 310 -162 l 289 -129 z "},"l":{"ha":339,"x_min":35,"x_max":315,"o":"m 43 40 q 90 60 74 49 q 113 90 106 72 q 120 131 119 107 q 121 188 121 154 l 121 869 q 69 944 121 944 q 46 942 60 944 q 35 939 40 940 q 35 951 35 946 q 38 964 36 957 l 40 990 q 113 1001 76 994 q 179 1015 150 1008 q 246 1031 214 1022 l 254 1013 q 245 965 250 1004 q 235 863 240 926 q 227 717 231 800 q 221 540 224 635 q 217 342 218 444 q 215 136 215 239 q 226 76 215 94 q 264 58 238 58 q 279 58 271 58 q 294 60 288 58 q 313 61 303 60 l 315 56 l 304 -4 q 261 -3 283 -4 q 221 -1 242 -1 q 181 0 200 0 q 133 -3 158 0 q 88 -8 108 -6 q 38 -17 63 -12 l 43 40 z "},"ĺ":{"ha":339,"x_min":35,"x_max":351,"o":"m 43 40 q 90 60 74 49 q 113 90 106 72 q 120 131 119 107 q 121 188 121 154 l 121 869 q 69 944 121 944 q 46 942 60 944 q 35 939 40 940 q 35 951 35 946 q 38 964 36 957 l 40 990 q 113 1001 76 994 q 179 1015 150 1008 q 246 1031 214 1022 l 254 1013 q 245 965 250 1004 q 235 863 240 926 q 227 717 231 800 q 221 540 224 635 q 217 342 218 444 q 215 136 215 239 q 226 76 215 94 q 264 58 238 58 q 279 58 271 58 q 294 60 288 58 q 313 61 303 60 l 315 56 l 304 -4 q 261 -3 283 -4 q 221 -1 242 -1 q 181 0 200 0 q 133 -3 158 0 q 88 -8 108 -6 q 38 -17 63 -12 l 43 40 m 350 1238 q 276 1179 314 1210 q 202 1117 243 1151 q 117 1043 161 1083 l 104 1046 l 76 1072 q 151 1155 114 1113 q 218 1233 188 1197 q 285 1313 253 1274 l 299 1310 l 351 1253 l 350 1238 z "},"ľ":{"ha":422,"x_min":35,"x_max":422,"o":"m 43 40 q 90 60 74 49 q 113 90 106 72 q 120 131 119 107 q 121 188 121 154 l 121 869 q 69 944 121 944 q 46 942 60 944 q 35 939 40 940 q 35 951 35 946 q 38 964 36 957 l 40 990 q 113 1001 76 994 q 179 1015 150 1008 q 246 1031 214 1022 l 254 1013 q 245 965 250 1004 q 235 863 240 926 q 227 717 231 800 q 221 540 224 635 q 217 342 218 444 q 215 136 215 239 q 226 76 215 94 q 264 58 238 58 q 279 58 271 58 q 294 60 288 58 q 313 61 303 60 l 315 56 l 304 -4 q 261 -3 283 -4 q 221 -1 242 -1 q 181 0 200 0 q 133 -3 158 0 q 88 -8 108 -6 q 38 -17 63 -12 l 43 40 m 422 961 q 408 867 415 915 q 393 772 401 825 q 374 667 385 719 l 339 647 l 324 650 q 325 762 326 708 q 321 858 324 815 q 315 953 318 908 l 413 972 l 422 961 z "},"ļ":{"ha":339,"x_min":35,"x_max":315,"o":"m 43 40 q 90 60 74 49 q 113 90 106 72 q 120 131 119 107 q 121 188 121 154 l 121 869 q 69 944 121 944 q 46 942 60 944 q 35 939 40 940 q 35 951 35 946 q 38 964 36 957 l 40 990 q 113 1001 76 994 q 179 1015 150 1008 q 246 1031 214 1022 l 254 1013 q 245 965 250 1004 q 235 863 240 926 q 227 717 231 800 q 221 540 224 635 q 217 342 218 444 q 215 136 215 239 q 226 76 215 94 q 264 58 238 58 q 279 58 271 58 q 294 60 288 58 q 313 61 303 60 l 315 56 l 304 -4 q 261 -3 283 -4 q 221 -1 242 -1 q 181 0 200 0 q 133 -3 158 0 q 88 -8 108 -6 q 38 -17 63 -12 l 43 40 m 101 -129 q 137 -106 115 -118 q 182 -93 158 -93 q 235 -119 214 -93 q 257 -192 257 -146 q 240 -262 257 -229 q 197 -322 222 -294 q 140 -370 171 -349 q 79 -407 108 -392 l 54 -386 l 54 -372 q 125 -308 96 -346 q 154 -235 154 -271 q 138 -185 154 -207 q 99 -149 122 -162 l 101 -129 z "},"ŀ":{"ha":461,"x_min":35,"x_max":454,"o":"m 43 40 q 90 60 74 49 q 113 90 106 72 q 120 131 119 107 q 121 188 121 154 l 121 869 q 69 944 121 944 q 46 942 60 944 q 35 939 40 940 q 35 951 35 946 q 38 964 36 957 l 40 990 q 113 1001 76 994 q 179 1015 150 1008 q 246 1031 214 1022 l 254 1013 q 245 965 250 1004 q 235 863 240 926 q 227 717 231 800 q 221 540 224 635 q 217 342 218 444 q 215 136 215 239 q 226 76 215 94 q 264 58 238 58 q 279 58 271 58 q 294 60 288 58 q 313 61 303 60 l 315 56 l 304 -4 q 261 -3 283 -4 q 221 -1 242 -1 q 181 0 200 0 q 133 -3 158 0 q 88 -8 108 -6 q 38 -17 63 -12 l 43 40 m 367 304 q 308 328 326 304 q 289 383 289 353 q 312 444 289 419 q 375 469 335 469 q 434 446 414 469 q 454 390 454 422 q 431 329 454 354 q 367 304 407 304 z "},"ł":{"ha":343,"x_min":4,"x_max":336,"o":"m 43 40 q 90 60 74 49 q 113 90 106 72 q 120 131 119 107 q 121 188 121 154 l 121 481 l 25 428 l 13 431 l 4 475 l 121 540 l 121 869 q 69 944 121 944 q 46 942 60 944 q 35 939 40 940 q 35 951 35 946 q 38 964 36 957 l 40 990 q 113 1001 76 994 q 179 1015 150 1008 q 246 1031 214 1022 l 254 1013 q 245 971 250 1006 q 236 880 240 936 q 228 750 232 824 q 222 590 225 676 l 317 643 l 328 638 l 336 594 l 221 531 q 217 337 218 438 q 215 136 215 236 q 226 76 215 94 q 264 58 238 58 q 279 58 271 58 q 294 60 288 58 q 313 61 303 60 l 315 56 l 304 -4 q 261 -3 283 -4 q 221 -1 242 -1 q 181 0 200 0 q 133 -3 158 0 q 88 -8 108 -6 q 38 -17 63 -12 l 43 40 z "},"m":{"ha":1156,"x_min":54,"x_max":1113,"o":"m 451 40 q 511 73 493 51 q 529 131 529 94 l 535 406 q 505 513 535 475 q 419 550 475 550 q 368 542 394 550 q 319 522 342 533 q 277 498 296 510 q 249 478 258 486 q 245 392 247 442 q 241 292 243 342 q 238 199 239 242 q 236 136 236 157 q 247 76 236 93 q 286 58 258 58 q 301 58 293 58 q 317 60 310 58 q 335 61 325 60 l 338 56 l 325 -4 q 281 -3 303 -4 q 240 -1 261 -1 q 199 0 218 0 q 152 -1 176 0 q 108 -1 128 -1 q 61 -3 83 -3 l 69 54 q 126 75 110 58 q 142 131 142 92 l 142 469 q 126 535 142 517 q 74 554 111 554 l 58 554 l 54 560 l 58 606 q 129 618 94 611 q 192 632 164 625 q 253 646 224 639 l 261 635 q 254 607 257 622 q 249 578 251 594 q 246 543 247 561 l 249 539 q 288 565 261 547 q 345 601 315 583 q 404 631 375 618 q 453 644 433 644 q 565 616 519 644 q 631 535 611 588 q 665 558 639 540 q 724 596 692 576 q 788 630 756 615 q 840 644 819 644 q 979 597 928 644 q 1031 465 1031 549 q 1028 405 1031 447 q 1021 313 1025 363 q 1014 215 1017 263 q 1011 136 1011 167 q 1022 76 1011 93 q 1061 58 1033 58 q 1076 58 1068 58 q 1092 60 1085 58 q 1110 61 1100 60 l 1113 56 l 1100 -4 q 1056 -3 1078 -4 q 1015 -1 1036 -1 q 974 0 993 0 q 927 -1 951 0 q 883 -4 903 -3 q 836 -8 858 -7 l 843 49 q 900 74 883 56 q 917 131 917 92 l 922 406 q 892 513 922 475 q 807 550 863 550 q 757 542 782 550 q 710 524 732 535 q 669 501 688 513 q 639 481 650 489 l 624 136 q 672 58 624 58 q 688 58 679 58 q 703 60 696 58 q 721 61 711 60 l 724 56 l 713 -4 q 669 -3 692 -4 q 629 -1 650 -1 q 589 0 608 0 q 542 -3 567 0 q 496 -8 517 -6 q 446 -17 471 -12 l 451 40 z "},"n":{"ha":781,"x_min":54,"x_max":724,"o":"m 451 40 q 511 73 493 51 q 529 131 529 94 l 535 406 q 505 513 535 475 q 419 550 475 550 q 368 542 394 550 q 319 522 342 533 q 277 498 296 510 q 249 478 258 486 q 245 392 247 442 q 241 292 243 342 q 238 199 239 242 q 236 136 236 157 q 247 76 236 93 q 286 58 258 58 q 301 58 293 58 q 317 60 310 58 q 335 61 325 60 l 338 56 l 325 -4 q 281 -3 303 -4 q 240 -1 261 -1 q 199 0 218 0 q 152 -1 176 0 q 108 -4 128 -3 q 61 -8 83 -7 l 68 49 q 125 74 108 56 q 142 131 142 92 l 142 469 q 126 535 142 517 q 74 554 111 554 l 58 554 l 54 560 l 58 606 q 129 618 94 611 q 192 632 164 625 q 253 646 224 639 l 261 635 q 254 607 257 622 q 249 578 251 594 q 246 543 247 561 l 249 539 q 288 565 261 547 q 347 600 315 582 q 407 631 378 618 q 453 644 436 644 q 592 597 540 644 q 643 465 643 549 q 640 405 643 447 q 633 313 638 363 q 626 215 629 263 q 624 136 624 167 q 672 58 624 58 q 688 58 679 58 q 703 60 696 58 q 721 61 711 60 l 724 56 l 713 -4 q 669 -3 692 -4 q 629 -1 650 -1 q 589 0 608 0 q 542 -3 567 0 q 496 -8 517 -6 q 446 -17 471 -12 l 451 40 z "},"ń":{"ha":781,"x_min":54,"x_max":724,"o":"m 451 40 q 511 73 493 51 q 529 131 529 94 l 535 406 q 505 513 535 475 q 419 550 475 550 q 368 542 394 550 q 319 522 342 533 q 277 498 296 510 q 249 478 258 486 q 245 392 247 442 q 241 292 243 342 q 238 199 239 242 q 236 136 236 157 q 247 76 236 93 q 286 58 258 58 q 301 58 293 58 q 317 60 310 58 q 335 61 325 60 l 338 56 l 325 -4 q 281 -3 303 -4 q 240 -1 261 -1 q 199 0 218 0 q 152 -1 176 0 q 108 -4 128 -3 q 61 -8 83 -7 l 68 49 q 125 74 108 56 q 142 131 142 92 l 142 469 q 126 535 142 517 q 74 554 111 554 l 58 554 l 54 560 l 58 606 q 129 618 94 611 q 192 632 164 625 q 253 646 224 639 l 261 635 q 254 607 257 622 q 249 578 251 594 q 246 543 247 561 l 249 539 q 288 565 261 547 q 347 600 315 582 q 407 631 378 618 q 453 644 436 644 q 592 597 540 644 q 643 465 643 549 q 640 405 643 447 q 633 313 638 363 q 626 215 629 263 q 624 136 624 167 q 672 58 624 58 q 688 58 679 58 q 703 60 696 58 q 721 61 711 60 l 724 56 l 713 -4 q 669 -3 692 -4 q 629 -1 650 -1 q 589 0 608 0 q 542 -3 567 0 q 496 -8 517 -6 q 446 -17 471 -12 l 451 40 m 576 918 q 503 860 540 890 q 428 798 469 832 q 343 724 388 764 l 331 726 l 303 753 q 377 835 340 793 q 444 914 414 878 q 511 993 479 954 l 525 990 l 578 933 l 576 918 z "},"ň":{"ha":781,"x_min":54,"x_max":724,"o":"m 451 40 q 511 73 493 51 q 529 131 529 94 l 535 406 q 505 513 535 475 q 419 550 475 550 q 368 542 394 550 q 319 522 342 533 q 277 498 296 510 q 249 478 258 486 q 245 392 247 442 q 241 292 243 342 q 238 199 239 242 q 236 136 236 157 q 247 76 236 93 q 286 58 258 58 q 301 58 293 58 q 317 60 310 58 q 335 61 325 60 l 338 56 l 325 -4 q 281 -3 303 -4 q 240 -1 261 -1 q 199 0 218 0 q 152 -1 176 0 q 108 -4 128 -3 q 61 -8 83 -7 l 68 49 q 125 74 108 56 q 142 131 142 92 l 142 469 q 126 535 142 517 q 74 554 111 554 l 58 554 l 54 560 l 58 606 q 129 618 94 611 q 192 632 164 625 q 253 646 224 639 l 261 635 q 254 607 257 622 q 249 578 251 594 q 246 543 247 561 l 249 539 q 288 565 261 547 q 347 600 315 582 q 407 631 378 618 q 453 644 436 644 q 592 597 540 644 q 643 465 643 549 q 640 405 643 447 q 633 313 638 363 q 626 215 629 263 q 624 136 624 167 q 672 58 624 58 q 688 58 679 58 q 703 60 696 58 q 721 61 711 60 l 724 56 l 713 -4 q 669 -3 692 -4 q 629 -1 650 -1 q 589 0 608 0 q 542 -3 567 0 q 496 -8 517 -6 q 446 -17 471 -12 l 451 40 m 213 985 l 224 986 q 324 904 276 940 q 401 846 371 868 q 478 905 431 868 q 579 986 526 942 l 590 985 l 613 953 q 541 876 576 915 q 476 804 506 836 q 411 731 442 767 l 392 731 q 326 804 361 767 q 262 876 297 836 q 190 953 226 915 l 213 985 z "},"ņ":{"ha":781,"x_min":54,"x_max":724,"o":"m 451 40 q 511 73 493 51 q 529 131 529 94 l 535 406 q 505 513 535 475 q 419 550 475 550 q 368 542 394 550 q 319 522 342 533 q 277 498 296 510 q 249 478 258 486 q 245 392 247 442 q 241 292 243 342 q 238 199 239 242 q 236 136 236 157 q 247 76 236 93 q 286 58 258 58 q 301 58 293 58 q 317 60 310 58 q 335 61 325 60 l 338 56 l 325 -4 q 281 -3 303 -4 q 240 -1 261 -1 q 199 0 218 0 q 152 -1 176 0 q 108 -4 128 -3 q 61 -8 83 -7 l 68 49 q 125 74 108 56 q 142 131 142 92 l 142 469 q 126 535 142 517 q 74 554 111 554 l 58 554 l 54 560 l 58 606 q 129 618 94 611 q 192 632 164 625 q 253 646 224 639 l 261 635 q 254 607 257 622 q 249 578 251 594 q 246 543 247 561 l 249 539 q 288 565 261 547 q 347 600 315 582 q 407 631 378 618 q 453 644 436 644 q 592 597 540 644 q 643 465 643 549 q 640 405 643 447 q 633 313 638 363 q 626 215 629 263 q 624 136 624 167 q 672 58 624 58 q 688 58 679 58 q 703 60 696 58 q 721 61 711 60 l 724 56 l 713 -4 q 669 -3 692 -4 q 629 -1 650 -1 q 589 0 608 0 q 542 -3 567 0 q 496 -8 517 -6 q 446 -17 471 -12 l 451 40 m 314 -129 q 349 -106 328 -118 q 394 -93 371 -93 q 448 -119 426 -93 q 469 -192 469 -146 q 452 -262 469 -229 q 409 -322 435 -294 q 352 -370 383 -349 q 292 -407 321 -392 l 267 -386 l 267 -372 q 338 -308 308 -346 q 367 -235 367 -271 q 351 -185 367 -207 q 311 -149 335 -162 l 314 -129 z "},"ñ":{"ha":781,"x_min":54,"x_max":724,"o":"m 451 40 q 511 73 493 51 q 529 131 529 94 l 535 406 q 505 513 535 475 q 419 550 475 550 q 368 542 394 550 q 319 522 342 533 q 277 498 296 510 q 249 478 258 486 q 245 392 247 442 q 241 292 243 342 q 238 199 239 242 q 236 136 236 157 q 247 76 236 93 q 286 58 258 58 q 301 58 293 58 q 317 60 310 58 q 335 61 325 60 l 338 56 l 325 -4 q 281 -3 303 -4 q 240 -1 261 -1 q 199 0 218 0 q 152 -1 176 0 q 108 -4 128 -3 q 61 -8 83 -7 l 68 49 q 125 74 108 56 q 142 131 142 92 l 142 469 q 126 535 142 517 q 74 554 111 554 l 58 554 l 54 560 l 58 606 q 129 618 94 611 q 192 632 164 625 q 253 646 224 639 l 261 635 q 254 607 257 622 q 249 578 251 594 q 246 543 247 561 l 249 539 q 288 565 261 547 q 347 600 315 582 q 407 631 378 618 q 453 644 436 644 q 592 597 540 644 q 643 465 643 549 q 640 405 643 447 q 633 313 638 363 q 626 215 629 263 q 624 136 624 167 q 672 58 624 58 q 688 58 679 58 q 703 60 696 58 q 721 61 711 60 l 724 56 l 713 -4 q 669 -3 692 -4 q 629 -1 650 -1 q 589 0 608 0 q 542 -3 567 0 q 496 -8 517 -6 q 446 -17 471 -12 l 451 40 m 201 765 l 171 794 l 171 801 l 276 925 l 299 931 q 344 924 315 931 q 403 908 372 917 q 460 892 433 899 q 501 885 486 885 q 528 896 513 885 q 557 922 543 907 q 589 961 572 939 l 597 961 l 628 932 l 628 925 l 522 801 l 500 796 q 455 803 483 796 q 396 819 426 810 q 338 835 365 828 q 297 842 311 842 q 269 830 285 842 q 240 803 254 818 q 210 765 225 786 l 201 765 z "},"o":{"ha":692,"x_min":50,"x_max":642,"o":"m 319 -17 q 210 6 260 -17 q 124 69 160 29 q 69 167 89 110 q 50 292 50 224 q 75 431 50 367 q 143 542 100 494 q 245 617 186 590 q 372 644 304 644 q 481 622 432 644 q 566 558 531 599 q 622 461 601 518 q 642 336 642 404 q 617 197 642 261 q 549 85 592 133 q 447 10 506 38 q 319 -17 388 -17 m 358 51 q 483 115 438 51 q 528 286 528 178 q 513 401 528 349 q 473 490 499 453 q 410 549 447 528 q 331 569 374 569 q 206 506 251 569 q 161 332 161 442 q 176 218 161 269 q 216 129 190 167 q 278 72 242 92 q 358 51 314 51 z "},"ó":{"ha":692,"x_min":50,"x_max":642,"o":"m 319 -17 q 210 6 260 -17 q 124 69 160 29 q 69 167 89 110 q 50 292 50 224 q 75 431 50 367 q 143 542 100 494 q 245 617 186 590 q 372 644 304 644 q 481 622 432 644 q 566 558 531 599 q 622 461 601 518 q 642 336 642 404 q 617 197 642 261 q 549 85 592 133 q 447 10 506 38 q 319 -17 388 -17 m 358 51 q 483 115 438 51 q 528 286 528 178 q 513 401 528 349 q 473 490 499 453 q 410 549 447 528 q 331 569 374 569 q 206 506 251 569 q 161 332 161 442 q 176 218 161 269 q 216 129 190 167 q 278 72 242 92 q 358 51 314 51 m 526 918 q 453 860 490 890 q 378 798 419 832 q 293 724 338 764 l 281 726 l 253 753 q 327 835 290 793 q 394 914 364 878 q 461 993 429 954 l 475 990 l 528 933 l 526 918 z "},"ô":{"ha":692,"x_min":50,"x_max":642,"o":"m 319 -17 q 210 6 260 -17 q 124 69 160 29 q 69 167 89 110 q 50 292 50 224 q 75 431 50 367 q 143 542 100 494 q 245 617 186 590 q 372 644 304 644 q 481 622 432 644 q 566 558 531 599 q 622 461 601 518 q 642 336 642 404 q 617 197 642 261 q 549 85 592 133 q 447 10 506 38 q 319 -17 388 -17 m 358 51 q 483 115 438 51 q 528 286 528 178 q 513 401 528 349 q 473 490 499 453 q 410 549 447 528 q 331 569 374 569 q 206 506 251 569 q 161 332 161 442 q 176 218 161 269 q 216 129 190 167 q 278 72 242 92 q 358 51 314 51 m 147 764 q 215 837 181 800 q 276 906 249 874 q 339 976 308 942 l 358 976 q 421 906 389 942 q 482 837 449 874 q 550 764 515 800 l 531 733 l 518 732 q 423 810 469 775 q 349 867 376 844 q 274 810 319 844 q 179 732 229 776 l 167 733 l 147 764 z "},"ö":{"ha":692,"x_min":50,"x_max":642,"o":"m 319 -17 q 210 6 260 -17 q 124 69 160 29 q 69 167 89 110 q 50 292 50 224 q 75 431 50 367 q 143 542 100 494 q 245 617 186 590 q 372 644 304 644 q 481 622 432 644 q 566 558 531 599 q 622 461 601 518 q 642 336 642 404 q 617 197 642 261 q 549 85 592 133 q 447 10 506 38 q 319 -17 388 -17 m 358 51 q 483 115 438 51 q 528 286 528 178 q 513 401 528 349 q 473 490 499 453 q 410 549 447 528 q 331 569 374 569 q 206 506 251 569 q 161 332 161 442 q 176 218 161 269 q 216 129 190 167 q 278 72 242 92 q 358 51 314 51 m 456 786 q 413 805 428 786 q 399 846 399 824 q 418 894 399 874 q 468 915 438 915 q 510 897 496 915 q 525 856 525 879 q 506 807 525 828 q 456 786 486 786 m 225 786 q 183 805 197 786 q 168 846 168 824 q 188 894 168 874 q 238 915 207 915 q 280 897 265 915 q 294 856 294 879 q 275 807 294 828 q 225 786 256 786 z "},"œ":{"ha":1071,"x_min":50,"x_max":1015,"o":"m 810 78 q 873 84 842 78 q 928 99 904 90 q 981 121 956 108 l 989 118 l 1004 78 q 929 31 967 51 q 860 -2 897 13 q 792 -17 824 -17 q 725 -11 758 -17 q 660 8 692 -6 q 601 45 629 22 q 550 103 572 68 q 444 14 506 44 q 313 -17 383 -17 q 206 6 254 -17 q 123 69 157 29 q 69 167 89 110 q 50 292 50 224 q 74 431 50 367 q 141 542 99 494 q 241 617 183 590 q 365 644 299 644 q 489 613 435 644 q 578 524 543 582 q 691 616 628 588 q 807 644 754 644 q 961 596 907 644 q 1015 458 1015 547 q 1013 424 1015 439 q 1007 397 1010 408 q 1000 375 1003 383 l 982 358 l 604 358 l 604 336 q 619 230 604 278 q 660 149 633 182 q 726 97 688 115 q 810 78 764 78 m 351 51 q 470 115 426 51 q 514 286 514 178 q 500 401 514 349 q 461 490 486 453 q 401 549 436 528 q 324 569 365 569 q 205 506 249 569 q 161 332 161 442 q 175 218 161 269 q 214 129 189 167 q 274 72 239 92 q 351 51 310 51 m 781 574 q 669 530 715 574 q 610 410 622 486 l 861 422 q 889 431 882 424 q 896 460 896 439 q 866 544 896 515 q 781 574 836 574 z "},"ò":{"ha":692,"x_min":50,"x_max":642,"o":"m 319 -17 q 210 6 260 -17 q 124 69 160 29 q 69 167 89 110 q 50 292 50 224 q 75 431 50 367 q 143 542 100 494 q 245 617 186 590 q 372 644 304 644 q 481 622 432 644 q 566 558 531 599 q 622 461 601 518 q 642 336 642 404 q 617 197 642 261 q 549 85 592 133 q 447 10 506 38 q 319 -17 388 -17 m 358 51 q 483 115 438 51 q 528 286 528 178 q 513 401 528 349 q 473 490 499 453 q 410 549 447 528 q 331 569 374 569 q 206 506 251 569 q 161 332 161 442 q 176 218 161 269 q 216 129 190 167 q 278 72 242 92 q 358 51 314 51 m 174 932 l 226 989 l 240 992 q 307 913 271 953 q 374 835 336 878 q 449 753 411 793 l 421 726 l 408 724 q 322 799 364 764 q 247 860 279 833 q 175 917 208 890 l 174 932 z "},"ő":{"ha":692,"x_min":50,"x_max":642,"o":"m 319 -17 q 210 6 260 -17 q 124 69 160 29 q 69 167 89 110 q 50 292 50 224 q 75 431 50 367 q 143 542 100 494 q 245 617 186 590 q 372 644 304 644 q 481 622 432 644 q 566 558 531 599 q 622 461 601 518 q 642 336 642 404 q 617 197 642 261 q 549 85 592 133 q 447 10 506 38 q 319 -17 388 -17 m 358 51 q 483 115 438 51 q 528 286 528 178 q 513 401 528 349 q 473 490 499 453 q 410 549 447 528 q 331 569 374 569 q 206 506 251 569 q 161 332 161 442 q 176 218 161 269 q 216 129 190 167 q 278 72 242 92 q 358 51 314 51 m 439 910 q 372 860 408 886 q 303 806 342 836 q 224 742 264 776 l 211 744 l 189 769 q 258 842 224 806 q 321 910 293 879 q 383 979 354 946 l 396 975 l 442 922 l 439 910 m 617 910 q 550 860 586 886 q 481 806 519 836 q 401 742 442 776 l 389 744 l 367 769 q 436 842 401 806 q 499 910 471 879 q 561 979 532 946 l 574 975 l 619 922 l 617 910 z "},"˝":{"ha":553,"x_min":103,"x_max":533,"o":"m 353 910 q 286 860 322 886 q 217 806 256 836 q 138 742 178 776 l 125 744 l 103 769 q 172 842 138 806 q 235 910 207 879 q 297 979 268 946 l 310 975 l 356 922 l 353 910 m 531 910 q 464 860 500 886 q 394 806 433 836 q 315 742 356 776 l 303 744 l 281 769 q 350 842 315 806 q 413 910 385 879 q 475 979 446 946 l 488 975 l 533 922 l 531 910 z "},"ō":{"ha":692,"x_min":50,"x_max":642,"o":"m 319 -17 q 210 6 260 -17 q 124 69 160 29 q 69 167 89 110 q 50 292 50 224 q 75 431 50 367 q 143 542 100 494 q 245 617 186 590 q 372 644 304 644 q 481 622 432 644 q 566 558 531 599 q 622 461 601 518 q 642 336 642 404 q 617 197 642 261 q 549 85 592 133 q 447 10 506 38 q 319 -17 388 -17 m 358 51 q 483 115 438 51 q 528 286 528 178 q 513 401 528 349 q 473 490 499 453 q 410 549 447 528 q 331 569 374 569 q 206 506 251 569 q 161 332 161 442 q 176 218 161 269 q 216 129 190 167 q 278 72 242 92 q 358 51 314 51 m 556 893 l 546 828 l 349 826 q 283 826 317 826 q 218 825 249 825 l 149 825 l 140 838 l 154 900 q 231 899 193 899 l 368 899 q 425 899 394 899 q 483 903 456 900 q 547 907 515 904 l 556 893 z "},"ø":{"ha":692,"x_min":50,"x_max":642,"o":"m 165 31 q 81 138 111 71 q 50 292 50 204 q 75 431 50 367 q 143 542 100 494 q 245 617 186 590 q 372 644 304 644 q 474 625 426 644 l 539 749 l 579 739 l 583 722 l 518 601 q 609 493 576 561 q 642 336 642 425 q 617 197 642 261 q 549 85 592 133 q 447 10 506 38 q 319 -17 388 -17 q 260 -10 288 -17 q 207 7 232 -4 l 131 -136 l 93 -128 l 90 -114 l 165 31 m 358 51 q 483 115 438 51 q 528 286 528 178 q 511 408 528 353 q 465 500 494 463 l 250 90 q 358 51 297 51 m 161 332 q 217 128 161 204 l 428 536 q 331 569 383 569 q 206 506 251 569 q 161 332 161 442 z "},"õ":{"ha":692,"x_min":50,"x_max":642,"o":"m 319 -17 q 210 6 260 -17 q 124 69 160 29 q 69 167 89 110 q 50 292 50 224 q 75 431 50 367 q 143 542 100 494 q 245 617 186 590 q 372 644 304 644 q 481 622 432 644 q 566 558 531 599 q 622 461 601 518 q 642 336 642 404 q 617 197 642 261 q 549 85 592 133 q 447 10 506 38 q 319 -17 388 -17 m 358 51 q 483 115 438 51 q 528 286 528 178 q 513 401 528 349 q 473 490 499 453 q 410 549 447 528 q 331 569 374 569 q 206 506 251 569 q 161 332 161 442 q 176 218 161 269 q 216 129 190 167 q 278 72 242 92 q 358 51 314 51 m 150 765 l 119 794 l 119 801 l 225 925 l 247 931 q 292 924 264 931 q 351 908 321 917 q 408 892 382 899 q 450 885 435 885 q 476 896 461 885 q 506 922 492 907 q 538 961 521 939 l 546 961 l 576 932 l 576 925 l 471 801 l 449 796 q 403 803 432 796 q 344 819 375 810 q 287 835 314 828 q 246 842 260 842 q 218 830 233 842 q 189 803 203 818 q 158 765 174 786 l 150 765 z "},"p":{"ha":733,"x_min":56,"x_max":683,"o":"m 69 -275 q 106 -267 92 -272 q 127 -251 119 -262 q 138 -222 135 -240 q 140 -175 140 -204 q 141 -128 140 -158 q 142 -65 142 -99 q 142 1 142 -32 q 143 56 143 33 l 143 469 q 128 535 143 517 q 75 554 113 554 l 60 554 l 56 560 l 60 606 q 131 618 96 611 q 193 632 165 625 q 254 646 225 639 l 263 635 q 257 611 260 624 q 252 587 254 600 q 249 560 250 574 l 254 550 q 358 617 317 593 q 415 640 400 640 q 524 619 475 640 q 609 559 574 597 q 664 467 644 521 q 683 347 683 413 q 656 206 683 272 q 581 90 628 140 q 472 12 535 40 q 338 -17 408 -17 q 307 -16 325 -17 q 274 -14 289 -15 q 236 -11 256 -12 q 237 -83 236 -47 q 238 -154 238 -118 q 250 -241 238 -218 q 303 -264 263 -264 q 326 -263 314 -264 q 350 -262 339 -262 l 353 -267 l 342 -319 l 210 -319 q 153 -321 179 -319 q 107 -325 126 -322 q 63 -329 83 -328 l 69 -275 m 238 86 q 303 67 265 75 q 376 60 342 60 q 523 123 469 60 q 576 296 576 186 q 563 394 576 349 q 524 474 549 440 q 465 526 499 507 q 393 546 432 546 q 325 527 365 546 q 249 478 285 508 q 244 385 246 435 q 240 284 242 336 q 238 181 239 232 q 238 86 238 131 z "},"q":{"ha":717,"x_min":50,"x_max":674,"o":"m 394 -272 q 441 -267 424 -271 q 468 -253 458 -262 q 481 -228 478 -244 q 486 -187 485 -212 l 492 83 q 378 10 424 36 q 318 -17 333 -17 q 209 5 258 -17 q 124 66 160 26 q 69 160 89 106 q 50 281 50 214 q 77 422 50 356 q 151 538 104 488 q 262 616 199 588 q 396 644 325 644 q 458 642 425 644 q 524 632 492 639 q 553 644 539 638 q 578 654 567 650 q 600 664 590 660 l 611 651 q 599 573 604 636 q 592 407 594 510 q 587 164 589 304 q 585 -147 585 24 q 587 -208 585 -185 q 594 -243 589 -231 q 608 -260 599 -256 q 635 -264 618 -264 l 660 -264 q 671 -262 665 -264 l 674 -265 l 664 -319 l 536 -319 q 486 -320 513 -319 q 438 -322 460 -321 q 388 -325 413 -324 l 394 -272 m 492 532 q 456 547 476 540 q 413 559 438 554 q 357 564 389 564 q 210 501 264 564 q 157 328 157 438 q 171 228 157 275 q 210 147 185 182 q 268 93 235 113 q 340 74 301 74 q 392 85 365 74 q 440 113 418 97 q 492 151 465 129 l 492 532 z "},"r":{"ha":532,"x_min":63,"x_max":500,"o":"m 82 50 q 138 77 124 54 q 151 165 151 100 l 151 471 q 139 536 151 517 q 99 556 126 556 q 78 553 89 556 q 69 551 72 551 l 63 561 l 67 604 q 131 617 99 610 q 192 631 164 624 q 254 646 224 638 l 264 638 q 257 590 260 615 q 252 544 254 569 q 251 494 250 518 l 257 490 q 303 551 278 524 q 356 597 329 578 q 407 628 382 617 q 453 639 432 639 q 486 636 472 639 q 496 633 492 635 l 500 628 l 490 560 q 483 496 486 531 q 478 429 479 461 l 424 425 q 416 501 424 482 q 386 519 408 519 q 321 494 356 519 q 257 425 286 469 q 251 294 254 353 q 249 244 250 269 q 248 199 249 219 q 247 163 247 178 q 246 142 246 147 q 259 78 246 94 q 313 61 272 61 q 330 61 319 61 q 350 63 340 61 q 374 64 361 63 l 375 58 l 363 -3 q 313 -1 338 -3 q 265 -1 290 -1 q 221 0 240 0 q 163 -1 189 0 q 117 -3 136 -1 q 75 -6 93 -4 l 82 50 l 82 50 z "},"ŕ":{"ha":532,"x_min":63,"x_max":500,"o":"m 82 50 q 138 77 124 54 q 151 165 151 100 l 151 471 q 139 536 151 517 q 99 556 126 556 q 78 553 89 556 q 69 551 72 551 l 63 561 l 67 604 q 131 617 99 610 q 192 631 164 624 q 254 646 224 638 l 264 638 q 257 590 260 615 q 252 544 254 569 q 251 494 250 518 l 257 490 q 303 551 278 524 q 356 597 329 578 q 407 628 382 617 q 453 639 432 639 q 486 636 472 639 q 496 633 492 635 l 500 628 l 490 560 q 483 496 486 531 q 478 429 479 461 l 424 425 q 416 501 424 482 q 386 519 408 519 q 321 494 356 519 q 257 425 286 469 q 251 294 254 353 q 249 244 250 269 q 248 199 249 219 q 247 163 247 178 q 246 142 246 147 q 259 78 246 94 q 313 61 272 61 q 330 61 319 61 q 350 63 340 61 q 374 64 361 63 l 375 58 l 363 -3 q 313 -1 338 -3 q 265 -1 290 -1 q 221 0 240 0 q 163 -1 189 0 q 117 -3 136 -1 q 75 -6 93 -4 l 82 50 l 82 50 m 378 918 q 304 860 342 890 q 230 798 271 832 q 144 724 189 764 l 132 726 l 104 753 q 178 835 142 793 q 246 914 215 878 q 313 993 281 954 l 326 990 l 379 933 l 378 918 z "},"ř":{"ha":532,"x_min":-10,"x_max":500,"o":"m 82 50 q 138 77 124 54 q 151 165 151 100 l 151 471 q 139 536 151 517 q 99 556 126 556 q 78 553 89 556 q 69 551 72 551 l 63 561 l 67 604 q 131 617 99 610 q 192 631 164 624 q 254 646 224 638 l 264 638 q 257 590 260 615 q 252 544 254 569 q 251 494 250 518 l 257 490 q 303 551 278 524 q 356 597 329 578 q 407 628 382 617 q 453 639 432 639 q 486 636 472 639 q 496 633 492 635 l 500 628 l 490 560 q 483 496 486 531 q 478 429 479 461 l 424 425 q 416 501 424 482 q 386 519 408 519 q 321 494 356 519 q 257 425 286 469 q 251 294 254 353 q 249 244 250 269 q 248 199 249 219 q 247 163 247 178 q 246 142 246 147 q 259 78 246 94 q 313 61 272 61 q 330 61 319 61 q 350 63 340 61 q 374 64 361 63 l 375 58 l 363 -3 q 313 -1 338 -3 q 265 -1 290 -1 q 221 0 240 0 q 163 -1 189 0 q 117 -3 136 -1 q 75 -6 93 -4 l 82 50 l 82 50 m 13 985 l 24 986 q 124 904 76 940 q 201 846 171 868 q 278 905 231 868 q 379 986 326 942 l 390 985 l 413 953 q 341 876 376 915 q 276 804 306 836 q 211 731 242 767 l 192 731 q 126 804 161 767 q 62 876 97 836 q -10 953 26 915 l 13 985 z "},"ŗ":{"ha":532,"x_min":63,"x_max":500,"o":"m 82 50 q 138 77 124 54 q 151 165 151 100 l 151 471 q 139 536 151 517 q 99 556 126 556 q 78 553 89 556 q 69 551 72 551 l 63 561 l 67 604 q 131 617 99 610 q 192 631 164 624 q 254 646 224 638 l 264 638 q 257 590 260 615 q 252 544 254 569 q 251 494 250 518 l 257 490 q 303 551 278 524 q 356 597 329 578 q 407 628 382 617 q 453 639 432 639 q 486 636 472 639 q 496 633 492 635 l 500 628 l 490 560 q 483 496 486 531 q 478 429 479 461 l 424 425 q 416 501 424 482 q 386 519 408 519 q 321 494 356 519 q 257 425 286 469 q 251 294 254 353 q 249 244 250 269 q 248 199 249 219 q 247 163 247 178 q 246 142 246 147 q 259 78 246 94 q 313 61 272 61 q 330 61 319 61 q 350 63 340 61 q 374 64 361 63 l 375 58 l 363 -3 q 313 -1 338 -3 q 265 -1 290 -1 q 221 0 240 0 q 163 -1 189 0 q 117 -3 136 -1 q 75 -6 93 -4 l 82 50 l 82 50 m 153 -129 q 188 -106 167 -118 q 233 -93 210 -93 q 287 -119 265 -93 q 308 -192 308 -146 q 291 -262 308 -229 q 248 -322 274 -294 q 191 -370 222 -349 q 131 -407 160 -392 l 106 -386 l 106 -372 q 176 -308 147 -346 q 206 -235 206 -271 q 190 -185 206 -207 q 150 -149 174 -162 l 153 -129 z "},"s":{"ha":558,"x_min":68,"x_max":492,"o":"m 238 -17 q 169 -12 199 -17 q 117 -3 139 -8 q 72 13 92 3 l 68 22 q 72 57 69 33 q 78 109 75 81 q 83 165 81 138 q 85 208 85 192 l 133 215 q 163 86 133 124 q 268 49 193 49 q 357 72 321 49 q 393 131 393 96 q 386 163 393 147 q 360 194 379 178 q 310 229 342 210 q 232 274 279 249 q 117 355 153 314 q 81 446 81 396 q 100 525 81 489 q 153 588 119 561 q 235 629 188 614 q 336 644 282 644 q 389 641 364 644 q 433 633 414 638 q 475 622 456 628 l 478 615 q 467 565 472 592 q 458 511 463 542 q 451 446 454 481 l 400 442 q 401 457 400 450 q 402 470 401 464 q 403 482 403 476 q 376 555 403 532 q 289 578 349 578 q 209 556 242 578 q 176 501 176 533 q 204 439 176 468 q 297 376 232 410 q 390 323 353 347 q 451 276 428 299 q 483 232 474 254 q 492 183 492 210 q 471 107 492 143 q 415 43 450 71 q 335 -1 381 15 q 238 -17 289 -17 z "},"ś":{"ha":558,"x_min":68,"x_max":492,"o":"m 238 -17 q 169 -12 199 -17 q 117 -3 139 -8 q 72 13 92 3 l 68 22 q 72 57 69 33 q 78 109 75 81 q 83 165 81 138 q 85 208 85 192 l 133 215 q 163 86 133 124 q 268 49 193 49 q 357 72 321 49 q 393 131 393 96 q 386 163 393 147 q 360 194 379 178 q 310 229 342 210 q 232 274 279 249 q 117 355 153 314 q 81 446 81 396 q 100 525 81 489 q 153 588 119 561 q 235 629 188 614 q 336 644 282 644 q 389 641 364 644 q 433 633 414 638 q 475 622 456 628 l 478 615 q 467 565 472 592 q 458 511 463 542 q 451 446 454 481 l 400 442 q 401 457 400 450 q 402 470 401 464 q 403 482 403 476 q 376 555 403 532 q 289 578 349 578 q 209 556 242 578 q 176 501 176 533 q 204 439 176 468 q 297 376 232 410 q 390 323 353 347 q 451 276 428 299 q 483 232 474 254 q 492 183 492 210 q 471 107 492 143 q 415 43 450 71 q 335 -1 381 15 q 238 -17 289 -17 m 471 918 q 397 860 435 890 q 323 798 364 832 q 238 724 282 764 l 225 726 l 197 753 q 272 835 235 793 q 339 914 308 878 q 406 993 374 954 l 419 990 l 472 933 l 471 918 z "},"š":{"ha":558,"x_min":68,"x_max":506,"o":"m 238 -17 q 169 -12 199 -17 q 117 -3 139 -8 q 72 13 92 3 l 68 22 q 72 57 69 33 q 78 109 75 81 q 83 165 81 138 q 85 208 85 192 l 133 215 q 163 86 133 124 q 268 49 193 49 q 357 72 321 49 q 393 131 393 96 q 386 163 393 147 q 360 194 379 178 q 310 229 342 210 q 232 274 279 249 q 117 355 153 314 q 81 446 81 396 q 100 525 81 489 q 153 588 119 561 q 235 629 188 614 q 336 644 282 644 q 389 641 364 644 q 433 633 414 638 q 475 622 456 628 l 478 615 q 467 565 472 592 q 458 511 463 542 q 451 446 454 481 l 400 442 q 401 457 400 450 q 402 470 401 464 q 403 482 403 476 q 376 555 403 532 q 289 578 349 578 q 209 556 242 578 q 176 501 176 533 q 204 439 176 468 q 297 376 232 410 q 390 323 353 347 q 451 276 428 299 q 483 232 474 254 q 492 183 492 210 q 471 107 492 143 q 415 43 450 71 q 335 -1 381 15 q 238 -17 289 -17 m 106 985 l 117 986 q 217 904 169 940 q 294 846 264 868 q 372 905 324 868 q 472 986 419 942 l 483 985 l 506 953 q 434 876 469 915 q 369 804 399 836 q 304 731 335 767 l 285 731 q 219 804 254 767 q 155 876 190 836 q 83 953 119 915 l 106 985 z "}}}
